<?xml version="1.0" encoding="utf-8"?>
<!-- Generator: Adobe Illustrator 24.0.2, SVG Export Plug-In . SVG Version: 6.00 Build 0)  -->
<svg version="1.1" id="Слой_1" xmlns="http://www.w3.org/2000/svg" xmlns:xlink="http://www.w3.org/1999/xlink" x="0px" y="0px"
	 viewBox="0 0 31.1 51.4" style="enable-background:new 0 0 31.1 51.4;" xml:space="preserve">
<style type="text/css">
	.st0{fill:#F7C800;}
	.st1{fill:#FFFFFF;}
	.st2{fill:#181818;}
</style>
<title>1_1</title>
<g id="Слой_2_1_">
	<g id="content">
		<g id="_1">
			<polygon class="st0" points="20.7,11.2 30.8,5.3 22.4,0.4 12.4,6.4 			"/>
			<path class="st0" d="M20.7,51l-9.4-5.5v-21c0-2.6,0-4.9,0.1-6.9c-0.7,0.5-1.4,1-2.2,1.3l-3.9,1.5l-4.8-9.6l11.8-4.3l8.4,4.8V51z"
				/>
			<polygon class="st0" points="10.6,4.7 0.5,10.7 12.4,6.4 22.4,0.4 			"/>
			<polygon class="st1" points="30.8,8.4 22.4,3.5 11.4,7.5 1.4,13.4 12.4,9.5 20.7,14.3 			"/>
			<path class="st2" d="M22.4,0l-0.2,0.1L10.4,4.4l-10,5.9L0,10.4l5.2,10.3l4.3-1.6c0.5-0.3,1.1-0.5,1.6-0.9
				C11,20.1,11,22.1,11,24.4v21.3l9.8,5.7l10.4-6.1V5.1L22.4,0z M10.7,5.1l8-2.9L12.2,6l-0.6,0.2L4.2,8.9L10.7,5.1z M20.4,50.3
				l-8.7-5V24.5c0-2.5,0-4.9,0.1-6.9v-0.9l-0.7,0.5c-0.6,0.5-1.3,0.9-2.1,1.2l-3.6,1.4l-4.5-9l11.3-4.1l8.1,4.7L20.4,50.3z
				 M13.1,6.3l9.3-5.5L30,5.3l-3.2,1.9l-6.1,3.6L13.1,6.3z"/>
		</g>
	</g>
</g>
</svg>
