<?xml version="1.0" encoding="utf-8"?>
<!-- Generator: Adobe Illustrator 24.0.2, SVG Export Plug-In . SVG Version: 6.00 Build 0)  -->
<svg version="1.1" id="Слой_1" xmlns="http://www.w3.org/2000/svg" xmlns:xlink="http://www.w3.org/1999/xlink" x="0px" y="0px"
	 viewBox="0 0 52.3 61.3" style="enable-background:new 0 0 52.3 61.3;" xml:space="preserve">
<style type="text/css">
	.st0{fill:#F7C800;}
	.st1{fill:#FFFFFF;}
	.st2{fill:#181818;}
</style>
<title>1пп</title>
<g id="Слой_2_1_">
	<g id="content">
		<g id="icons">
			<g id="_5">
				<path class="st0" d="M51.8,52.8c-1-4.3-3.2-11-7.5-13.6l-2.6-1.5l-0.3-2.9c0.3-0.1,0.5-0.3,0.7-0.4l0,0l0.1-0.1
					c0.6-0.4,1.1-1,1.2-1.8l0.3-1.5l1.2-5.3c0.1-0.2,0.1-0.3,0.1-0.5v-0.1l0,0c0.1-0.4,0.1-0.8,0.1-1.3c-0.2-5.1-2.8-9.8-7.1-12.6
					c-1.8-1.1-3.3-1.3-4.6-0.8l-0.2,0.1l-0.1,0.1c-0.1,0.1-0.3,0.2-0.4,0.2l-3.4,1.9l0,0.3l1.7,1.2c-0.1,0.4-0.1,0.7-0.1,1.1
					c0,0.4,0,0.8,0,1.2v0.1v0.3c0,0.3,0.1,0.4,0.1,0.6l1.3,8.4l0,0c0.3,1.8,1,3.5,2,5L34,33.2c-0.6-0.4-1.8-1.1-2.6-1.6
					c-1.7-1-2.9-1-4.1-0.5l-0.1,0.1l-0.4,0.2l0,0L24,33.1l0.7,1.1c-0.3,0.6-0.6,1.3-0.9,2c-0.5,1.4,0.5,3.8,2.1,4.7l11.6,6.9
					l0.5,0.3l9,5.3c0.1,1.1,0.3,2.5,0.4,3.3c0,0.2,0.1,0.4,0.2,0.4c0.1,0,0.3,0,0.4-0.1l3.3-1.8l0,0C51.8,54.8,52.1,54,51.8,52.8z"
					/>
				<path class="st1" d="M51.8,54.4c-1-4.3-3.2-11-7.5-13.6l-2.6-1.5l-0.3-2.9c0.2-0.1-0.2-0.5,0.1-0.7l-0.4-0.2l0.4-1.2
					c0.6-0.4,1.2-0.1,1.3-1l1-0.7l1.1-5.3c0-0.2,0.1-0.3,0.1-0.5v-0.1l0,0c0.1-0.4,0.1-0.8,0.1-1.3c-0.2-5.1-2.9-9.8-7.1-12.6
					c-1.8-1.1-3.3-1.3-4.6-0.8l-0.2,0.1h-0.1c-0.1,0.1-0.3,0.2-0.4,0.2l-3.4,1.9l-0.2,0.4l1.7,1.3c-0.1,0.4-0.1,0.7-0.1,1.1
					s0,0.8,0,1.2v0.1v0.3c0,0.3,0.1,0.4,0.1,0.6l1.3,8.4l0,0c0.3,1.8,1,3.5,2,5L34,34.9c-0.6-0.4-1.8-1.1-2.6-1.6
					c-1.7-1-2.9-1.1-4.1-0.5l-0.1,0.1l-0.4,0.2l0,0L24,34.7l0.6,1.1c-0.3,0.6-0.6,1.3-0.9,2c-0.5,1.4,0.5,3.8,2.1,4.7l11.6,6.9
					l0.5,0.3l9,5.3c0.1,1.1-0.7,0.8-0.6,1.6c0,0.2,0.2,0.3,0.4,0.3h0.1l3.3-1.8l0,0C50.8,54.7,52.1,55.6,51.8,54.4z"/>
				<path class="st2" d="M47.8,57.4c-0.1,0-0.2,0-0.3-0.1c-0.2-0.1-0.4-0.3-0.4-0.5c-0.1-0.7-0.3-2-0.4-3.1l-21-12.4
					c-1.7-1-2.8-3.6-2.3-5.2c0.2-0.6,0.5-1.3,0.8-1.9L23.5,33l3.9-2.1c1.3-0.6,2.7-0.5,4.4,0.5c0.4,0.3,1,0.6,1.5,0.9l0.6,0.4
					l0.2-1.6c-1-1.5-1.7-3.2-2-5l-1.4-8.6c0-0.1-0.1-0.3-0.1-0.5v-0.4c0-0.4-0.1-0.9-0.1-1.3c0-0.3,0-0.6,0.1-0.9l-1.7-1.3l0.4-0.7
					l3.5-1.9c0.1-0.1,0.3-0.2,0.5-0.3l0.3-0.1c1.4-0.6,3-0.3,4.9,0.8c4.4,2.9,7.1,7.8,7.3,13c0,0.3,0,0.7-0.1,1l0,0l-0.1,0.4
					c0,0.2-0.1,0.3-0.1,0.5L44,32.6c-0.2,0.8-0.7,1.6-1.4,2h-0.1c-0.2,0.1-0.4,0.3-0.6,0.3l0.2,2.4l2.4,1.4
					c4.3,2.5,6.6,8.9,7.7,13.8l0,0c0.3,1.3,0,2.3-0.8,2.8l-3.3,1.8C48,57.4,47.9,57.4,47.8,57.4z M24.5,33.2l0.6,0.9L25,34.3
					c-0.3,0.6-0.6,1.3-0.9,2c-0.5,1.3,0.5,3.5,1.9,4.3l21.3,12.6v0.2c0.1,1.1,0.3,2.5,0.4,3.3l3.3-1.8c0.5-0.3,0.6-1,0.4-2l0,0
					C50.5,49,48.3,42,44,39.5l-2.7-1.6L41,34.6l0.2-0.1c0.2-0.1,0.5-0.2,0.7-0.4L42,34c0.6-0.3,1-0.9,1.1-1.5l1.5-6.8
					c0-0.2,0.1-0.3,0.1-0.5v-0.1c0.1-0.4,0.1-0.8,0.1-1.2c-0.2-5-2.8-9.5-6.9-12.3c-1.7-1-3.1-1.3-4.3-0.8l-0.2,0.1
					C33.3,11,33.1,11,33,11.1l-3.3,1.8l1.6,1.2v0.2c0,0.3-0.1,0.7-0.1,1c0,0.4,0,0.8,0,1.2v0.1v0.3c0,0.1,0,0.3,0.1,0.4v0.2l1.3,8.4
					c0.3,1.7,1,3.4,2,4.9l0.1,0.1l-0.4,3L34,33.6c-0.3-0.2-0.7-0.4-1.1-0.7s-1-0.6-1.4-0.9c-1.5-0.9-2.6-1-3.7-0.5l-0.2,0.1
					L24.5,33.2z"/>
				<path class="st0" d="M48.2,54.8c-1-4.3-3.2-11-7.5-13.6l-2.6-1.5l-0.3-2.9c1-0.4,1.8-1.2,2.1-2.2l0.3-1.5l1.2-5.3
					c0-0.2,0.1-0.3,0.1-0.5v-0.1l0,0c0.1-0.4,0.1-0.8,0.1-1.3c-0.2-5.1-2.9-9.8-7.1-12.6c-4-2.3-7.2-0.5-7.3,4.1c0,0.4,0,0.8,0,1.2
					v0.1V19c0,0.3,0.1,0.4,0.1,0.6l1.5,8.4l0,0c0.3,1.8,1,3.5,2,5l-0.3,2.3c-0.6-0.4-1.8-1.1-2.6-1.6c-4.3-2.6-6.7,1.4-7.8,4.5
					c-0.5,1.4,0.6,3.8,2.1,4.7l11.6,6.9l0.5,0.3L46,57C47.6,57.9,48.7,56.8,48.2,54.8z"/>
				<path class="st2" d="M47,57.7c-0.4,0-0.8-0.1-1.2-0.4L22.1,43.2c-1.7-1-2.8-3.6-2.3-5.2c0.7-2,2-4.6,4.2-5.3
					c1.4-0.4,2.9-0.2,4.1,0.6c0.4,0.3,1,0.6,1.5,0.9l0.6,0.4l0.2-1.6c-1-1.5-1.7-3.2-2-5L27,19.4c0-0.1,0-0.3-0.1-0.5v-0.3
					c0-0.4,0-0.9,0-1.3c0-2.4,0.9-4.1,2.4-5s3.5-0.6,5.5,0.6c4.3,2.9,7,7.7,7.2,13c0,0.4,0,0.7,0,1.1l0,0l-0.1,0.4
					c0,0.2-0.1,0.3-0.1,0.5l-1.5,6.8c-0.3,1.1-1.1,1.9-2.1,2.3l0.2,2.4l2.4,1.4c4.3,2.5,6.6,8.9,7.7,13.8l0,0c0.4,0.9,0.2,2-0.6,2.7
					C47.7,57.6,47.4,57.7,47,57.7z M25.3,33.3c-0.4,0-0.7,0.1-1.1,0.2c-1.9,0.7-3.1,3-3.7,4.9c-0.5,1.3,0.5,3.5,1.9,4.3l23.7,14.1
					c0.5,0.3,1,0.4,1.3,0.1s0.5-1,0.3-1.9l0,0c-0.9-3.9-3.1-10.8-7.4-13.4L37.6,40l-0.3-3.3l0.2-0.1c0.9-0.3,1.6-1.1,1.9-2l1.5-6.8
					c0-0.2,0.1-0.3,0.1-0.5v-0.1c0.1-0.4,0.1-0.8,0.1-1.2c-0.2-5-2.8-9.5-6.9-12.3c-1.8-1.1-3.5-1.3-4.8-0.6s-2,2.3-2,4.4
					c0,0.4,0,0.8,0,1.2v0.1v0.3c0,0.1,0,0.3,0.1,0.4v0.2l1.5,8.5c0.3,1.7,1,3.4,2,4.8l0.1,0.1l-0.4,3l-0.5-0.3l-1-0.8
					c-0.5-0.3-1-0.6-1.4-0.9C27.1,33.6,26.2,33.3,25.3,33.3z"/>
				<path class="st0" d="M23.4,26.9c-0.6-2.7-2-6.9-4.7-8.5l-1.6-1l-0.2-1.8c0.1-0.1,0.3-0.2,0.5-0.3l0,0h0.1
					c0.4-0.2,0.7-0.6,0.8-1.1l0.2-0.9l0.7-3.3c0-0.1,0.1-0.2,0.1-0.3v0l0,0c0-0.3,0.1-0.5,0.1-0.8C19.3,5.7,17.7,2.8,15,1
					c-0.8-0.6-1.9-0.8-2.9-0.5H12h-0.1c-0.1,0.1-0.2,0.1-0.3,0.1L9.5,1.9L9.4,2.1l1,0.8c0,0.2,0,0.4-0.1,0.7c0,0.3,0,0.5,0,0.8v0.1
					v0.2c0,0.2,0,0.2,0.1,0.4l0.8,5.2l0,0c0.2,1.1,0.6,2.2,1.3,3.1l-0.2,1.4c-0.4-0.2-1.1-0.7-1.6-1C10,13.2,9,13.1,8.2,13.4H8.1
					l-0.2,0.1l0,0l-1.8,1l0.4,0.7c-0.2,0.4-0.3,0.9-0.4,1.3c-0.2,1.2,0.3,2.3,1.3,2.9l7.2,4.3l0.3,0.2l5.6,3.3
					c0.1,0.7,0.2,1.6,0.3,2c0,0.1,0.1,0.2,0.2,0.2h0.1l2-1.1l0,0C23.4,28.2,23.6,27.6,23.4,26.9z"/>
				<path class="st1" d="M23.4,28c-0.6-2.7-2-6.9-4.7-8.5l-1.6-1l-0.2-1.8c0.1-0.1-0.1-0.2,0-0.3v-0.2l-0.1-0.5
					c0.4-0.3,1-0.4,1.1-0.9l0.5-0.5l0.7-3.3c0-0.1,0-0.2,0.1-0.3v-0.1l0,0c0-0.3,0.1-0.5,0.1-0.8c-0.1-3.2-1.8-6.1-4.4-7.9
					C14,1.5,13,1.3,12,1.7h-0.1h-0.1c-0.1,0-0.2,0.1-0.3,0.1L9.5,3L9.4,3.2l1,0.8c0,0.2-0.1,0.4-0.1,0.7c0,0.3,0,0.5,0,0.8v0.1v0.2
					c0,0.1,0,0.3,0.1,0.4l0.8,5.2l0,0c0.2,1.1,0.6,2.2,1.3,3.1l-0.2,1.4c-0.4-0.2-1.1-0.7-1.6-1C10,14.3,9,14.2,8.2,14.5H8.1
					l-0.2,0.1l0,0l-1.8,1l0.4,0.7c-0.2,0.4-0.3,0.9-0.4,1.3c-0.2,1.2,0.3,2.3,1.3,2.9l7.2,4.3l0.3,0.2l5.6,3.3
					c0.1,0.5,0.1,1,0.2,1.5c0,0.3,0.6-0.5,0.9-0.6l0.8-0.8l0,0C22.7,28.2,23.6,28.7,23.4,28z"/>
				<path class="st2" d="M20.9,29.9c-0.1,0-0.2,0-0.3-0.1c-0.2-0.1-0.3-0.3-0.3-0.5c-0.1-0.4-0.2-1.2-0.2-1.9l-13-7.7
					C6,19,5.4,17.6,5.6,16.3c0.1-0.4,0.3-0.8,0.5-1.1l-0.5-0.8L8.2,13c0.9-0.4,2-0.3,2.8,0.3c0.3,0.2,0.6,0.4,0.9,0.6l0.2,0.1
					l0.1-0.7c-0.6-1-1-2-1.2-3.1l-0.9-5.3c0-0.1,0-0.2,0-0.3V4.5c0-0.3-0.1-0.6-0.1-0.9c0-0.2,0-0.3,0-0.5L8.9,2.3l0.3-0.6l2.2-1.2
					l0.3-0.2l0.2-0.1C13-0.2,14.2,0,15.1,0.7c2.7,1.8,4.5,4.9,4.6,8.2c0,0.2,0,0.4,0,0.6l0,0v0.2c0,0.2-0.1,0.3-0.1,0.4l-1,4.2
					c-0.1,0.5-0.4,1-0.9,1.3l-0.1,0.1l-0.3,0.2l0.1,1.4l1.4,0.9c2.7,1.6,4.1,5.6,4.9,8.7l0,0c0.3,0.7,0,1.4-0.5,1.9l-2,1.1
					C21.1,29.9,21,29.9,20.9,29.9z M6.6,14.8l0.3,0.5l-0.1,0.2c-0.2,0.4-0.4,0.8-0.5,1.2c-0.1,1,0.3,2,1.1,2.5l13.3,7.9v0.2
					c0.1,0.6,0.2,1.3,0.2,1.8l1.9-1C23,28,23.1,27.6,23,27l0,0c-0.6-2.4-1.9-6.7-4.5-8.2l-1.8-1l-0.2-2.2l0.2-0.1l0.4-0.2
					c0.4-0.2,0.6-0.5,0.7-0.9l1-4.3c0-0.1,0-0.2,0.1-0.3V9.6c0-0.2,0.1-0.5,0.1-0.7c-0.1-3-1.7-5.8-4.2-7.5
					c-0.7-0.6-1.7-0.7-2.6-0.5l-0.2,0L11.8,1L10,2l0.9,0.7V3c0,0.2,0,0.4,0,0.6c0,0.2,0,0.5,0,0.7v0.2c0,0.1,0,0.2,0,0.3v0.1
					l0.8,5.2c0.2,1.1,0.6,2.1,1.2,3l0.1,0.1l-0.3,2.1L12.2,15l-0.7-0.4L10.6,14c-0.6-0.5-1.4-0.6-2.2-0.3L8.1,14L6.6,14.8z"/>
				<path class="st0" d="M21.1,28.1c-0.6-2.7-2-6.9-4.7-8.5l-1.6-1L14.7,17c0.6-0.2,1.1-0.8,1.3-1.4l0.2-0.9l0.7-3.3
					c0-0.1,0.1-0.3,0.1-0.4v-0.1l0,0c0-0.3,0.1-0.5,0.1-0.8C17,6.9,15.3,4,12.7,2.2C10.2,0.8,8.2,2,8.1,4.8c0,0.3,0,0.5,0,0.8v0.1
					v0.2c0,0.2,0,0.3,0.1,0.4L9,11.5l0,0c0.2,1.1,0.6,2.2,1.3,3.1L10.1,16c-0.4-0.2-1.1-0.7-1.6-1c-2.7-1.6-4.2,0.9-4.8,2.8
					C3.5,19,4,20.1,5,20.8l7.3,4.3l0.3,0.2l7.2,4.3C20.8,30.1,21.4,29.4,21.1,28.1z"/>
				<path class="st2" d="M20.4,30.1c-0.3,0-0.6-0.1-0.8-0.3L4.8,21.1c-1.1-0.7-1.7-2.1-1.5-3.4c0.5-1.3,1.3-2.9,2.7-3.4
					c1-0.3,2-0.2,2.7,0.4l0.9,0.6l0.2,0.1l0.1-0.7c-0.6-1-1-2-1.2-3.2L7.9,6.2c0-0.1,0-0.2,0-0.3V5.7c0-0.3,0-0.6,0-0.9
					C7.7,3.6,8.3,2.4,9.3,1.6c1.2-0.5,2.5-0.4,3.6,0.4c2.7,1.8,4.5,4.9,4.6,8.2c0,0.2,0,0.4,0,0.6l0,0l-0.1,0.3
					c0,0.2-0.1,0.3-0.1,0.4l-0.9,4.2c-0.2,0.7-0.6,1.2-1.3,1.5l0.1,1.4l1.4,0.9c2.7,1.6,4.1,5.6,4.9,8.7l0,0
					c0.2,0.6,0.1,1.3-0.4,1.8C20.9,30,20.7,30.1,20.4,30.1z M6.9,14.9c-0.2,0-0.4,0-0.6,0.1c-1.1,0.4-1.8,1.8-2.3,3
					c-0.1,1,0.3,2,1.2,2.5L20,29.2c0.3,0.2,0.5,0.2,0.6,0.1s0.3-0.5,0.1-1l0,0c-0.6-2.4-1.9-6.7-4.5-8.2l-1.8-1l-0.2-2.2l0.2-0.1
					c0.5-0.2,0.9-0.6,1.1-1.1l1-4.2c0-0.1,0-0.2,0.1-0.3v-0.1c0-0.2,0.1-0.5,0.1-0.7c-0.1-3-1.7-5.8-4.2-7.5c-0.8-0.9-1.9-1-2.8-0.6
					C8.9,2.9,8.4,3.8,8.5,4.8c0,0.2,0,0.5,0,0.7v0.2c0,0.1,0.1,0.1,0.1,0.2V6l0.8,5.2c0.2,1.1,0.6,2.1,1.2,3l0.1,0.1l-0.3,2.1
					L10,16.3l-0.7-0.4l-0.9-0.6C8,15,7.4,14.9,6.9,14.9z"/>
				<path class="st0" d="M22,57.9c-0.7-3-2.2-7.5-5.1-9.3l-1.7-1l-0.2-2l0.5-0.3l0,0h0.1c0.4-0.3,0.7-0.7,0.8-1.2l0.2-1l0.8-3.6
					c0-0.1,0.1-0.2,0.1-0.3v-0.1l0,0c0.1-0.3,0.1-0.6,0.1-0.9c-0.1-3.5-1.9-6.7-4.8-8.6c-0.9-0.7-2-1-3.1-0.7H9.5H9.4
					c-0.1,0-0.2,0.1-0.3,0.2l-2.3,1.4l-0.1,0.3l1.1,0.8c0,0.2,0,0.5-0.1,0.7c0,0.3,0,0.6,0,0.8v0.1v0.2c0,0.2,0.1,0.3,0.1,0.4
					l0.9,5.7l0,0C9,40.8,9.5,42,10.2,43L10,44.6c-0.4-0.3-1.2-0.8-1.8-1.1c-0.8-0.6-1.8-0.7-2.8-0.3h0l-0.3,0.2l0,0l-2,1.1l0.5,0.7
					C3.3,45.6,3.1,46,3,46.5c-0.2,1.3,0.3,2.5,1.4,3.2l7.9,4.7l0.3,0.2l6.1,3.6c0.1,0.7,0.2,1.7,0.3,2.2c0,0.1,0.1,0.2,0.3,0.2h0.1
					l2.2-1.2l0,0C22,59.3,22.2,58.7,22,57.9z"/>
				<path class="st1" d="M22,58.9c-0.7-3-2.2-7.5-5.1-9.3l-1.7-1l-0.4-1.7c0.2-0.1,0.1-1.2,0.3-1.3l0.5-0.3l0.1-0.8
					c0.4-0.3,0.6,0.7,0.7,0.1l0.4-0.5l0.8-3.6c0-0.1,0.1-0.2,0.1-0.3v-0.1l0,0c0.1-0.3,0.1-0.6,0.1-0.9c-0.1-3.5-1.9-6.7-4.8-8.6
					c-0.9-0.7-2.1-0.9-3.1-0.5H9.5H9.4c-0.1,0-0.2,0.1-0.3,0.2l-2.3,1.3l-0.1,0.3l1.1,0.8c0,0.2,0,0.5-0.1,0.7c0,0.3,0,0.6,0,0.8
					v0.1v0.2c0,0.2,0,0.3,0.1,0.4l0.9,5.7l0,0c0.2,1.2,0.7,2.4,1.4,3.4l-0.2,1.5c-0.4-0.3-1.2-0.8-1.8-1.1c-0.8-0.6-1.8-0.7-2.8-0.3
					h0L5,44.2l0,0l-2,1.1L3.5,46c-0.2,0.4-0.4,0.9-0.6,1.4c-0.2,1.3,0.3,2.6,1.4,3.3l7.9,4.7l0.3,0.2l6.1,3.6c0,0.3,0.1,0.6,0.1,0.9
					c0.1,0.8,0.8,0.3,1.5-0.1l0.7-0.3l0.2-0.1C21.6,59.5,22.1,59.7,22,58.9z"/>
				<path class="st2" d="M19.2,61.1c-0.1,0-0.2,0-0.3-0.1c-0.2-0.1-0.3-0.3-0.3-0.5c-0.1-0.5-0.2-1.3-0.3-2.1L4.2,50.1
					c-1.2-0.8-1.9-2.2-1.6-3.7c0.2-0.4,0.3-0.8,0.5-1.2l-0.5-0.9l2.8-1.5c1-0.4,2.2-0.3,3.1,0.4c0.3,0.2,0.7,0.4,1,0.6L9.7,44
					l0.1-0.9c-0.7-1-1.1-2.2-1.4-3.4l-0.9-5.8c0-0.1,0-0.2,0-0.3v-0.2c0-0.3,0-0.7,0-1c0-0.2,0-0.4,0-0.6l-1.2-0.9l0.3-0.6L8.9,29
					c0.1-0.1,0.2-0.1,0.3-0.2l0.2-0.1c1.2-0.4,2.4-0.2,3.4,0.6c3,2,4.8,5.3,5,8.9c0,0.2,0,0.4,0,0.7l0,0l-0.1,0.3
					c0,0.1-0.1,0.2-0.1,0.4l-1,4.6c-0.1,0.6-0.5,1.1-1,1.4l-0.1,0.1l-0.3,0.2l0.1,1.5l1.6,0.9c3,1.8,4.5,6.1,5.3,9.5
					c0.3,0.7,0,1.5-0.6,2L19.5,61C19.4,61.1,19.3,61.1,19.2,61.1z M3.6,44.6l0.3,0.6l-0.1,0.2c-0.2,0.4-0.4,0.9-0.6,1.3
					c-0.2,1.1,0.3,2.2,1.3,2.8L19,58.1v0.2c0.1,0.6,0.2,1.5,0.3,2l2.1-1.2c0.2-0.1,0.4-0.5,0.2-1.2l0,0c-0.6-2.6-2.1-7.3-5-9
					l-1.8-1.1l-0.2-2.4l0.2-0.1c0.2-0.1,0.3-0.2,0.5-0.3l0.1-0.1c0.4-0.2,0.6-0.6,0.7-1l1-4.6c0-0.1,0.1-0.2,0.1-0.3l0,0
					c0-0.3,0.1-0.5,0.1-0.8c-0.1-3.3-1.9-6.4-4.6-8.3c-0.8-0.6-1.8-0.8-2.8-0.5H9.8l-0.3,0.2l-2.1,1.1l1,0.7v0.2
					c0,0.2-0.1,0.5-0.1,0.7c0,0.3,0,0.5,0,0.8v0.3c0,0.1,0,0.2,0,0.3v0.1l0.9,5.7c0.2,1.2,0.7,2.3,1.3,3.3l0.1,0.1l-0.3,2.2
					l-0.5-0.3L9,44.4l-1-0.6c-0.7-0.6-1.6-0.7-2.4-0.3l-0.4,0.2L3.6,44.6z"/>
				<path class="st0" d="M19.5,59.2c-0.7-3-2.2-7.5-5.1-9.3l-1.8-1l-0.2-2c0.7-0.3,1.2-0.8,1.4-1.5l0.2-1l0.8-3.6
					c0-0.1,0.1-0.2,0.1-0.3v-0.1l0,0c0-0.3,0.1-0.6,0.1-0.9c-0.2-3.5-1.9-6.6-4.8-8.6c-2.7-1.6-4.9-0.4-5,2.8c0,0.3,0,0.6,0,0.8v0.1
					v0.2c0,0.2,0,0.3,0.1,0.4l1,5.7l0,0c0.2,1.2,0.7,2.4,1.4,3.4L7.5,46c-0.4-0.3-1.2-0.8-1.7-1.1c-2.9-1.7-4.5,1-5.3,3.1
					c-0.2,1.3,0.4,2.5,1.4,3.2l7.9,4.7l0.4,0.2l7.8,4.6C19.1,61.3,19.8,60.6,19.5,59.2z"/>
				<path class="st2" d="M18.8,61.3c-0.3,0-0.6-0.1-0.9-0.3L1.7,51.5c-1.2-0.8-1.9-2.2-1.6-3.6c0.5-1.4,1.4-3.2,2.9-3.7
					c1-0.3,2.1-0.1,2.9,0.5l1,0.6l0.3,0.2l0.1-0.9c-0.7-1-1.1-2.2-1.4-3.4L5,35.4c0-0.1,0-0.2-0.1-0.3v-0.2c0-0.3,0-0.6,0-1
					c-0.1-1.4,0.5-2.7,1.7-3.5c1.3-0.6,2.7-0.4,3.9,0.4c3,2,4.8,5.3,5,8.9c0,0.2,0,0.4,0,0.7l0,0l-0.1,0.4c0,0.1,0,0.2-0.1,0.4
					l-1,4.6c-0.2,0.7-0.7,1.4-1.4,1.7V49l1.6,0.9c3,1.8,4.5,6.1,5.3,9.5c0.2,0.7,0.1,1.4-0.5,1.9C19.2,61.2,19,61.3,18.8,61.3z
					 M4,44.7c-0.2,0-0.5,0-0.7,0.1c-1.2,0.5-2,2-2.5,3.3c-0.2,1.1,0.3,2.2,1.3,2.8l16.2,9.6c0.2,0.2,0.5,0.2,0.8,0.1
					c0.3-0.3,0.3-0.8,0.2-1.2l0,0c-0.6-2.6-2.1-7.3-5-9l-1.9-1.1l-0.2-2.4l0.2-0.1c0.6-0.2,1-0.7,1.2-1.3l1-4.6
					c0-0.1,0.1-0.2,0.1-0.3v-0.1c0-0.3,0.1-0.5,0.1-0.8c-0.1-3.3-1.9-6.4-4.6-8.3c-0.9-0.7-2-0.8-3-0.4c-0.9,0.7-1.4,1.7-1.3,2.9
					c0,0.3,0,0.5,0,0.8V35c0,0.1,0,0.2,0,0.3v0.1l0.9,5.7c0.2,1.2,0.7,2.3,1.4,3.3l0.1,0.1L8,46.7l-0.5-0.3l-0.8-0.5
					c-0.3-0.2-0.7-0.4-1-0.6C5.1,44.9,4.5,44.7,4,44.7z"/>
				<polygon class="st2" points="14.9,18.7 17.1,17.5 16.9,15.9 18,14.9 19.3,9.2 19.1,7.3 16.9,8.6 17,10.9 16.4,13.9 15.6,16.3 
					14.7,16.8 				"/>
				<polygon class="st2" points="20.7,26.2 22.9,25 23.5,26.7 23.4,27.8 22.7,28.6 21.2,29.3 21.2,27.6 				"/>
				<polygon class="st2" points="14.7,36.5 17,35.2 17.6,37.4 17.4,39.6 16.6,42.9 16.1,44.6 14.9,45.7 15.1,47.6 12.6,49 
					12.5,46.8 13.5,46.4 14.3,44.1 15.1,38.4 				"/>
				<polygon class="st2" points="19,57.3 21.4,56 22,57.9 22,59 21.5,59.6 19.5,60.5 19.6,59 				"/>
				<polygon class="st2" points="41.2,22.6 44.8,20.6 45.3,24.6 43.4,32.9 42.3,34.3 41.4,34.8 41.7,37.7 38.1,39.7 37.8,36.8 
					39.7,35.7 40.1,33.6 41.7,25.9 				"/>
				<polygon class="st2" points="47.5,52.4 51.1,50.4 51.9,53.2 51.9,54.2 51.2,55.2 48.1,56.7 48.3,55.2 47.9,53 				"/>
			</g>
		</g>
	</g>
</g>
</svg>
