<?xml version="1.0" encoding="utf-8"?>
<!-- Generator: Adobe Illustrator 24.0.2, SVG Export Plug-In . SVG Version: 6.00 Build 0)  -->
<svg version="1.1" id="Слой_1" xmlns="http://www.w3.org/2000/svg" xmlns:xlink="http://www.w3.org/1999/xlink" x="0px" y="0px"
	 viewBox="0 0 49.3 42.3" style="enable-background:new 0 0 49.3 42.3;" xml:space="preserve">
<style type="text/css">
	.st0{fill:#F7C800;}
	.st1{fill:#181818;}
	.st2{fill:#FFFFFF;}
</style>
<title>2</title>
<g id="Слой_2_1_">
	<g id="content">
		<g id="_2">
			<polygon class="st0" points="0.4,28.8 0.4,16 23,29.1 23,41.8 			"/>
			<polygon class="st0" points="25.9,6.2 25.9,14.7 38.2,14.7 42.5,9.1 34.5,3.3 28.2,4.4 			"/>
			<path class="st1" d="M38.4,15.1H25.5V6l2.6-2l6.4-1.1L43,9L38.4,15.1z M26.3,14.4H38l3.9-5.2l-7.6-5.5l-6,1l-2.1,1.7L26.3,14.4
				L26.3,14.4z"/>
			<path class="st0" d="M44,13.8L39.1,15l-24.2,2.2l6.7,8.3l4.8,5.6c2.3,0,4,0.1,5.2,0c1.9,0,3.8-0.1,5.7-0.4c1.5-0.2,3-0.5,4.5-1
				c1.3-0.4,2.6-1,3.8-1.7c1.4-0.7,2.5-1.9,3.1-3.3c0.1-0.4,0.2-0.8,0.2-1.1l0,0V11.1L44,13.8z"/>
			<path class="st1" d="M30.6,31.5c-1.1,0-2.5,0-4.3-0.1h-0.2l-4.9-5.7L14,16.8l25-2.1l4.8-1.3l5.5-2.9v12.9V24c0,0.3-0.1,0.7-0.2,1
				c-0.6,1.5-1.8,2.8-3.3,3.5c-1.2,0.7-2.6,1.3-3.9,1.7c-1.5,0.5-3,0.8-4.5,1c-1.9,0.2-3.8,0.4-5.8,0.4L30.6,31.5z M26.5,30.7
				c2.3,0,3.9,0.1,5,0c1.9,0,3.8-0.1,5.7-0.4c1.5-0.2,3-0.5,4.4-0.9c1.3-0.4,2.6-1,3.8-1.7c1.3-0.6,2.4-1.8,3-3.1
				c0.1-0.3,0.2-0.7,0.2-1V11.8l-4.5,2.4l-5,1.3l-23.6,2.1l6.3,7.7L26.5,30.7z"/>
			<path class="st0" d="M23,29.1L0.4,16L6,12.8h15.3c4.5-0.1,7.4-0.1,8.9-0.2c1.2,0,2.4-0.2,3.5-0.4c0.8-0.2,1.5-0.5,2.2-0.9
				c0.8-0.5,1.2-1,1.1-1.6S36.6,8.5,35.7,8c-1.2-0.6-2.5-1.1-3.8-1.2c-2-0.3-3.9-0.5-5.9-0.5l0.8-5.8c2.4,0.1,4.8,0.3,7.1,0.6
				c1.7,0.3,3.4,0.7,5,1.2c1.7,0.6,3.3,1.3,4.8,2.2c1.7,0.9,3.2,2.2,4.3,3.7c0.8,1.1,1.1,2.6,0.7,3.9c-0.6,1.4-1.7,2.6-3.1,3.3
				c-1.2,0.7-2.5,1.3-3.8,1.7c-1.5,0.4-3,0.8-4.5,1c-1.9,0.2-3.8,0.3-5.7,0.4c-2.2,0-6.5-0.1-13.1-0.3l-0.2,0.1L30,25L23,29.1z"/>
			<path class="st2" d="M48,10.7c-1.1-1.6-2.6-2.8-4.3-3.8c-1.5-0.9-3.2-1.6-4.8-2.2s-3.3-1-5-1.3c-2.4-0.3-4.8-0.5-7.1-0.6
				l-0.4,3.1v2.8C28.1,8.8,30,9,31.8,9.2c1.3,0.2,2.6,0.6,3.8,1.2c1,0.6,1.5,1.1,1.5,1.7s-0.3,1.1-1.1,1.6c-0.7,0.4-1.5,0.7-2.3,0.9
				c-1.2,0.2-2.4,0.4-3.5,0.4c-1.5,0.1-4.5,0.2-8.9,0.2H5.9l-5.6,3.2L23,31.6l7-4l-11.8-6.8l0.2-0.1C25,20.9,29.3,21,31.5,21
				c1.9,0,3.8-0.1,5.7-0.4c1.5-0.2,3-0.5,4.5-1c1.3-0.4,2.6-1,3.8-1.7c1.4-0.7,2.5-1.9,3.1-3.3C49.1,13.2,48.9,11.8,48,10.7z"/>
			<path class="st1" d="M48.4,8c-1.2-1.6-2.7-2.9-4.5-3.9c-1.6-0.9-3.2-1.7-4.9-2.3s-3.4-1-5.1-1.3C31.5,0.2,29.1,0,26.7,0h-0.3
				l-0.9,6.6h0.4c2,0.1,3.9,0.2,5.9,0.5c1.3,0.2,2.5,0.6,3.7,1.2c0.8,0.5,1.3,1,1.3,1.4s-0.3,0.8-1,1.2s-1.4,0.7-2.2,0.8
				c-1.1,0.2-2.3,0.4-3.5,0.4c-1.5,0.1-4.5,0.2-8.9,0.2L5.9,12.4H5.8L0,15.8V29l23,13.3l7.4-4.3V24.8l-10.9-6.3
				c6,0.2,10,0.3,12.1,0.2c1,0,1.9,0,2.8-0.1V31l5.9-0.6l5.6-2.3l2.5-2.4l0.6-2V12.5c0-0.1,0.1-0.2,0.1-0.3
				C49.5,10.8,49.3,9.2,48.4,8z M22.7,32.3v8.9L0.8,28.5V16.6l21.9,12.7C22.7,29.3,22.7,32.3,22.7,32.3z M31.5,18
				c-2.1,0-6.6-0.1-13.1-0.3h-0.1l-0.9,0.5L29.2,25l-0.8,0.4L23,28.6L4.2,17.8l-3-1.8L6,13.2l15.2-0.1c4.4-0.1,7.5-0.1,9-0.2
				c1.2-0.1,2.4-0.2,3.6-0.4c0.8-0.2,1.6-0.5,2.4-0.9c1-0.6,1.4-1.2,1.3-1.9s-0.6-1.4-1.7-2c-1.2-0.7-2.6-1.1-4-1.3
				c-1.8-0.3-3.7-0.5-5.5-0.5L27,0.8c2.3,0.1,4.5,0.2,6.8,0.5c1.7,0.3,3.3,0.7,4.9,1.2c1.7,0.6,3.3,1.3,4.8,2.2
				c1.7,0.9,3.1,2.1,4.2,3.6c0.8,1,1,2.3,0.6,3.6c-0.6,1.4-1.7,2.5-3,3.1c-1.2,0.7-2.5,1.2-3.8,1.7c-1.4,0.4-2.9,0.8-4.4,0.9
				C35.3,17.9,33.4,18,31.5,18z"/>
		</g>
	</g>
</g>
</svg>
