<?xml version="1.0" encoding="utf-8"?>
<!-- Generator: Adobe Illustrator 24.0.2, SVG Export Plug-In . SVG Version: 6.00 Build 0)  -->
<svg version="1.1" id="Слой_1" xmlns="http://www.w3.org/2000/svg" xmlns:xlink="http://www.w3.org/1999/xlink" x="0px" y="0px"
	 viewBox="0 0 61.8 61" style="enable-background:new 0 0 61.8 61;" xml:space="preserve">
<style type="text/css">
	.st0{fill:#F7C800;}
	.st1{fill:#FFFFFF;}
	.st2{fill:#181818;}
</style>
<title>2п</title>
<g id="Слой_2_1_">
	<g id="content">
		<g id="illustration">
			<polygon class="st0" points="18.9,17.5 18.9,19.6 57,41.5 57,39.4 			"/>
			<polygon class="st0" points="57,39.4 18.9,17.5 23.5,14.8 61.6,36.8 			"/>
			<polygon class="st1" points="57,39.4 19.7,17.9 23.5,15.7 60.9,37.3 			"/>
			<path class="st2" d="M61.8,37v-0.3l0,0l-0.3-0.2L23.6,14.6l-0.1-0.1l-4.6,2.6l0,0l-0.3,0.2l0,0v2.4l38.1,21.9l0.3,0.2l0,0
				l0.3-0.2l4.5-2.7C61.8,38.9,61.8,37,61.8,37z M61,36.8l-1.1,0.6L57,39.1l-13.5-7.8l-24-13.9l4-2.3L61,36.8z M19.2,19.4v-1.5
				l37.5,21.7V41L19.2,19.4z"/>
			<polygon class="st0" points="12.7,20.8 12.7,22.9 50.8,44.8 50.8,42.8 			"/>
			<polygon class="st0" points="50.8,42.8 12.7,20.8 17.3,18.2 55.4,40.2 			"/>
			<polygon class="st1" points="50.8,42.8 13.5,21.2 17.3,19 54.7,40.6 			"/>
			<path class="st2" d="M55.6,40.3V40l0,0l-0.3-0.2l-38-21.9l-0.1-0.1l-4.6,2.6l0,0l-0.3,0.2l0,0V23l38.2,22l0.3,0.2l0,0l0.3-0.2
				l4.6-2.6L55.6,40.3L55.6,40.3z M54.8,40.2l-1.1,0.6l-2.9,1.7l-13.5-7.8l-24-13.9l4-2.3L54.8,40.2z M13,22.7v-1.5l37.5,21.7v1.4
				L13,22.7z"/>
			<polygon class="st0" points="6.5,24.4 6.5,26.5 44.6,48.4 44.6,46.4 			"/>
			<polygon class="st0" points="44.6,46.4 6.5,24.4 11.1,21.8 49.1,43.7 			"/>
			<polygon class="st1" points="44.6,46.4 7.3,24.8 11.1,22.6 48.5,44.2 			"/>
			<path class="st2" d="M49.4,43.9v-0.3l0,0l-0.3-0.2l-38-21.9L11,21.4L6.5,24l0,0l-0.3,0.2l0,0v2.4l38.1,21.9l0.3,0.2l0,0l0.3-0.2
				l4.6-2.6L49.4,43.9L49.4,43.9z M48.6,43.7l-1.1,0.6L44.6,46l-13.5-7.8l-24-13.9l4-2.3L48.6,43.7z M6.8,26.3v-1.5l37.5,21.7v1.4
				L6.8,26.3z"/>
			<polygon class="st0" points="0.3,28 0.3,30.1 38.4,52 38.4,50 			"/>
			<polygon class="st0" points="38.4,50 0.3,28 4.8,25.4 42.9,47.3 			"/>
			<polygon class="st1" points="38.4,50 1,28.4 4.8,26.2 42.3,47.8 			"/>
			<path class="st2" d="M43.2,47.5v-0.3l0,0L42.9,47L5,25.1L4.8,25l-4.5,2.7l0,0L0,27.8l0,0v2.4l38.1,21.9l0.3,0.2l0,0l0.3-0.2
				l4.6-2.6L43.2,47.5L43.2,47.5z M42.4,47.3L41.3,48l-2.9,1.7l-13.5-7.8L0.8,28l4-2.3L42.4,47.3z M0.6,29.9v-1.5l37.5,21.7v1.4
				L0.6,29.9z"/>
			<polygon class="st0" points="18.9,10.8 18.9,12.9 57,34.8 57,32.8 			"/>
			<polygon class="st0" points="57,32.8 18.9,10.8 23.5,8.2 61.6,30.2 			"/>
			<polygon class="st1" points="57,32.8 19.7,11.3 23.5,9.1 60.9,30.7 			"/>
			<path class="st2" d="M61.8,30.3V30l0,0l-0.3-0.2L23.6,8l-0.1-0.1L19,10.5l0,0l-0.3,0.2l0,0v2.4l38,21.9l0.3,0.2l0,0l0.3-0.2
				l4.5-2.6V30.3z M61,30.2l-1.1,0.6L57,32.5l-13.5-7.8l-24-13.9l4-2.3L61,30.2z M19.2,12.8v-1.5L56.7,33v1.4L19.2,12.8z"/>
			<polygon class="st0" points="12.7,14.1 12.7,16.3 50.8,38.2 50.8,36.1 			"/>
			<polygon class="st0" points="50.8,36.1 12.7,14.1 17.3,11.5 55.4,33.5 			"/>
			<polygon class="st1" points="50.8,36.1 13.5,14.6 17.3,12.4 54.7,34 			"/>
			<path class="st2" d="M55.6,33.7v-0.3l0,0l-0.3-0.2l-38-21.9l-0.1-0.1l-4.6,2.6l0,0L12.4,14l0,0v2.4l38.1,21.9l0.3,0.2l0,0
				l0.3-0.2l4.6-2.6L55.6,33.7L55.6,33.7z M54.8,33.5l-1.1,0.6l-2.9,1.7L37.3,28l-24-13.9l4-2.3L54.8,33.5z M13,16.1v-1.5l37.5,21.7
				v1.4L13,16.1z"/>
			<polygon class="st0" points="6.5,17.8 6.5,19.9 44.6,41.8 44.6,39.7 			"/>
			<polygon class="st0" points="44.6,39.7 6.5,17.8 11.1,15.1 49.1,37.1 			"/>
			<polygon class="st1" points="44.6,39.7 7.3,18.2 11.1,16 48.5,37.6 			"/>
			<path class="st2" d="M49.4,37.3V37l0,0l-0.3-0.2l-38-22l-0.1,0l-4.5,2.6l0,0l-0.3,0.2l0,0V20l38.1,22l0.3,0.2l0,0l0.3-0.2
				l4.6-2.6L49.4,37.3L49.4,37.3z M48.6,37.1l-1.1,0.6l-2.9,1.7l-13.5-7.8l-24-13.9l4-2.3L48.6,37.1z M6.8,19.7v-1.5l37.5,21.7v1.4
				L6.8,19.7z"/>
			<polygon class="st0" points="0.3,21.4 0.3,23.5 38.4,45.4 38.4,43.3 			"/>
			<polygon class="st0" points="38.4,43.3 0.3,21.4 4.8,18.7 42.9,40.7 			"/>
			<polygon class="st1" points="38.4,43.3 1,21.8 4.8,19.6 42.3,41.2 			"/>
			<path class="st2" d="M43.2,40.9v-0.3l0,0l-0.3-0.2L5,18.5l-0.1-0.1L0.3,21l0,0L0,21.2l0,0v2.4l38.1,21.9l0.3,0.2l0,0l0.3-0.2
				l4.6-2.6L43.2,40.9L43.2,40.9z M42.4,40.7l-1.1,0.6L38.4,43l-13.5-7.8l-24-13.8l4-2.3L42.4,40.7z M0.6,23.3v-1.5l37.5,21.7v1.4
				L0.6,23.3z"/>
			<polygon class="st0" points="28.1,44.1 28.1,39.4 33.8,42.8 33.8,47.4 			"/>
			<path class="st2" d="M37.8,45.1L34.1,43v-0.3L27.8,39v5.3l6.3,3.6v-0.7L37.8,45.1z M33.5,46.9l-5.2-3v-4l5.2,3V46.9z"/>
			<polygon class="st0" points="4.3,30.3 4.3,25.8 10.1,29.2 10.1,33.7 			"/>
			<path class="st2" d="M14.1,31.4l-3.7-2.1V29L4,25.3v5.1l6.3,3.7v-0.7L14.1,31.4z M9.8,33.2l-5.2-3v-3.9l5.2,3V33.2z"/>
			<polygon class="st0" points="15.9,37 15.9,32.5 21.7,35.8 21.7,40.3 			"/>
			<path class="st2" d="M25.6,38L22,35.9v-0.2L15.6,32v5.2l6.4,3.7v-0.7L25.6,38z M21.4,39.8l-5.2-3V33l5.2,3L21.4,39.8z"/>
			<polygon class="st0" points="21.4,26.3 10.8,20.2 10.8,8 21.4,14.1 			"/>
			<polygon class="st0" points="32,8 21.4,14.1 10.8,8 21.4,1.9 			"/>
			<polygon class="st1" points="32,10.1 23.3,15.1 12.8,8.9 21.4,4 			"/>
			<path class="st2" d="M21.4,1.5L10.8,7.6l-0.3,0.2v12.6l10.6,6.1l0,0l0.3,0.2l0.3-0.2l0,0l10.6-6.1V7.8L21.4,1.5z M21.4,2.3
				l10,5.8l-5,2.9l-5,2.9L19.8,13l-8.4-5L21.4,2.3z M11.1,20V8.5l10,5.8v11.5L11.1,20z"/>
			<polygon class="st1" points="54.8,10.3 37.7,0.4 20.5,10.3 20.5,10.3 20.5,30.1 37.7,40 37.7,20.3 			"/>
			<polygon class="st0" points="20.5,30.1 37.7,40 37.7,20.2 20.5,10.3 20.5,10.3 			"/>
			<path class="st2" d="M55.2,10.1L37.7,0L20.2,10.1h-0.1l0,0v0.4l0,0v19.9l17.2,9.9l0,0l0.3,0.2l0.3-0.2l0,0l17-9.8l0.2-0.1V10.5
				l0,0L55.2,10.1z M37.7,0.8l8.1,4.7L29.3,15l-8.1-4.7L37.7,0.8z M37.3,39.5L20.8,30V11l16.5,9.5V39.5z M44.7,15.8l-7,4l-8.1-4.6
				l16.5-9.5l8.1,4.7L44.7,15.8z"/>
			<path class="st2" d="M30.9,20.3l-3.2-1.8c-0.3-0.2-0.7-0.2-1,0c-0.4,0.2-0.6,0.7-0.5,1.1c0,0.9,0.5,1.7,1.2,2.2l3.2,1.8
				c0.2,0.1,0.4,0.2,0.6,0.2s0.3,0,0.4-0.1c0.3-0.3,0.5-0.7,0.5-1.1C32,21.6,31.6,20.8,30.9,20.3z M31.2,23c-0.1,0.1-0.2,0-0.3,0
				l-3.2-1.9c-0.5-0.4-0.8-1-0.8-1.6c0-0.3,0.1-0.5,0.2-0.5s0.2,0,0.3,0.1l0.2,0.1c0.1,0.8,0.5,1.4,1.1,1.9l2.7,1.6
				C31.3,22.8,31.2,23,31.2,23z"/>
			<polygon class="st0" points="17.5,60.6 6.9,54.5 6.9,42.3 17.5,48.4 			"/>
			<polygon class="st0" points="28,42.3 17.5,48.4 6.9,42.3 17.5,36.2 			"/>
			<polygon class="st1" points="28,44.4 19.4,49.4 8.8,43.3 17.5,38.3 			"/>
			<path class="st2" d="M17.5,35.8L6.9,42l-0.3,0.2v12.5l10.6,6.1l0,0l0.3,0.2l0.3-0.2l0,0l10.6-6.1V42.1L17.5,35.8z M17.5,36.6
				l10,5.8l-5,2.9l-5,2.9l-1.6-0.9l-8.4-4.8L17.5,36.6z M7.2,54.3V42.9l10,5.7v11.5L7.2,54.3z"/>
			<path class="st2" d="M14.9,57l-1.6-1c-0.3-0.2-0.5-0.5-0.5-0.9v-1.7c0-0.3,0.2-0.5,0.5-0.3l1.6,0.9c0.3,0.2,0.5,0.5,0.5,0.9v1.7
				C15.4,57,15.2,57.1,14.9,57z"/>
		</g>
	</g>
</g>
</svg>
