<?xml version="1.0" encoding="utf-8"?>
<!-- Generator: Adobe Illustrator 24.0.2, SVG Export Plug-In . SVG Version: 6.00 Build 0)  -->
<svg version="1.1" id="Слой_1" xmlns="http://www.w3.org/2000/svg" xmlns:xlink="http://www.w3.org/1999/xlink" x="0px" y="0px"
	 viewBox="0 0 34.2 52.6" style="enable-background:new 0 0 34.2 52.6;" xml:space="preserve">
<style type="text/css">
	.st0{fill:#F7C800;}
	.st1{fill:#181818;}
	.st2{fill:#FFFFFF;}
</style>
<title>3</title>
<g id="Слой_2_1_">
	<g id="content">
		<g id="_3">
			<polygon class="st0" points="31.8,24.3 25.2,20.1 21.8,26 30.3,29.3 			"/>
			<path class="st1" d="M30.5,29.8l-9.3-3.5l3.9-6.7l7.1,4.6L30.5,29.8z M22.3,25.9l7.8,3l1.3-4.4l-6-3.8L22.3,25.9z"/>
			<path class="st0" d="M6.2,48.3l17.8-7l4.7-10.4l-5.5-2.3l-8.7-1.3c0.1,0.4,0.1,0.7,0.1,1.1c0,1.4-0.5,2.7-1.3,3.7
				c-1.2,1.4-2.6,2.6-4.3,3.4c-1.3,0.7-2.7,1.3-4.1,1.8C3.4,37.8,2,38,0.5,38l4.1,7.6L6.2,48.3z"/>
			<path class="st1" d="M6.1,48.8l-1.9-3L0,38v-0.4h0.5c1.5,0,2.9-0.2,4.3-0.6c1.4-0.4,2.8-1,4.1-1.7c1.6-0.8,3-2,4.2-3.3
				c0.8-1,1.3-2.2,1.3-3.5c0-0.3,0-0.7-0.1-1L14,26.9l9.3,1.4l6,2.4l-5,10.9L6.1,48.8z M1.1,38.4l3.8,7l1.5,2.4L23.7,41l4.5-9.9
				L23,29l-8.1-1.2c0,0.2,0,0.4,0,0.7c0,1.5-0.5,2.9-1.4,4c-1.2,1.4-2.7,2.6-4.4,3.5c-1.3,0.7-2.7,1.3-4.1,1.8
				C3.7,38.1,2.4,38.3,1.1,38.4z"/>
			<polygon class="st0" points="10.3,43.7 0.4,38 0.4,46.5 10.3,52.2 			"/>
			<polygon class="st0" points="5.5,21.8 15.4,27.5 15.4,35.2 5.5,29.5 			"/>
			<path class="st0" d="M30.7,6.4L21,0.9l0,0c-0.3-0.2-0.6-0.3-0.9-0.4c-1.9-0.4-4.6,0.3-8,2.3C9.9,4.1,7.8,5.6,5.8,7.3
				c-2,1.8-3.8,3.9-5.4,6.1l9.7,5.6l11-6.6l2.4-1.5L30.7,6.4z"/>
			<path class="st1" d="M10.2,19.4L0,13.3l0.2-0.2C1.7,10.9,3.6,8.9,5.6,7c2-1.7,4.1-3.2,6.3-4.5c3.5-2,6.2-2.8,8.3-2.3
				c0.3,0.1,0.6,0.2,0.8,0.3l0,0l0.2,0.1l10.2,5.9l-10.1,6.3L10.2,19.4z M1,13.2l9.2,5.3l13.2-7.9L30,6.4l-9.1-5.2
				C20.6,1,20.3,0.9,20,0.9c-1.8-0.4-4.4,0.3-7.8,2.3C10,4.4,8,5.9,6.1,7.6S2.5,11.2,1,13.2z"/>
			<path class="st0" d="M5.5,21.8l9.5-5.4l12.2-2v3.1l-5.4,9c0,0-4.1,2.5-4.2,2.4s-2.2-1.4-2.2-1.4L5.5,21.8z"/>
			<path class="st1" d="M17.5,29.3c-0.1,0-0.2-0.1-0.3-0.2s-1.1-0.7-2.1-1.3L5.2,22v-0.4L15,16l12.6-2v3.6L22,26.8
				C18.8,28.7,17.9,29.3,17.5,29.3z M6.3,21.8l9.3,5.3c1.3,0.8,1.8,1.1,2.1,1.3c0.5-0.3,2.3-1.3,3.9-2.3l5.3-8.8v-2.5l-11.7,1.9
				L6.3,21.8z"/>
			<polygon class="st0" points="0.5,13.4 10.3,19 14,23.7 4.2,18.1 			"/>
			<path class="st2" d="M16.6,14.6c1.7-1.5,3.6-2.8,5.7-3.8c3.4-2,6.1-2.8,8-2.3c0.3,0.1,0.5,0.1,0.8,0.3l0,0l-9.6-5.6l0,0
				c-0.3-0.2-0.6-0.3-1-0.3c-1.9-0.4-4-0.3-7.4,1.6C10.8,5.8,8.7,7.3,6.8,9c-2,1.8-3.8,3.9-5.3,6.1l9.7,5.6l0.3-0.2
				C13,18.4,14.7,16.4,16.6,14.6z"/>
			<path class="st2" d="M1.7,41c2-0.5,4-1.1,6-1.8c1.7-0.6,3.3-1.6,4.7-2.7l8.4,5.1L10.2,46L1.7,41z"/>
			<path class="st1" d="M32.2,24.1c-1.2-0.8-3-0.8-5.3,0c1.8-1.7,3.2-3.7,4.4-5.9c1.2-2.3,1.9-4.8,1.9-7.3c0-2.9-1.1-4.7-3.2-5.1
				s-4.8,0.3-8.3,2.3c-2.3,1.3-4.4,2.8-6.3,4.6s-3.7,3.7-5.2,5.9l-9.8-5.7L0,13.3l3.9,5l10.2,5.9l0.4-0.5c1.7-2.3,3.8-4.3,6.2-5.9
				c0.7-0.5,1.6-0.8,2.4-0.8c0.2,0,0.7,0.1,0.7,1.3c0,2.5-2.2,5.1-6.6,7.6L15.4,27l-9.8-5.6l-0.4,0.2v8.1l10.2,5.9l2.2-1.3
				c1.3-0.8,2.6-1.4,4-1.9c0.6-0.3,1.3-0.3,1.9-0.1c0.4,0.2,0.5,0.8,0.5,1.7c0,1.3-0.5,2.5-1.3,3.5c-1.2,1.4-2.6,2.5-4.2,3.3
				c-1.3,0.7-2.6,1.3-4.1,1.7c-1.4,0.4-2.8,0.6-4.2,0.6l-9.8-5.6H0v9.1l10.1,5.8l0.5-0.1c1.6-0.2,3.1-0.6,4.6-1.2
				c1.7-0.7,3.4-1.5,5-2.4c4-2.2,7.5-5.3,10.2-9c2.3-3.1,3.6-6.8,3.7-10.7C34.2,26.7,33.5,25,32.2,24.1z M15,34.5l-9.1-5.2v-6.9
				l9.1,5.2V34.5z M9.9,51.5l-9.1-5.2v-7.7l9.1,5.2V51.5z M4.4,17.8l-2.5-3.2l8.1,4.7l2,2.6l0.4,0.5L4.4,17.8z"/>
		</g>
	</g>
</g>
</svg>
