<?xml version="1.0" encoding="utf-8"?>
<!-- Generator: Adobe Illustrator 24.0.2, SVG Export Plug-In . SVG Version: 6.00 Build 0)  -->
<svg version="1.1" id="Слой_1" xmlns="http://www.w3.org/2000/svg" xmlns:xlink="http://www.w3.org/1999/xlink" x="0px" y="0px"
	 viewBox="0 0 60 63.5" style="enable-background:new 0 0 60 63.5;" xml:space="preserve">
<style type="text/css">
	.st0{fill:#F7C800;}
	.st1{fill:#FFFFFF;}
	.st2{fill:#16110D;}
	.st3{fill:#18130F;}
</style>
<title>3п</title>
<g id="Слой_2_1_">
	<g id="content">
		<g id="illustration">
			<path class="st0" d="M39.2,12.4L27.9,19l0,0l-11.3-6.6l0,0l11.3-6.5l0,0L39.2,12.4L39.2,12.4z"/>
			<path class="st1" d="M39.2,15.2l-11.3,6.5l0,0l-11.3-6.5l0,0l11.3-6.5l0,0L39.2,15.2L39.2,15.2z"/>
			<path class="st2" d="M27.9,19.6l-0.3-0.2l-11.5-6.7v-0.6l0.3-0.1L28,5.4l0.3,0.1l11.6,6.7v0.6l-0.3,0.1L27.9,19.6z M17.5,12.4
				l10.3,6l10.3-6l-10.3-6L17.5,12.4z"/>
			<path class="st0" d="M16.5,12.4v23.4l0,0l11.3,6.5l0,0V19l0,0L16.5,12.4L16.5,12.4z"/>
			<path class="st2" d="M27.9,43l-0.3-0.1L16,36.1v-24l0.5-0.3l0.3,0.1l11.6,6.7v24L27.9,43z M17,35.6l10.3,6V19.3l-10.3-6V35.6z"/>
			<path class="st2" d="M39.2,12.4v23.4l0,0l-11.3,6.5l0,0V19l0,0L39.2,12.4L39.2,12.4z"/>
			<path class="st2" d="M27.9,43l-0.5-0.3v-24l0.2-0.1l11.6-6.7l0.5,0.3v24l-0.2,0.2L27.9,43z M28.4,19.3v22.2l10.3-6V13.3
				L28.4,19.3z"/>
			
				<rect x="21.3" y="11.9" transform="matrix(0.8659 -0.5003 0.5003 0.8659 -2.4765 15.5927)" class="st2" width="13.1" height="1"/>
			<rect x="28.5" y="21.8" transform="matrix(0.8663 -0.4995 0.4995 0.8663 -6.8106 18.9653)" class="st0" width="7" height="0.8"/>
			<polygon class="st0" points="36.7,19.9 36.3,19.2 37.8,18.4 38.1,19 			"/>
			<path class="st0" d="M23.1,32.6l-11.3,6.5l0,0L0.5,32.6l0,0l11.3-6.5l0,0L23.1,32.6L23.1,32.6z"/>
			<path class="st1" d="M23.1,35.5L11.8,42l0,0L0.5,35.5l0,0L11.8,29l0,0L23.1,35.5L23.1,35.5z"/>
			<path class="st2" d="M11.8,39.8l-0.3-0.2L0,32.9v-0.6l0.2-0.2l11.6-6.7l0.3,0.1l11.6,6.7v0.6L23.4,33L11.8,39.8z M1.5,32.6
				l10.3,6l10.3-6l-10.3-6L1.5,32.6z"/>
			<path class="st0" d="M0.5,32.7V45l0,0l11.3,6.5l0,0V39.2l0,0L0.5,32.7L0.5,32.7z"/>
			<path class="st2" d="M11.8,52.2L11.6,52L0,45.3v-13L0.5,32l0.3,0.2l11.5,6.7v13L11.8,52.2z M1,44.8l10.3,6V39.5L1,33.5V44.8z"/>
			<path class="st2" d="M23.2,32.7V45l0,0l-11.3,6.6l0,0V39.2l0,0L23.2,32.7z"/>
			<path class="st2" d="M11.8,52.2l-0.5-0.3v-13l0.3-0.2L23.1,32l0.5,0.3v13l-0.2,0.2L11.8,52.2z M12.3,39.5v11.3l10.3-6V33.5
				L12.3,39.5z"/>
			
				<rect x="5.3" y="32.1" transform="matrix(0.8659 -0.5003 0.5003 0.8659 -14.7198 10.2907)" class="st2" width="13.1" height="1"/>
			<path class="st0" d="M14.1,44.8v-4.7l4.1-2.3v4.7L14.1,44.8z M14.8,40.5v3l2.6-1.5v-3L14.8,40.5z"/>
			<path class="st0" d="M53.9,33.1L34.3,44.4l0,0L23,37.9l0,0l19.6-11.3l0,0L53.9,33.1L53.9,33.1z"/>
			<path class="st1" d="M53.9,35.9L34.3,47.2l0,0L23,40.7l0,0l19.6-11.3l0,0L53.9,35.9L53.9,35.9z"/>
			<path class="st2" d="M34.3,45L34,44.8l-11.5-6.7v-0.6l0.3-0.2L42.6,26l0.2,0.1l11.6,6.7v0.6l-0.3,0.2L34.3,45z M23.9,37.9l10.3,6
				l18.7-10.8l-10.3-6L23.9,37.9z"/>
			<path class="st0" d="M22.9,37.9v12.4l0,0l11.3,6.5l0,0V44.4l0,0L22.9,37.9C23,37.9,22.9,37.9,22.9,37.9z"/>
			<path class="st2" d="M34.3,57.4L34,57.3l-11.5-6.7v-13l0.5-0.3l0.3,0.2l11.6,6.7v13L34.3,57.4z M23.4,50l10.3,6V44.7l-10.3-6
				C23.4,38.7,23.4,50,23.4,50z"/>
			<path class="st2" d="M53.9,33.1v12.4l0,0L34.3,56.8l0,0V44.4l0,0L53.9,33.1L53.9,33.1z"/>
			<path class="st2" d="M34.3,57.4l-0.5-0.3v-13L34,44l19.9-11.5l0.5,0.3v13L54.2,46L34.3,57.4z M34.8,44.7V56l18.7-10.8V34
				L34.8,44.7z"/>
			<rect x="27.1" y="35" transform="matrix(0.8672 -0.498 0.498 0.8672 -12.5688 23.87)" class="st2" width="22.7" height="1"/>
			<polygon class="st0" points="42,44.2 41.6,43.5 53,36.9 53.4,37.6 			"/>
			
				<rect x="38.7" y="44.6" transform="matrix(0.8663 -0.4995 0.4995 0.8663 -17.1763 25.7785)" class="st0" width="1.7" height="0.8"/>
			<path class="st0" d="M57.2,38.4c-0.5-1.9-0.8-3.8-0.9-5.7c0-0.2-0.1-0.3-0.3-0.3h-3c0,2.1-0.3,4.1-0.9,6.1
				c-0.2,0.8-0.6,1.6-1.1,2.4c-0.8,1.2-1.3,2.7-1.2,4.2v15.3l0,0c0,1,1,2.1,3,2.6c1.2,0.3,2.5,0.3,3.8,0c2-0.5,3-1.6,3-2.6V44.9
				c0-1.5-0.4-2.9-1.2-4.2C57.8,40,57.4,39.2,57.2,38.4z"/>
			<path class="st1" d="M58.4,40.7c-0.5-0.7-0.9-1.5-1.2-2.4c-0.5-1.9-0.8-3.8-0.9-5.7c0-0.1,0-0.2-0.1-0.2H55
				c0,2.1-0.3,4.1-0.9,6.1c-0.3,0.9-0.7,1.6-1.2,2.4c-0.8,1.2-1.2,2.7-1.2,4.2V48c0.2,0.1,0.5,0.2,0.7,0.3c1.4,0.4,2.9,0.4,4.3,0
				c1.8-0.5,2.8-1.5,2.8-2.5v8.8c0,1-0.9,2-2.8,2.6c-1.4,0.4-2.9,0.4-4.3,0c-0.3-0.1-0.5-0.2-0.7-0.3v3.7c0,1,1,2.1,3,2.6
				c0.2,0,0.3,0.1,0.5,0.1c0.4,0,0.8-0.1,1.2-0.2c2-0.5,3-1.6,3-2.6V44.9C59.6,43.4,59.2,41.9,58.4,40.7z"/>
			<path class="st3" d="M54.7,63.5c-0.7,0-1.3-0.1-2-0.3c-2.1-0.5-3.3-1.7-3.3-3V44.9c0-1.6,0.4-3.1,1.3-4.4
				c0.5-0.7,0.9-1.4,1.1-2.2c0.5-2,0.8-4,0.9-6v-0.4H56c0.4,0,0.7,0.3,0.8,0.7c0,1.9,0.3,3.8,0.8,5.7l0,0c0.2,0.8,0.6,1.6,1.1,2.2
				c0.9,1.3,1.3,2.9,1.3,4.4v15.3c0,1.3-1.2,2.5-3.3,3C56,63.4,55.4,63.5,54.7,63.5z M53.4,32.7c-0.1,2-0.4,3.9-0.9,5.8
				c-0.3,0.9-0.7,1.8-1.2,2.5c-0.8,1.2-1.2,2.5-1.1,3.9v15.3c0,1,1,1.8,2.7,2.3c1.2,0.3,2.4,0.3,3.5,0c1.7-0.4,2.7-1.3,2.7-2.3V44.9
				c0-1.4-0.4-2.7-1.2-3.9c-0.5-0.8-1-1.6-1.2-2.5c-0.5-1.9-0.8-3.9-0.9-5.8h-1.2H53.4z"/>
			<path class="st0" d="M56.8,49.9c-1.4,0.4-2.9,0.4-4.3,0c-1.8-0.5-2.8-1.6-2.8-2.6v8.8c0,1,0.9,2,2.8,2.5c1.4,0.4,2.9,0.4,4.3,0
				c1.8-0.5,2.8-1.5,2.8-2.5v-8.8C59.6,48.3,58.7,49.3,56.8,49.9z"/>
			<path class="st2" d="M56.8,49.9c-0.5,0.1-1,0.2-1.5,0.3v7c-0.1,0.7-0.5,1.4-1.1,1.8c0.9,0.1,1.7,0,2.6-0.3
				c1.8-0.5,2.8-1.5,2.8-2.6v-8.8C59.6,48.3,58.7,49.3,56.8,49.9z"/>
			<path class="st3" d="M54.7,59.3c-0.8,0-1.5-0.1-2.3-0.3c-1.9-0.6-3-1.7-3-2.9v-8.8h0.8c0,0.9,1,1.7,2.5,2.2
				c1.3,0.4,2.7,0.4,4.1,0c1.5-0.5,2.5-1.3,2.5-2.2H60v8.8c0,1.3-1.1,2.4-3,2.9C56.2,59.2,55.5,59.4,54.7,59.3z M50.2,49v7
				c0,0.9,1,1.7,2.5,2.2c1.3,0.4,2.7,0.4,4.1,0c1.5-0.5,2.5-1.3,2.5-2.2v-7c-0.6,0.6-1.4,1-2.2,1.2l0,0c-1.5,0.4-3,0.4-4.5,0
				C51.6,50,50.8,49.6,50.2,49z"/>
			<path class="st0" d="M55.8,27.9c0.4,0.1,0.6,0.5,0.4,0.9c-0.1,0.2-0.2,0.4-0.4,0.4c-0.7,0.4-1.6,0.4-2.3,0
				c-0.4-0.1-0.6-0.5-0.4-0.9c0.1-0.2,0.2-0.4,0.4-0.4C54.2,27.5,55.1,27.5,55.8,27.9z"/>
			<path class="st1" d="M55.8,28.6c0.4,0.1,0.6,0.5,0.4,0.9c-0.1,0.2-0.2,0.4-0.4,0.4c-0.7,0.4-1.6,0.4-2.3,0
				c-0.4-0.1-0.6-0.5-0.4-0.9c0.1-0.2,0.2-0.4,0.4-0.4C54.2,28.3,55.1,28.3,55.8,28.6z"/>
			<path class="st3" d="M54.7,29.9c-0.5,0-0.9-0.1-1.4-0.3c-0.6-0.3-0.8-0.9-0.5-1.5c0.1-0.2,0.3-0.4,0.5-0.5c0.9-0.4,1.9-0.4,2.7,0
				c0.6,0.3,0.8,0.9,0.5,1.5c-0.1,0.2-0.3,0.4-0.5,0.5C55.6,29.8,55.2,29.9,54.7,29.9z M54.7,28c-0.3,0-0.7,0.1-1,0.2
				c-0.2,0.1-0.3,0.2-0.3,0.3s0.1,0.2,0.3,0.3c0.6,0.3,1.3,0.3,1.9,0c0.2-0.1,0.3-0.2,0.3-0.3s-0.1-0.2-0.3-0.3
				C55.3,28.1,55,28,54.7,28L54.7,28z"/>
			<path class="st0" d="M55.8,29.2c-0.7,0.4-1.6,0.4-2.3,0c-0.3-0.1-0.5-0.4-0.5-0.7v3.7c0,0.3,0.2,0.5,0.5,0.7
				c0.7,0.4,1.6,0.4,2.3,0c0.3-0.1,0.5-0.4,0.5-0.7v-3.7C56.3,28.9,56.1,29.1,55.8,29.2z"/>
			<path class="st2" d="M55.8,29.2c-0.2,0.1-0.5,0.2-0.8,0.2v2.8c0,0.3-0.2,0.5-0.5,0.7c-0.2,0.1-0.4,0.2-0.5,0.2
				c0.6,0.1,1.2,0.1,1.8-0.2c0.3-0.1,0.5-0.4,0.5-0.7v-3.7C56.3,28.9,56.1,29.1,55.8,29.2z"/>
			<path class="st3" d="M54.7,33.6c-0.5,0-0.9-0.1-1.4-0.3c-0.4-0.2-0.6-0.6-0.7-1v-3.7h0.8c0,0.1,0.1,0.2,0.3,0.3
				c0.6,0.3,1.3,0.3,1.9,0l0,0c0.2-0.1,0.3-0.2,0.3-0.3h0.8v3.7c0,0.4-0.3,0.8-0.7,1C55.6,33.5,55.2,33.6,54.7,33.6z M53.4,29.6v2.7
				c0,0.1,0.1,0.2,0.3,0.3c0.6,0.3,1.3,0.3,1.9,0c0.2-0.1,0.3-0.2,0.3-0.3v-2.6C55.1,30,54.2,30,53.4,29.6L53.4,29.6z"/>
			<path class="st0" d="M53.6,40.4C55,41.1,53,42,53,43.8c0,1.6-1.9,1.7-1.9,0.2S52.4,39.8,53.6,40.4z"/>
			<path class="st0" d="M54.4,41.5c1.4,0.7-0.5,1.5-0.5,3.3c0,1.6-1.9,1.7-1.9,0.2S53.2,40.9,54.4,41.5z"/>
			<path class="st3" d="M52,45.4c-0.2,0-0.4-0.1-0.6-0.2C51,45,50.7,44.5,50.8,44c0.1-1.5,0.7-2.8,1.8-3.8c0.3-0.2,0.8-0.3,1.2-0.1
				l0,0c0.3,0.1,0.6,0.4,0.7,0.7c0,0.5-0.1,0.9-0.4,1.3c-0.4,0.5-0.6,1.1-0.6,1.7c0,0.6-0.3,1.1-0.8,1.5
				C52.4,45.4,52.2,45.4,52,45.4z M53.2,40.7c-0.1,0-0.2,0-0.3,0.1c-0.9,0.8-1.4,2-1.4,3.2c0,0.2,0.1,0.4,0.2,0.6
				c0.1,0.1,0.3,0.1,0.5,0c0.3-0.2,0.4-0.5,0.4-0.8c0-0.8,0.3-1.5,0.7-2.1c0.2-0.3,0.3-0.6,0.3-0.7s-0.1-0.1-0.3-0.2l0,0
				C53.4,40.8,53.3,40.8,53.2,40.7L53.2,40.7z"/>
			<path class="st0" d="M44.1,11.1c-0.5-1.9-0.8-3.8-0.9-5.7c0-0.2-0.2-0.3-0.3-0.3l0,0H40c0,2.1-0.3,4.1-0.9,6.1
				c-0.2,0.8-0.6,1.6-1.2,2.4c-0.8,1.2-1.3,2.7-1.2,4.2V33l0,0c0,1,1,2.1,3,2.6c1.2,0.3,2.5,0.3,3.8,0c2-0.5,3-1.6,3-2.6V17.7
				c0-1.5-0.4-2.9-1.2-4.1C44.8,12.8,44.4,12,44.1,11.1z"/>
			<path class="st1" d="M45.3,13.5c-0.5-0.7-0.9-1.5-1.2-2.4c-0.5-1.9-0.8-3.8-0.9-5.7c0-0.1,0-0.2-0.1-0.2H42
				c0,2.1-0.3,4.1-0.9,6.1c-0.2,0.8-0.6,1.6-1.1,2.4c-0.8,1.2-1.2,2.7-1.2,4.1v2.9c0.2,0.1,0.5,0.2,0.7,0.3c1.4,0.4,2.9,0.4,4.3,0
				c1.8-0.5,2.8-1.5,2.8-2.5v8.8c0,1-0.9,2-2.8,2.6c-1.4,0.4-2.9,0.4-4.3,0c-0.3-0.1-0.5-0.2-0.7-0.3V33c0,1,1,2.1,3,2.6
				c0.2,0,0.3,0.1,0.5,0.1c0.4,0,0.8-0.1,1.2-0.2c2-0.5,3-1.6,3-2.6V17.6C46.5,16.2,46.1,14.7,45.3,13.5z"/>
			<path class="st3" d="M41.6,36.2c-0.7,0-1.3-0.1-2-0.3c-2.1-0.5-3.3-1.7-3.3-3V17.7c0-1.6,0.4-3.1,1.3-4.4
				c0.5-0.7,0.9-1.4,1.1-2.2c0.6-2,0.8-4,0.9-6V4.6h3.3c0.4,0,0.7,0.3,0.7,0.7c0.1,1.9,0.3,3.8,0.9,5.6l0,0c0.2,0.8,0.6,1.6,1.1,2.2
				c0.9,1.3,1.3,2.8,1.3,4.4V33c0,1.3-1.2,2.5-3.3,3C42.9,36.2,42.3,36.2,41.6,36.2z M40.4,5.5c-0.1,2-0.4,3.9-0.9,5.8
				c-0.3,0.9-0.7,1.7-1.2,2.5c-0.8,1.2-1.2,2.5-1.1,3.9V33c0,1,1,1.8,2.7,2.3c1.2,0.3,2.4,0.3,3.6,0c1.7-0.4,2.7-1.3,2.7-2.3V17.7
				c0-1.4-0.4-2.8-1.1-3.9c-0.5-0.8-1-1.6-1.2-2.5c-0.5-1.9-0.8-3.9-0.9-5.8h-1.3L40.4,5.5z"/>
			<path class="st0" d="M43.8,22.6c-1.4,0.4-2.9,0.4-4.3,0c-1.8-0.5-2.8-1.6-2.8-2.6v8.8c0,1,0.9,2,2.8,2.5c1.4,0.4,2.9,0.4,4.3,0
				c1.8-0.5,2.8-1.5,2.8-2.5V20C46.5,21.1,45.6,22.1,43.8,22.6z"/>
			<path class="st2" d="M43.8,22.6c-0.5,0.1-1,0.2-1.5,0.3v7c-0.1,0.7-0.5,1.4-1.1,1.8c0.9,0.1,1.7,0,2.6-0.3
				c1.8-0.5,2.8-1.5,2.8-2.6V20C46.5,21.1,45.6,22.1,43.8,22.6z"/>
			<path class="st3" d="M41.6,32.1c-0.8,0-1.5-0.1-2.3-0.3c-1.9-0.6-3-1.7-3-2.9v-8.8h0.8c0,0.9,1,1.7,2.5,2.2
				c1.3,0.4,2.7,0.4,4.1,0c1.5-0.5,2.5-1.3,2.5-2.2H47v8.8c0,1.3-1.1,2.4-3,2.9C43.2,32,42.4,32.1,41.6,32.1z M37.1,21.8v7.1
				c0,0.9,1,1.7,2.5,2.2c1.3,0.4,2.7,0.4,4.1,0c1.5-0.5,2.5-1.3,2.5-2.2v-7c-0.7,0.5-1.4,0.9-2.3,1.1l0,0c-1.5,0.4-3,0.4-4.5,0
				C38.5,22.8,37.8,22.4,37.1,21.8z"/>
			<path class="st0" d="M42.8,0.7c0.4,0.1,0.6,0.5,0.4,0.9C43.1,1.8,43,1.9,42.8,2c-0.7,0.4-1.6,0.4-2.3,0c-0.4-0.1-0.6-0.5-0.4-0.9
				c0.1-0.2,0.2-0.4,0.4-0.4C41.2,0.3,42.1,0.3,42.8,0.7z"/>
			<path class="st1" d="M42.8,1.4c0.4,0.1,0.6,0.5,0.4,0.9c-0.1,0.2-0.2,0.4-0.4,0.4c-0.7,0.4-1.6,0.4-2.3,0
				c-0.4-0.1-0.6-0.5-0.4-0.9c0.1-0.2,0.2-0.4,0.4-0.4C41.2,1,42.1,1,42.8,1.4z"/>
			<path class="st3" d="M41.6,2.7c-0.5,0-0.9-0.1-1.4-0.3c-0.4-0.2-0.6-0.6-0.7-1c0-0.4,0.3-0.8,0.7-1c0.9-0.5,1.9-0.5,2.7,0
				c0.4,0.2,0.6,0.6,0.7,1c0,0.4-0.3,0.8-0.7,1C42.6,2.6,42.1,2.7,41.6,2.7z M41.6,0.8c-0.3,0-0.7,0.1-1,0.2
				c-0.2,0.1-0.3,0.2-0.3,0.3s0.1,0.2,0.3,0.3c0.6,0.3,1.3,0.3,1.9,0c0.2-0.1,0.3-0.2,0.3-0.3S42.7,1.1,42.5,1S41.9,0.8,41.6,0.8z"
				/>
			<path class="st0" d="M42.8,2c-0.7,0.4-1.6,0.4-2.3,0C40.2,1.9,40,1.6,40,1.3V5c0,0.3,0.2,0.5,0.5,0.7c0.7,0.4,1.6,0.4,2.3,0
				c0.3-0.1,0.5-0.4,0.5-0.7V1.3C43.2,1.6,43.1,1.9,42.8,2z"/>
			<path class="st2" d="M42.8,2c-0.2,0.1-0.5,0.2-0.8,0.2V5c0,0.3-0.2,0.6-0.5,0.7c-0.2,0.1-0.3,0.2-0.5,0.2C41.6,6,42.2,6,42.8,5.7
				c0.3-0.1,0.5-0.4,0.5-0.7V1.3C43.2,1.6,43,1.9,42.8,2z"/>
			<path class="st3" d="M41.6,6.4c-0.5,0-0.9-0.1-1.4-0.3c-0.4-0.2-0.6-0.6-0.7-1V1.3h0.8c0,0.1,0.1,0.2,0.3,0.3
				C41.3,2,42,2,42.6,1.7l0,0c0.2-0.1,0.3-0.2,0.3-0.3h0.8v3.7c0,0.4-0.3,0.8-0.7,1C42.6,6.3,42.1,6.4,41.6,6.4z M40.4,2.4v2.7
				c0,0.1,0.1,0.2,0.3,0.3c0.6,0.3,1.3,0.3,1.9,0c0.2-0.1,0.3-0.2,0.3-0.3V2.4C42.1,2.8,41.2,2.8,40.4,2.4L40.4,2.4z"/>
			<path class="st0" d="M40.5,13.2c1.4,0.7-0.5,1.5-0.5,3.4c0,1.6-1.9,1.7-1.9,0.2S39.4,12.6,40.5,13.2z"/>
			<path class="st0" d="M41.3,14.3c1.4,0.7-0.5,1.5-0.5,3.4c0,1.6-1.9,1.7-1.9,0.2S40.2,13.7,41.3,14.3z"/>
			<path class="st3" d="M39,18.2c-0.2,0-0.4-0.1-0.6-0.2c-0.4-0.3-0.7-0.8-0.6-1.3c0-1.3,0.8-3.2,1.8-3.8c0.3-0.2,0.8-0.3,1.2-0.1
				l0,0c0.3,0.1,0.6,0.4,0.7,0.7c0,0.5-0.1,0.9-0.4,1.3c-0.4,0.5-0.6,1.1-0.6,1.7c0,0.6-0.3,1.1-0.8,1.5
				C39.4,18.1,39.2,18.2,39,18.2z M40.2,13.5c-0.1,0-0.2,0-0.3,0.1c-0.9,0.8-1.4,2-1.4,3.2c0,0.2,0.1,0.4,0.2,0.6
				c0.1,0.1,0.3,0.1,0.5,0c0.3-0.2,0.4-0.5,0.4-0.8c0-0.8,0.3-1.5,0.7-2.1c0.2-0.3,0.3-0.6,0.3-0.7s-0.1-0.1-0.3-0.2l0,0
				C40.3,13.5,40.3,13.5,40.2,13.5L40.2,13.5z"/>
		</g>
	</g>
</g>
</svg>
