<?xml version="1.0" encoding="utf-8"?>
<!-- Generator: Adobe Illustrator 24.0.2, SVG Export Plug-In . SVG Version: 6.00 Build 0)  -->
<svg version="1.1" id="Слой_1" xmlns="http://www.w3.org/2000/svg" xmlns:xlink="http://www.w3.org/1999/xlink" x="0px" y="0px"
	 viewBox="0 0 40.6 40.8" style="enable-background:new 0 0 40.6 40.8;" xml:space="preserve">
<style type="text/css">
	.st0{fill:#F7C800;}
	.st1{fill:#FFFFFF;}
	.st2{fill:#16110D;}
</style>
<title>4</title>
<g id="Слой_2_1_">
	<g id="content">
		<g id="_4">
			<polygon class="st0" points="0.4,17.8 0.4,5 6.5,23.9 6.5,36.7 			"/>
			<polygon class="st0" points="12.8,27.6 12.8,40.3 6.5,36.7 6.5,23.9 			"/>
			<polygon class="st0" points="31.8,23.8 31.8,36.5 25.6,33 25.6,20.2 			"/>
			<polygon class="st0" points="10.7,10.2 21.5,16.6 13.1,21.6 9.7,11.1 			"/>
			<path class="st0" d="M37.6,13.3l-3.5,2l6.2,3.6l-8.5,4.9l-6.2-3.6l-12.7,7.4L6.6,24L0.4,5l8-4.6l19.3,11.1l3.5-2L37.6,13.3z
				 M19.1,16.5l-3.7-2.1c-0.7-0.4-1.6-1-2.8-1.7s-1.7-1.1-1.7-1.1l-0.2,0.1c0.6,0.9,1.1,1.8,1.5,2.8l1.7,5.1L19.1,16.5z"/>
			<path class="st1" d="M37.6,16l-3.5,2l6.2,3.6l-8.5,4.9L25.6,23l-12.7,7.4l-6.3-3.7L0.4,7.8l8-4.6l19.3,11.1l3.5-2L37.6,16z
				 M19.1,19.3l-3.7-2.1c-0.7-0.4-1.6-1-2.8-1.7s-1.7-1.1-1.8-1.1l-0.2,0.1c0.6,0.9,1.1,1.8,1.5,2.8l1.7,5.1L19.1,19.3z"/>
			<path class="st2" d="M12.9,12.4c-1.2-0.8-1.6-1-1.6-1.1L11.1,11l-0.9,0.5l0.2,0.3c0.6,0.8,1.1,1.7,1.4,2.7l1.9,5.5l6.2-3.6
				L15.6,14C14.9,13.6,14,13.1,12.9,12.4z M14.1,19l-1.6-4.7c-0.3-0.6-0.6-1.3-0.9-1.9l0.9,0.6c1.1,0.7,2.1,1.3,2.8,1.7l3.1,1.8
				L14.1,19z"/>
			<path class="st2" d="M38,17.1V13l-6.8-3.9l-3.5,2L8.4,0L0,4.8v13l6.2,19.1l6.6,3.8l12.7-7.3l6.2,3.6l8.9-5.1V18.6L38,17.1z
				 M6.1,26.2v8.1L0.8,17.7V7.4l2.9,9L6.1,24V26.2z M12.5,30.8v8.9l-5.6-3.2V24.6L8,25.2l4.5,2.6V30.8z M31.4,27v8.9L26,32.8V20.9
				l5.4,3.1V27z M25.6,19.8l-12.7,7.3L8,24.3l-1.2-0.7l-6-18.4l7.5-4.3l19.1,11l0.2,0.1l3.5-2l5.7,3.3l-3.5,2l6.2,3.6l-0.8,0.5
				l-6.9,4L25.6,19.8z"/>
		</g>
	</g>
</g>
</svg>
