<svg xmlns="http://www.w3.org/2000/svg" viewBox="0 0 596.3 179.46"><defs><style>.cls-1{opacity:0.5;}.cls-2{fill:none;stroke:#000;stroke-linecap:round;stroke-linejoin:round;stroke-width:2px;}</style></defs><title>line-sheme</title><g id="Слой_2" data-name="Слой 2"><g id="Слой_1-2" data-name="Слой 1"><g class="cls-1"><path class="cls-2" d="M518.46,61.15c-2.66,2-5.36,3.93-8,6-1.57,1.23-3,2.63-4.51,4"/><path class="cls-2" d="M542.91,49.22c-3.16,1.82-6.35,3.59-9.46,5.49a26.07,26.07,0,0,0-3,2.46"/><path class="cls-2" d="M425.15,141.68q-5.75,6.94-11.48,13.91"/><path class="cls-2" d="M73.35,1l14,1"/><path class="cls-2" d="M339.82,174l14,3"/><path class="cls-2" d="M37.43,9C33,11,28,12.08,25,16.41"/><path class="cls-2" d="M122.76,13.43c2.66,1.65,5.36,3.25,8,5a39.53,39.53,0,0,1,3.51,3"/><path class="cls-2" d="M494.51,78.55l-13,8.94"/><path class="cls-2" d="M470.06,96.94c-2.83,3-5.67,6-8.48,9-.88,1-1.67,2-2.5,3"/><path class="cls-2" d="M402.69,164l-13,7"/><path class="cls-2" d="M569.36,42.76l-13,3.47"/><path class="cls-2" d="M595.3,40.27l-13,1"/><path class="cls-2" d="M60.88,2.49,48.4,5"/><path class="cls-2" d="M145.71,26.35l11.48,8.45"/><path class="cls-2" d="M272,134.22l11.47,9.44"/><path class="cls-2" d="M188.62,59.16,200.1,69.6"/><path class="cls-2" d="M251,116.32l12,9"/><path class="cls-2" d="M378.74,175c-3.33.5-6.67.89-10,1.57-.77.15-1.35,1.25-2,1.91"/><path class="cls-2" d="M209.08,78.55l11.48,9.94"/><path class="cls-2" d="M317.36,163.55l10.48,6"/><path class="cls-2" d="M12,24.36,1,33.81"/><path class="cls-2" d="M167.66,42.26l10.48,9"/><path class="cls-2" d="M446.6,120.3l-10.48,10.94"/><path class="cls-2" d="M99.8,5.47,110.28,9"/><path class="cls-2" d="M230,97.43l10.48,9.45"/><path class="cls-2" d="M295.41,151.62l10.48,6.46"/></g></g></g></svg>