<svg version="1.1" id="content_1_" xmlns="http://www.w3.org/2000/svg" xmlns:xlink="http://www.w3.org/1999/xlink" x="0px" y="0px"
	 style="enable-background:new 0 0 612 330;" xml:space="preserve">
<style type="text/css">
	.st0{fill:#F7C800;}
	.st1{fill:#181818;}
	.st2{fill:#FFFFFF;}
</style>
<g id="illustration">
	<g id="XMLID_90_">
		<g id="XMLID_86_">
			<g id="XMLID_1681_">
				<g id="XMLID_893_">
					<g id="XMLID_1548_">
						<path id="XMLID_859_" class="st0" d="M484.8,149.2c0,0,0-0.1,0-0.1v-2.5l-3.3,0.1l-12.3-6.9c-1-0.6-2.6-0.7-3.5-0.1l-13.9,8.2
							l-3.8,0.2l0,2.7v0.2c0,0,0,0,0,0c0.1,0.3,0.4,0.6,0.8,0.9l14.7,8.3c1,0.6,2.6,0.7,3.5,0.1l17.1-10.1
							C484.6,149.9,484.8,149.6,484.8,149.2L484.8,149.2L484.8,149.2z"/>
						<path id="XMLID_860_" class="st1" d="M463.5,160.3l-14.7-8.3c-0.4-0.2-0.7-0.5-0.9-0.9l-0.1-0.3l0-3l4-0.2l13.8-8.2
							c1-0.6,2.6-0.5,3.8,0.1l12.2,6.8l3.5-0.1l0,2.8c0,0.1,0,0.1,0,0.2l0,0v0c0,0.4-0.3,0.8-0.7,1.1l-17.1,10.1
							c-0.4,0.3-1,0.4-1.7,0.4C464.9,160.8,464.1,160.7,463.5,160.3z M481.5,147l-12.3-6.9c-0.9-0.5-2.4-0.6-3.3-0.1l-13.9,8.2
							l-3.7,0.2l0,2.5l0,0.1c0.1,0.3,0.3,0.5,0.7,0.8l14.7,8.3c1,0.6,2.4,0.6,3.3,0.1l17.1-10.1c0.2-0.1,0.5-0.3,0.5-0.6v-2.4
							L481.5,147z"/>
					</g>
					<g id="XMLID_1547_">
						<path id="XMLID_855_" class="st0" d="M484.3,147.4l-17.1,10.1c-0.9,0.5-2.5,0.5-3.5-0.1l-14.7-8.3c-1-0.6-1.2-1.5-0.3-2
							l17.1-10.1c0.9-0.5,2.5-0.5,3.5,0.1l14.7,8.3C485,146,485.2,146.9,484.3,147.4z"/>
						<path id="XMLID_901_" class="st2" d="M481.8,148.9l-14.6,8.7c-0.9,0.5-2.6,0.7-3.6,0.1l-14.6-6.9c-1-0.6-1.2-1.5-0.3-2
							l17.1-10.1c0.9-0.5,2.5-0.5,3.5,0.1L484,147C485,147.6,482.7,148.4,481.8,148.9z"/>
						<path id="XMLID_856_" class="st1" d="M463.5,157.6l-14.7-8.3c-0.6-0.4-1-0.9-1-1.4c0-0.4,0.3-0.8,0.7-1.1l17.1-10.1
							c1-0.6,2.6-0.5,3.8,0.1l14.7,8.3c0.6,0.4,1,0.9,1,1.4c0,0.4-0.3,0.8-0.7,1.1l-17.1,10.1c-0.4,0.3-1,0.4-1.7,0.4
							C464.9,158.2,464.1,158,463.5,157.6z M465.9,137.2l-17.1,10.1c-0.2,0.1-0.5,0.3-0.5,0.7c0,0.3,0.3,0.7,0.7,0.9l14.7,8.3
							c1,0.6,2.4,0.6,3.3,0.1l17.1-10.1l0,0c0.2-0.1,0.5-0.3,0.5-0.7c0-0.3-0.3-0.7-0.7-0.9l-14.7-8.3c-0.5-0.3-1.2-0.5-1.9-0.5
							C466.8,136.9,466.3,137,465.9,137.2z"/>
					</g>
					<g id="XMLID_1546_">
						<path id="XMLID_851_" class="st0" d="M466.5,114.4L466.5,114.4c-0.6-0.3-1.4-0.3-2.3,0.2l-9.5,5.5c-2,1.2-3.6,4.3-3.6,7v20.8
							l14.3,8.3c0,0,11.7-24.7,11.8-25.1c0.1-0.5,3.8-8.3,3.8-8.3L466.5,114.4z"/>
						<path id="XMLID_900_" class="st2" d="M466.5,116.5L466.5,116.5c-0.6-0.3-1.4-0.3-2.3,0.2l-9.5,5.5c-2,1.2-3.6,4.3-3.6,7v18.1
							l14.9,8.6c0,0,11-22.2,11.1-22.7c0.1-0.5,3.8-8.3,3.8-8.3L466.5,116.5z"/>
						<path id="XMLID_852_" class="st1" d="M451,148.1l-0.1-0.1v-21c0-2.7,1.7-6,3.7-7.2l9.5-5.5c0.9-0.5,1.8-0.6,2.6-0.2l14.4,8.4
							l0,0l0.1,0.3c-1.5,3.1-3.6,7.9-3.7,8.2c-0.1,0.5-9.8,21.1-11.8,25.2l0,0.1l-0.2,0.1L451,148.1z M466.4,114.6
							c-0.6-0.3-1.3-0.2-2.1,0.2l-9.5,5.5c-1.9,1.1-3.5,4.1-3.5,6.7v20.7l13.9,8.1c4-8.5,11.5-24.3,11.6-24.8c0.1-0.5,3-6.7,3.7-8.1
							L466.4,114.6z"/>
					</g>
					<g id="XMLID_1545_">
						<path id="XMLID_847_" class="st0" d="M482,146.4l-16.7,9.8v-20.8c0-2.7,1.6-5.8,3.6-7l9.5-5.5c2-1.2,3.6,0.1,3.6,2.7V146.4z"
							/>
						<path id="XMLID_848_" class="st1" d="M465.1,135.4c0-2.8,1.7-6,3.7-7.2l9.5-5.5c0.9-0.6,1.9-0.6,2.6-0.2
							c0.9,0.5,1.4,1.7,1.4,3.2v21l-17,9.9l-0.2-0.1V135.4z M481.8,125.6c0-1.3-0.4-2.3-1.1-2.7c-0.6-0.3-1.3-0.3-2.1,0.2l-9.5,5.5
							c-1.9,1.1-3.5,4.1-3.5,6.7v20.4l16.2-9.5V125.6z"/>
					</g>
					<polygon id="XMLID_879_" class="st1" points="465.6,157.9 465.6,160.7 463.8,160.2 448.4,151.5 448.1,150.9 448.1,148.3 
						449.5,149.6 464.4,157.9 					"/>
					<polygon id="XMLID_886_" class="st1" points="465.7,133.2 463.3,131.8 463.1,132.7 463.1,147.9 460.9,149.3 453.2,144.9 
						451.1,146.2 451.1,147.9 465.1,156 465.3,155.1 465.4,134.3 					"/>
					<polygon id="XMLID_885_" class="st1" points="452.6,126.9 451.2,126.1 451.1,128 451.1,132.9 453,131.7 452.9,127.1 					"/>
					<g id="XMLID_1613_">
						<g id="XMLID_1612_">
							<path id="XMLID_875_" class="st0" d="M413.7,143.4C413.7,143.4,413.7,143.4,413.7,143.4v-1.8l0.9,0l3.4-1.9
								c0.3-0.2,0.7-0.2,1,0l3.2,1.9l1.1,0l0,1.8v0c0,0,0,0,0,0c0,0.1-0.1,0.2-0.2,0.3l-4.1,2.3c-0.3,0.2-0.7,0.2-1,0l-4.1-2.5
								C413.7,143.6,413.7,143.5,413.7,143.4L413.7,143.4L413.7,143.4z"/>
							<path id="XMLID_876_" class="st1" d="M417.8,146.3l-4.1-2.4c-0.2-0.1-0.3-0.3-0.3-0.5l0-1.8l1.1-0.2l3.4-1.9
								c0.4-0.2,0.9-0.2,1.2,0l3.2,1.9l1.3,0.3v1.9l0,0.1l-0.1,0.1c-0.1,0.1-0.1,0.2-0.3,0.2l-4.1,2.3c-0.2,0.1-0.4,0.2-0.7,0.2
								C418.2,146.5,418,146.4,417.8,146.3z M423.1,141.9l-0.8,0l-3.3-1.9c-0.2-0.1-0.5-0.1-0.7,0l-3.4,1.9l-0.1,0l-0.7,0l0,1.5
								l4.2,2.5c0.2,0.1,0.5,0.1,0.7,0l4.1-2.3c0.1,0,0.1-0.1,0.1-0.1l0,0L423.1,141.9z"/>
						</g>
						<g id="XMLID_1611_">
							<path id="XMLID_871_" class="st0" d="M413.8,141.9l4.1,2.5c0.3,0.1,0.7,0.1,1,0l4.1-2.3c0.3-0.2,0.3-0.4,0.1-0.6L419,139
								c-0.3-0.1-0.7-0.1-1,0l-4.1,2.3C413.6,141.5,413.6,141.7,413.8,141.9z"/>
							<path id="XMLID_904_" class="st2" d="M413.9,143l4.1,2.5c0.3,0.1-0.1-0.6,0.2-0.8l4.5-2.5l-3.6-2.1c-0.3-0.1-0.7-0.1-1,0
								l-4.1,2.3C413.7,142.6,413.7,142.8,413.9,143z"/>
							<path id="XMLID_872_" class="st1" d="M417.8,144.5l-4.1-2.5c-0.2-0.1-0.3-0.3-0.3-0.5c0-0.2,0.1-0.4,0.4-0.5l4.1-2.3
								c0.4-0.2,0.9-0.2,1.2,0l4.1,2.4c0.2,0.1,0.3,0.3,0.3,0.5c0,0.2-0.1,0.4-0.4,0.5l-4.1,2.3c-0.2,0.1-0.4,0.2-0.7,0.2
								C418.2,144.7,418,144.6,417.8,144.5z M418.1,139.2l-4.1,2.3c-0.1,0-0.1,0.1-0.1,0.1c0,0,0,0,0,0l4.1,2.5
								c0.2,0.1,0.5,0.1,0.7,0l4.1-2.3c0.1,0,0.1-0.1,0.1-0.1l-4.2-2.5c-0.1,0-0.2-0.1-0.3-0.1C418.4,139.1,418.3,139.1,418.1,139.2
								z"/>
						</g>
						<g id="XMLID_1609_">
							<path id="XMLID_867_" class="st0" d="M417,140.7c0,0.4,0.6,0.7,1.4,0.7c0.8,0,1.4-0.3,1.4-0.7c0-0.4-0.6-0.7-1.4-0.7
								C417.6,140,417,140.3,417,140.7z"/>
							<path id="XMLID_905_" class="st0" d="M417,141.6c0,0.4,0.6,0.7,1.4,0.7c0.8,0,1.4-0.3,1.4-0.7c0-0.4-0.6-0.7-1.4-0.7
								C417.6,140.9,417,141.2,417,141.6z"/>
							<path id="XMLID_868_" class="st1" d="M416.7,140.7c0-0.6,0.7-1,1.6-1c0.9,0,1.6,0.4,1.6,1c0,0.6-0.7,1-1.6,1
								C417.4,141.7,416.7,141.3,416.7,140.7z M417.2,140.7c0,0.2,0.4,0.5,1.1,0.5c0.7,0,1.1-0.3,1.1-0.5c0-0.2-0.4-0.5-1.1-0.5
								C417.7,140.2,417.2,140.5,417.2,140.7z"/>
						</g>
						<g id="XMLID_1600_">
							<path id="XMLID_863_" class="st1" d="M418.4,140.7L418.4,140.7c0.4,0,0.7-0.3,0.7-0.7v-3.1c0-0.4-0.3-0.7-0.7-0.7l0,0
								c-0.4,0-0.7,0.3-0.7,0.7v3.1C417.6,140.4,418,140.7,418.4,140.7z"/>
							<path id="XMLID_864_" class="st1" d="M417.4,140v-3.1c0-0.5,0.4-1,1-1c0.5,0,1,0.4,1,1v3.1c0,0.5-0.4,1-1,1
								C417.8,140.9,417.4,140.5,417.4,140z M417.9,136.9v3.1c0,0.3,0.2,0.5,0.5,0.5c0.3,0,0.5-0.2,0.5-0.5v-3.1
								c0-0.3-0.2-0.5-0.5-0.5C418.1,136.4,417.9,136.6,417.9,136.9z"/>
						</g>
					</g>
					<polygon id="XMLID_843_" class="st1" points="460.9,149.3 452.9,144.7 452.9,125.2 460.9,129.8 					"/>
					<polygon id="XMLID_839_" class="st0" points="456.9,123 452.9,125.2 460.9,129.8 464.7,127.5 					"/>
					<polygon id="XMLID_894_" class="st2" points="457,124.6 454.2,126.1 460.9,129.8 461,131.4 464.8,129.1 					"/>
					<g id="XMLID_1542_">
						<path id="XMLID_835_" class="st0" d="M464.7,127.5v1.8c0,0-1.6,1.6-1.6,3.8c0,2.2,0,3.5,0,3.5v11.2l-2.2,1.5l0-19.5
							L464.7,127.5z"/>
						<path id="XMLID_882_" class="st1" d="M452.6,144.8l8.3,4.8l2.4-1.6v-14.8c0-2.1,1.5-3.6,1.5-3.7l0.1-0.1v-2l-8-4.7l-4.3,2.3
							L452.6,144.8z M464.2,127.5l-2.8,1.7l-0.5,0.3l-7.5-4.3l3.5-1.9L464.2,127.5z M461.2,148.9l0-18.9l0.6-0.3l2.7-1.6v1.3
							c-0.3,0.4-1.6,1.9-1.6,3.9v14.6L461.2,148.9z M453.1,125.6l7.5,4.4l0,18.9l-7.5-4.4L453.1,125.6z"/>
					</g>
					<polygon id="XMLID_895_" class="st0" points="452.6,127.5 453.1,127.8 453.1,144.4 460.7,148.8 460.7,149.4 452.6,144.7 					
						"/>
					<g id="XMLID_1541_">
						<path id="XMLID_831_" class="st0" d="M453.9,128.5c0.1,0,6.1,3.5,6.1,3.5l0,13.7l-6.1-3.4V128.5z"/>
						<path id="XMLID_832_" class="st1" d="M453.7,142.4v-14.2h0.3c0.1,0,0.2,0,6.2,3.5l0.1,0.1l0,14.3L453.7,142.4z M454.2,128.9
							v13.2l5.6,3.1l0-13.1C457.9,130.9,455.1,129.4,454.2,128.9z"/>
					</g>
					<g id="XMLID_1536_">
						<g id="XMLID_1540_">
							<polygon id="XMLID_827_" class="st0" points="448.3,136.1 457.7,130.6 457.7,137.2 448.3,142.7 							"/>
							<path id="XMLID_828_" class="st1" d="M448.1,136l9.6-5.7l0.3,0.1v7l-9.9,5.8V136z M457.4,131l-8.9,5.3v6l8.9-5.2V131z"/>
						</g>
						<g id="XMLID_1537_">
							<g id="XMLID_1539_">
								<polygon id="XMLID_823_" class="st0" points="457.7,130.6 456.3,129.7 447,135.3 448.3,136.1 								"/>
								<polygon id="XMLID_1395_" class="st2" points="457.4,131.2 456.3,130.5 447,136.1 448.3,136.9 457.4,131.5 								"/>
								<path id="XMLID_824_" class="st1" d="M446.5,135.3l9.6-5.8l0.1-0.1l1.9,1.1l-9.8,5.8l-0.1,0.1L446.5,135.3z M456.3,130
									l-8.8,5.3l0.8,0.5l8.9-5.3L456.3,130z"/>
							</g>
							<g id="XMLID_1538_">
								<polygon id="XMLID_819_" class="st0" points="448.3,142.7 447,141.9 447,135.3 448.3,136.1 								"/>
								<path id="XMLID_820_" class="st1" d="M446.7,142v-7.2l1.8,1.2v7.2L446.7,142z M447.2,135.8v6l0.8,0.5v-6L447.2,135.8z"/>
							</g>
						</g>
					</g>
					<g id="XMLID_1531_">
						<g id="XMLID_1535_">
							<polygon id="XMLID_815_" class="st0" points="450.8,137.8 460.1,132.3 460,139 450.8,144.4 							"/>
							<path id="XMLID_816_" class="st1" d="M450.6,137.6l9.7-5.8l0,7.3l-9.7,5.7V137.6z M459.8,132.7l-8.7,5.2v6l8.7-5.1
								L459.8,132.7z"/>
						</g>
						<g id="XMLID_1532_">
							<g id="XMLID_1534_">
								<polygon id="XMLID_811_" class="st0" points="460.1,132.3 460.1,131.9 459,131.3 449.5,136.9 450.8,137.8 								"/>
								<polygon id="XMLID_1389_" class="st2" points="459.8,133.2 459.8,132.6 459,132.1 449.5,137.7 450.8,138.5 								"/>
								<path id="XMLID_812_" class="st1" d="M449,136.9l9.9-5.9l1.3,0.8l0,0.7L451,138l-0.1,0.1L449,136.9z M459.8,132.1l-0.8-0.5
									l-9,5.4l0.8,0.5L459.8,132.1L459.8,132.1z"/>
							</g>
							<g id="XMLID_1533_">
								<polygon id="XMLID_807_" class="st0" points="450.8,144.4 449.5,143.5 449.5,136.9 450.8,137.8 								"/>
								<path id="XMLID_808_" class="st1" d="M449.3,143.7v-7.2l1.8,1.1v7.2L449.3,143.7z M449.8,137.4v6l0.8,0.5v-6L449.8,137.4z"
									/>
							</g>
						</g>
					</g>
					<g id="XMLID_1530_">
						<polygon id="XMLID_803_" class="st0" points="456.1,141.3 460.1,143.6 460.1,145.6 454.2,142.4 						"/>
						<polygon id="XMLID_896_" class="st2" points="456.2,142.2 460.2,144.5 460.1,145.6 455.1,142.9 						"/>
						<path id="XMLID_804_" class="st1" d="M453.7,142.4l2.4-1.4l4.2,2.5l0,2.6L453.7,142.4z M456.1,141.6l-1.4,0.8l5.1,2.8l0-1.4
							L456.1,141.6z"/>
					</g>
					<g id="XMLID_1529_">
						<polygon id="XMLID_799_" class="st0" points="434.7,106.6 446.3,134.7 445.1,135.4 433.6,107.4 						"/>
						<path id="XMLID_800_" class="st1" d="M433.3,107.4l1.5-1.2l11.8,28.4l0.1,0.2l-1.7,1L433.3,107.4z M434.6,107l-0.7,0.5
							l11.3,27.5l0.8-0.5L434.6,107z"/>
					</g>
					<g id="XMLID_1528_">
						<polygon id="XMLID_794_" class="st1" points="432.1,107.2 443.4,136.4 445.1,135.4 433.6,107.4 						"/>
						<path id="XMLID_795_" class="st1" d="M431.7,106.9l2.1,0.3l11.6,28.3l-2.1,1.3L431.7,106.9z M433.4,107.7l-1-0.1l11.1,28.5
							l1.2-0.8L433.4,107.7z"/>
					</g>
					<g id="XMLID_1527_">
						<polygon id="XMLID_789_" class="st0" points="432.8,108.5 444.2,136 442.9,136.7 431.7,109.4 						"/>
						<path id="XMLID_791_" class="st1" d="M431.5,109.5l-0.1-0.2l1.5-1.2l11.5,27.8l0.1,0.2l-1.7,1L431.5,109.5z M432.7,108.9
							l-0.7,0.5l11,26.9l0.8-0.5L432.7,108.9z"/>
					</g>
					<g id="XMLID_1526_">
						<polygon id="XMLID_784_" class="st1" points="430.3,108.5 442.2,139 442.9,136.7 431.5,108.8 						"/>
						<path id="XMLID_785_" class="st1" d="M429.9,108.1l1.8,0.4l11.5,28.1l0,0.1l-1,3.1L429.9,108.1z M431.3,109l-0.6-0.1
							l11.5,29.4l0.5-1.5L431.3,109z"/>
					</g>
					<g id="XMLID_1525_">
						<path id="XMLID_780_" class="st0" d="M446.8,132.8C446.8,132.7,446.8,132.7,446.8,132.8l-0.1-0.1l0,0c-0.1,0-0.2,0-0.3,0.1
							l-2.6,1.5c-1.8,1-3.3,3.9-3.3,6.3c0,1.2,0.3,2,0.9,2.5l0,0l0,0c0.2,0.1,0.3,0.2,0.5,0.3l6.1,3.4l3.4-6.6l1.9-3.7L446.8,132.8z
							"/>
						<path id="XMLID_902_" class="st2" d="M446.9,134.3C446.9,134.3,446.8,134.3,446.9,134.3l-0.1-0.1l0,0c-0.1,0-0.2,0-0.3,0.1
							l-2.6,1.5c-1.8,1-2.6,2.7-2.6,5.1c0,1.2,0.3,2,0.9,2.5l0,0l0,0c0.2,0.1,0.3,0.2,0.5,0.3l5.9,2.6l2.9-4.7l1.9-3.7L446.9,134.3z
							"/>
						<path id="XMLID_781_" class="st1" d="M441.9,143.5c-0.2-0.1-0.4-0.2-0.6-0.3l-0.2-0.1l0,0c-0.6-0.5-0.9-1.4-0.9-2.6
							c0-2.5,1.5-5.4,3.4-6.5l2.6-1.5c0.1-0.1,0.1-0.1,0.2-0.1l0.3,0l0.1,0.1c0,0,0.1,0,0.1,0.1l6.7,3.7l-5.5,10.7L441.9,143.5z
							 M446.7,133L446.7,133c-0.1,0-0.2,0-0.2,0l-2.6,1.5c-1.7,1-3.1,3.7-3.1,6.1c0,1,0.3,1.9,0.8,2.3l0,0c0.1,0.1,0.3,0.2,0.5,0.3
							l5.9,3.3l5.1-9.9L446.7,133z"/>
					</g>
					<g id="XMLID_1524_">
						<path id="XMLID_776_" class="st0" d="M452.8,145.1l-2.6,1.5c-1.8,1-3.3-0.1-3.3-2.5l0,0c0-2.4,1.5-5.2,3.3-6.3l2.6-1.5
							c0.4-0.2,0.6,0,0.6,0.5l0,7C453.5,144.3,453.2,144.9,452.8,145.1z"/>
						<path id="XMLID_777_" class="st1" d="M448,147c-0.8-0.5-1.3-1.5-1.3-2.9c0-2.5,1.5-5.4,3.4-6.5l2.6-1.5c0.2-0.1,0.5-0.1,0.7,0
							c0.2,0.1,0.3,0.4,0.3,0.7l0,7c0,0.6-0.3,1.2-0.8,1.4l-2.6,1.5c-0.5,0.3-1,0.4-1.4,0.4C448.6,147.2,448.3,147.1,448,147z
							 M452.7,144.9c0.3-0.2,0.5-0.6,0.5-1l0-7c0-0.2,0-0.3-0.1-0.3c-0.1,0-0.1,0-0.2,0l-2.6,1.5c-1.7,1-3.1,3.7-3.1,6.1
							c0,1.2,0.4,2.1,1,2.4c0.5,0.3,1.2,0.2,1.9-0.2L452.7,144.9L452.7,144.9z"/>
					</g>
					<g id="XMLID_1523_">
						<path id="XMLID_772_" class="st0" d="M453,139.3C453,139.3,453,139.2,453,139.3L453,139.3L453,139.3c-0.1,0-0.2,0-0.2,0
							l-1.1,0.7c-0.8,0.5-1.4,1.7-1.4,2.8c0,0.5,0.2,0.9,0.4,1.1l0,0l0,0c0.1,0.1,0.1,0.1,0.2,0.1l1.2,0.7l1.3-2.7l0.9-2L453,139.3z
							"/>
						<path id="XMLID_155_" class="st2" d="M453,139.8C453,139.8,452.9,139.8,453,139.8L453,139.8L453,139.8c-0.1,0-0.2,0-0.2,0
							l-1.1,0.7c-0.8,0.5-1.4,1.7-1.4,2.8c0,0.5,0.9-0.1,1.1,0.1l0,0l0,0c0.1,0.1,0.1,0.1,0.2,0.1l1.2,0.7l0.6-1.6l0.9-2L453,139.8z
							"/>
						<path id="XMLID_773_" class="st1" d="M450.8,144.1c-0.1,0-0.2-0.1-0.3-0.1l-0.2-0.2l0,0c-0.2-0.3-0.3-0.6-0.3-1.1
							c0-1.2,0.7-2.5,1.6-3l1.1-0.7c0,0,0.1,0,0.1-0.1l0.1-0.1l1.5,0.8l-0.8,2.2l-1.4,2.9L450.8,144.1z M452.9,139.5L452.9,139.5
							L452.9,139.5l-1.1,0.6c-0.7,0.4-1.3,1.6-1.3,2.6c0,0.4,0.1,0.7,0.3,0.9l0,0c0,0,0.1,0.1,0.2,0.1l0.9,0.5l1.2-2.4l0.8-1.8
							L452.9,139.5z"/>
					</g>
					<g id="XMLID_1522_">
						<path id="XMLID_768_" class="st0" d="M454,143.9l-1.1,0.7c-0.8,0.5-1.4,0-1.4-1.1l0,0c0-1.1,0.6-2.3,1.4-2.8l1.1-0.7
							c0.2-0.1,0.3,0,0.3,0.2l0,3.1C454.3,143.5,454.2,143.8,454,143.9z"/>
						<path id="XMLID_769_" class="st1" d="M451.8,144.8c-0.4-0.2-0.6-0.7-0.6-1.4c0-1.2,0.7-2.5,1.6-3l1.1-0.7
							c0.1-0.1,0.3-0.1,0.4,0c0.1,0.1,0.2,0.2,0.2,0.4l0,3.1c0,0.3-0.2,0.6-0.4,0.8l-1.1,0.7c-0.2,0.1-0.5,0.2-0.7,0.2
							C452.1,144.9,452,144.9,451.8,144.8z M453.9,143.6c0.1,0,0.2-0.2,0.2-0.3l0-3l-1,0.6c-0.7,0.4-1.3,1.6-1.3,2.6
							c0,0.5,0.1,0.8,0.4,1c0.2,0.1,0.5,0,0.7-0.1L453.9,143.6L453.9,143.6z"/>
					</g>
					<g id="XMLID_1521_">
						<path id="XMLID_764_" class="st0" d="M426.8,105.6c0,0,1.2-4.5,3.3-3.7c1,0.4,1.2,0.1,2.2,0.5c3.7,1.4,3.3,4.6,2.6,6.1l0,0
							c-0.4,0.8-1.4,1.1-2.2,0.7l-6.2-3.1L426.8,105.6z"/>
						<path id="XMLID_765_" class="st1" d="M432.7,109.4l-6.4-3.2l0.3-0.8c0.1-0.3,0.9-3.1,2.3-3.8c0.4-0.2,0.9-0.2,1.3-0.1
							c0.5,0.2,0.8,0.2,1.1,0.2c0.3,0,0.6,0.1,1.1,0.3c1.5,0.6,2.5,1.5,2.9,2.7c0.5,1.4,0.3,2.8-0.2,3.8c-0.2,0.5-0.6,0.8-1.1,1
							c-0.2,0.1-0.4,0.1-0.6,0.1C433.2,109.6,432.9,109.6,432.7,109.4z M429.2,102.1c-1.3,0.7-2.1,3.5-2.1,3.5l-0.2,0.4l6,3
							c0.3,0.2,0.7,0.2,1,0.1c0.3-0.1,0.6-0.4,0.8-0.7c0.4-0.8,0.7-2.1,0.2-3.4c-0.4-1.1-1.3-1.9-2.6-2.4c-0.4-0.2-0.7-0.2-1-0.2
							c-0.3,0-0.6-0.1-1.2-0.3c-0.1-0.1-0.3-0.1-0.4-0.1C429.5,102,429.3,102.1,429.2,102.1z"/>
					</g>
					<g id="XMLID_1520_">
						<path id="XMLID_760_" class="st0" d="M425.2,104.7c0,0,1.5-4,5.4-3c3.9,1,3.4,4.4,2.7,5.8c-0.7,1.5-0.7,1.5-0.7,1.5l-7.6-3.8
							L425.2,104.7z"/>
						<path id="XMLID_907_" class="st2" d="M425.5,106c0,0,1.5-4,5.4-3c3.9,1,2.9,4,2.2,5.5c-0.7,1.5-1.1,1.3-1.1,1.3l-6.7-3.3
							L425.5,106z"/>
						<path id="XMLID_761_" class="st1" d="M424.6,105.4l0.3-0.8c0.1-0.2,1.7-4.1,5.7-3.1c1.5,0.4,2.5,1.1,3,2.3
							c0.6,1.4,0.3,3-0.1,3.9l-0.8,1.7L424.6,105.4z M425.4,104.8l-0.2,0.3l7.2,3.6l0.6-1.2c0.4-0.9,0.7-2.3,0.1-3.5
							c-0.4-1-1.3-1.6-2.7-2c-0.4-0.1-0.8-0.2-1.1-0.2C426.6,101.8,425.4,104.7,425.4,104.8z"/>
					</g>
					<g id="XMLID_1519_">
						<path id="XMLID_756_" class="st0" d="M433.2,106.7C433.2,106.7,433.2,106.7,433.2,106.7L433.2,106.7c-0.1-0.1-0.1-0.1-0.1-0.2
							l-0.9-1.1c0,0-0.6,0.4-1.1,0.7l-9.5-1.1c-0.4-0.1-0.8,0.2-0.9,0.7l-0.6,3c-0.1,0.4-0.1,0.7,0,1.1l-0.4,0.1l1,1.1
							c0.1,0.1,0.2,0.2,0.3,0.3l0,0c0,0,0,0,0,0c0.4,0.3,0.8,0.6,1.4,0.7l7.5,1.1c1.5,0.2,2.8-0.8,3.1-2.3l0.5-3.5
							C433.3,107.1,433.3,106.9,433.2,106.7z"/>
						<path id="XMLID_757_" class="st1" d="M429.6,113.3l-7.5-1.1c-0.5-0.1-1.1-0.3-1.5-0.7l-0.1-0.1c-0.1-0.1-0.2-0.2-0.3-0.3
							l-1.3-1.4l0.6-0.1c0-0.3,0-0.6,0-0.9l0.6-3c0.1-0.6,0.6-0.9,1.2-0.9l9.4,1.1c0.4-0.3,1-0.6,1-0.6l0.2-0.1l1.1,1.2
							c0.1,0.1,0.1,0.1,0.2,0.2l0.1,0.1l0,0c0.1,0.2,0.1,0.4,0.1,0.6l-0.5,3.5c-0.2,1.5-1.5,2.5-2.9,2.5
							C429.9,113.3,429.8,113.3,429.6,113.3z M432.9,106.7l-0.8-0.9c-0.2,0.1-0.6,0.4-0.9,0.5l-0.1,0l-9.6-1.1
							c-0.3,0-0.6,0.2-0.7,0.5l-0.6,3c-0.1,0.3-0.1,0.6,0,1l0,0.2L420,110l0.7,0.8c0.1,0.1,0.4,0,0.5,0l-0.1,0.3
							c0.4,0.3,0.7,0.5,1.2,0.5l7.5,1.1c1.3,0.2,2.6-0.7,2.8-2.1l0.5-3.5c0-0.1,0-0.3-0.1-0.4L432.9,106.7
							C432.9,106.8,432.9,106.8,432.9,106.7z"/>
					</g>
					<g id="XMLID_1518_">
						<path id="XMLID_752_" class="st0" d="M420.4,103.8l11,1.3c0.5,0.1,0.8,0.5,0.7,1l-0.5,3.5c-0.2,1.5-1.6,2.5-3.1,2.3l-7.5-1.1
							c-1.5-0.2-2.6-1.7-2.3-3.3l0.6-3C419.6,104.1,420,103.8,420.4,103.8z"/>
						<path id="XMLID_911_" class="st2" d="M419.7,110.1c-0.1-0.4-0.2-0.9-0.1-1.4l0.6-3c0.1-0.4,0.5-0.7,0.9-0.7l11,1.3l-0.5,3.3
							c-0.2,1.5-1.6,2.5-3.1,2.3l-7.5-1.1C420.6,110.7,420.1,110.4,419.7,110.1z"/>
						<path id="XMLID_753_" class="st1" d="M428.6,112.1l-7.5-1.1c-0.8-0.1-1.5-0.6-2-1.2c-0.5-0.7-0.6-1.5-0.5-2.3l0.6-3
							c0.1-0.6,0.6-0.9,1.2-0.9l11,1.3c0.3,0,0.6,0.2,0.8,0.4c0.2,0.2,0.3,0.5,0.2,0.8l-0.5,3.5c-0.2,1.5-1.5,2.5-2.9,2.5
							C428.9,112.1,428.7,112.1,428.6,112.1z M420.4,104.1c-0.3,0-0.6,0.2-0.7,0.5l-0.6,3c-0.1,0.7,0,1.4,0.4,1.9
							c0.4,0.6,1,0.9,1.7,1l7.5,1.1c1.3,0.2,2.6-0.7,2.8-2.1l0.5-3.5c0-0.2,0-0.3-0.1-0.5c-0.1-0.1-0.2-0.2-0.4-0.2L420.4,104.1
							L420.4,104.1z"/>
					</g>
					<g id="XMLID_1517_">
						<path id="XMLID_748_" class="st1" d="M427.7,111.8L427.7,111.8L427,110l-0.2,0.5c-0.4-0.3-1-0.5-1.5-0.4
							c-1.5,0.1-2.8,1.5-3.2,3.2l0,0l-2.8,14.5l-1.8,4.1l0.5,1.4c0,0.1,0,0.1,0.1,0.2l0,0.1l0,0c0.2,0.5,0.7,0.8,1.2,0.8
							c0.7,0,1.4-0.6,1.6-1.3l0,0l6.7-17.9c0.1-0.3,0.3-0.6,0.3-1l0.1-0.2l0,0c0-0.1,0.1-0.2,0.1-0.4
							C428,112.9,427.9,112.3,427.7,111.8z"/>
						<path id="XMLID_749_" class="st1" d="M419.2,134.6c-0.6,0-1.1-0.4-1.4-1l0-0.1c0-0.1,0-0.1-0.1-0.2l-0.6-1.5l1.8-4.1l2.8-14.5
							l0-0.2h0c0.5-1.7,1.9-3.1,3.4-3.2c0.5,0,1,0.1,1.4,0.3l0.4-0.8l0.9,2.3l0,0c0.2,0.6,0.3,1.3,0.2,2c0,0,0,0.1,0,0.1l0,0
							l-0.1,0.5c-0.1,0.4-0.2,0.7-0.3,1l-6.6,17.9C420.9,133.9,420.1,134.6,419.2,134.6C419.3,134.6,419.3,134.6,419.2,134.6z
							 M427.7,113.8c0-0.1,0-0.1,0-0.2c0.1-0.6,0-1.2-0.2-1.7l-0.5-1.2l-0.1,0.3l-0.3-0.2c-0.4-0.3-0.9-0.4-1.4-0.4
							c-1.3,0.1-2.6,1.3-3,3l-2.8,14.6l-1.7,4l0.5,1.4c0,0,0,0.1,0.1,0.2l0,0.1c0.2,0.4,0.6,0.6,1,0.7c0.6,0,1.2-0.5,1.4-1.2
							l6.7-17.9c0.1-0.3,0.2-0.5,0.3-0.9L427.7,113.8z"/>
					</g>
					<g id="XMLID_1516_">
						<path id="XMLID_744_" class="st0" d="M427.1,111.9L427.1,111.9c0-0.1,0-0.2,0-0.4c0.2-2-1-3.6-2.7-3.5
							c-1.5,0.1-2.8,1.5-3.2,3.2l0,0l-3.8,19.7l0,0c0,0.1,0,0.2,0,0.3c-0.1,0.9,0.5,1.7,1.4,1.7c0.7,0,1.4-0.6,1.6-1.3l0,0l6.4-18.5
							c0.1-0.3,0.3-0.6,0.3-1L427.1,111.9z"/>
						<path id="XMLID_912_" class="st2" d="M418.2,132.1l3.8-19.7l0,0c0.4-1.7,1.7-3.1,3.2-3.2c0.7,0,1.3,0.2,1.8,0.6
							c0.1,0.5,0.2,1,0.1,1.6c0,0.1,0,0.2-0.1,0.4l0,0l-0.1,0.2c-0.1,0.3-0.2,0.7-0.3,1l-6.4,18.5l0,0c-0.2,0.8-0.9,1.4-1.6,1.3
							c-0.2,0-0.4-0.1-0.6-0.1c0-0.1,0-0.2,0-0.3C418.2,132.3,418.2,132.2,418.2,132.1L418.2,132.1z"/>
						<path id="XMLID_745_" class="st1" d="M418.7,133.2c-0.4,0-0.8-0.2-1.1-0.5c-0.3-0.4-0.5-0.9-0.5-1.5c0,0,0-0.1,0-0.1l0,0
							l3.9-19.9l0-0.2h0c0.5-1.7,1.9-3.1,3.4-3.2c0.8-0.1,1.5,0.2,2.1,0.8c0.7,0.7,1,1.8,0.9,3c0,0,0,0.1,0,0.1l0,0l-0.1,0.5
							c-0.1,0.4-0.2,0.7-0.3,1l-6.4,18.5C420.3,132.6,419.6,133.2,418.7,133.2C418.7,133.2,418.7,133.2,418.7,133.2z M426.9,111.7
							c0-0.1,0-0.1,0-0.2c0.1-1-0.2-2-0.7-2.6c-0.4-0.5-1-0.7-1.7-0.6c-1.3,0.1-2.6,1.3-3,3l-3.8,19.5l0,0l0,0.2c0,0.1,0,0.2,0,0.2
							c0,0.4,0.1,0.8,0.3,1.1c0.2,0.2,0.5,0.4,0.8,0.4c0.6,0,1.2-0.5,1.4-1.2l6.4-18.6c0.1-0.3,0.2-0.5,0.3-0.9L426.9,111.7z"/>
					</g>
					<g id="XMLID_1515_">
						<path id="XMLID_740_" class="st0" d="M416.5,133C416.5,133,416.5,133,416.5,133c-0.1,0-0.1,0-0.1,0l-0.1,0l0,0
							c-0.6,0-1.3,0.6-1.5,1.6c-0.2,1.1,0.2,2,0.8,2.2l4.7,1.1l0.7-3.8L416.5,133z"/>
						<path id="XMLID_906_" class="st2" d="M417,133.8C417,133.8,416.9,133.8,417,133.8c-0.1,0-0.1,0-0.1,0l-0.1,0l0,0
							c-0.6,0-1.3,0.6-1.5,1.6c-0.2,1.1,0.4,1.2,1.1,1.3l4.6,0.8l0.5-2.7L417,133.8z"/>
						<path id="XMLID_741_" class="st1" d="M420.2,138.2l-4.6-1.1c-0.8-0.2-1.3-1.3-1-2.5c0.2-1,0.8-1.8,1.5-1.9l0,0l5.2,1.2l-0.7,4
							C420.6,138.1,420.4,138.2,420.2,138.2z M416.4,133.3l-0.2,0c0,0,0,0,0,0c-0.5,0-1,0.6-1.2,1.4c-0.2,0.9,0.1,1.8,0.6,1.9l4.4,1
							l0.6-3.3L416.4,133.3z"/>
					</g>
					<g id="XMLID_1514_">
						<path id="XMLID_736_" class="st0" d="M422,136.3c-0.2,1.1-0.9,1.8-1.6,1.6c-0.7-0.2-1.1-1.2-0.8-2.2c0.2-1.1,0.9-1.8,1.6-1.6
							C421.8,134.3,422.2,135.3,422,136.3z"/>
						<path id="XMLID_737_" class="st1" d="M420.3,138.2c-0.8-0.2-1.3-1.3-1-2.5c0.1-0.7,0.5-1.3,1-1.6c0.3-0.2,0.6-0.2,0.9-0.2
							c0.8,0.2,1.3,1.3,1,2.5l0,0c-0.1,0.7-0.5,1.3-1,1.6c-0.2,0.1-0.4,0.2-0.7,0.2C420.5,138.2,420.4,138.2,420.3,138.2z
							 M421.7,136.3c0.2-0.9-0.1-1.8-0.6-1.9c-0.2-0.1-0.4,0-0.5,0.1c-0.4,0.2-0.7,0.7-0.8,1.3c-0.2,0.9,0.1,1.8,0.6,1.9
							c0.2,0.1,0.4,0,0.5-0.1C421.3,137.3,421.6,136.9,421.7,136.3L421.7,136.3z"/>
					</g>
					<g id="XMLID_1506_">
						<g id="XMLID_1512_">
							<path id="XMLID_732_" class="st0" d="M477.8,121.7v-1.5c0,0,0.2-1.1-0.8-1.8c-1-0.6-10.2-6.1-10.2-6.1h-3.7
								c0,0-0.2,1,0.8,1.5c0.9,0.5,9.4,7,9.4,7v1.7c0,0,0.2,1.3,2.1,1.3c2.2,0,2.4-1.3,2.4-1.3L477.8,121.7z"/>
							<path id="XMLID_903_" class="st2" d="M465.9,112.9c0,0,9.2,5.5,10.2,6.1c1,0.6,0.8,1.8,0.8,1.8v1.5l0,0.8c0,0,0,0.3-0.3,0.6
								c-0.3,0.1-0.7,0.2-1.2,0.2c-1.9,0-2.1-1.3-2.1-1.3v-1.7c0,0-8.5-6.5-9.4-7c-0.5-0.3-0.7-0.7-0.7-1H465.9z"/>
							<path id="XMLID_733_" class="st1" d="M475.4,124.1c-2.1,0-2.4-1.4-2.4-1.5V121c-3-2.3-8.6-6.5-9.3-6.9
								c-0.9-0.5-1-1.4-0.9-1.8l0-0.2h4l0.1,0c0.1,0.1,9.2,5.5,10.2,6.1c1.1,0.7,0.9,2,0.9,2l0,2.3
								C478,122.6,477.8,124.1,475.4,124.1C475.5,124.1,475.4,124.1,475.4,124.1z M463.3,112.6c0,0.3,0.1,0.8,0.6,1
								c0.9,0.5,9.1,6.8,9.5,7l0.1,0.1l0,1.8c0,0,0.2,1,1.9,1.1c0,0,0,0,0.1,0c1.9,0,2.1-1.1,2.1-1.1l0-0.8l0-1.5c0,0,0.1-1-0.7-1.5
								c-0.9-0.6-9.3-5.6-10.1-6.1H463.3z"/>
						</g>
						<g id="XMLID_1511_">
							<path id="XMLID_728_" class="st0" d="M473,109.6l-6.8-2.6c0,0-2.9-0.7-3.1,1.3c-0.2,2,0.1,2.6,1.6,2.6c2,0,2.3-1,2.3-1l4.8,1
								L473,109.6z"/>
							<path id="XMLID_899_" class="st2" d="M473.1,110.5l-6.8-2.6c0,0-2.9-0.7-3.1,1.3c-0.2,2,0.1,2.6,1.6,2.6c2,0,2.3-1.8,2.3-1.8
								l4.8,1.8L473.1,110.5z"/>
							<path id="XMLID_729_" class="st1" d="M467.1,110.2c-0.2,0.3-0.8,1-2.4,1c0,0,0,0,0,0c-0.7,0-1.2-0.2-1.5-0.5
								c-0.4-0.5-0.5-1.3-0.3-2.4c0.1-0.5,0.3-0.9,0.7-1.2c1-0.7,2.7-0.3,2.8-0.3l7.2,2.7l-1.6,1.7L467.1,110.2z M471.7,110.7l0.9-1
								l-6.4-2.4c0,0-1.5-0.4-2.3,0.2c-0.3,0.2-0.4,0.5-0.5,0.9c-0.1,1.1-0.1,1.7,0.2,2c0.2,0.2,0.6,0.3,1.1,0.3c0,0,0,0,0,0
								c1.8,0,2-0.8,2-0.8l0.1-0.1L471.7,110.7z"/>
						</g>
						<g id="XMLID_1510_">
							<path id="XMLID_724_" class="st1" d="M467,109.9v2.6c0,0-0.3,1.2-1.9,1.1c-1.6-0.1-2-1.2-2-1.2l0-2.9c0,0,0.3,0.9,1.8,1
								C466.1,110.6,467,109.9,467,109.9z"/>
							<path id="XMLID_725_" class="st1" d="M465,113.9c-1.8-0.1-2.2-1.4-2.2-1.4l0-3.5l0.5,0.4c0,0,0.3,0.8,1.5,0.8
								c1.2,0.1,2-0.5,2-0.5l0.4,0.1l0,2.7c0,0-0.3,1.3-2,1.3C465.1,113.9,465.1,113.9,465,113.9z M466.7,112.5v-2.1
								c-0.4,0.2-1.1,0.4-1.9,0.3c-0.7,0-1.2-0.3-1.5-0.5l0,2.2c0.1,0.2,0.4,1,1.7,1c0,0,0.1,0,0.1,0
								C466.5,113.4,466.7,112.5,466.7,112.5L466.7,112.5z"/>
						</g>
						<g id="XMLID_1509_">
							<path id="XMLID_720_" class="st0" d="M468.7,107.9l15.8-9.1c0.2-0.1,0.3-0.1,0.5-0.1l0,0l0,0c0.1,0,0.1,0.1,0.2,0.1l1,0.7
								l-0.8,1.2l0,10.2c0,0.6-0.4,1.3-0.8,1.6l-13.4,7.7l-1.7,2.3l-1.3-0.8c-0.2-0.1-0.4-0.3-0.4-0.7l0-11.4
								C467.8,108.9,468.2,108.1,468.7,107.9z"/>
							<path id="XMLID_898_" class="st2" d="M468.7,108.5l15.8-9.1c0.2-0.1,0.3-0.1,0.5-0.1l0,0l0,0c0.1,0,0.1,0.1,0.2,0.1l1,0.7
								l-0.8,1.2l0,10.2c0,0.6-0.4,1.3-0.8,1.6l-13.4,7.7l-1.6,1.4l-1.3-0.8c-0.2-0.1-0.5,0.2-0.5-0.2l0-11
								C467.9,109.5,468.3,108.7,468.7,108.5z"/>
							<path id="XMLID_721_" class="st1" d="M468.1,121.9c-0.3-0.1-0.5-0.5-0.5-0.9l0-11.4c0-0.7,0.4-1.5,1-1.8l15.8-9.1
								c0.2-0.1,0.5-0.2,0.7-0.1c0.1,0,0.2,0.1,0.2,0.1l1.3,0.8l-0.9,1.3l0,10.1c0,0.7-0.4,1.5-1,1.8l-13.3,7.7l-2.1,2.3
								L468.1,121.9z M484.9,98.9C484.9,98.9,484.9,98.9,484.9,98.9c-0.2-0.1-0.3,0-0.3,0l-15.8,9.1c-0.4,0.2-0.7,0.9-0.7,1.4
								l0,11.4c0,0.2,0.1,0.4,0.2,0.5l1.1,0.7l1.5-2.1l13.4-7.8c0.4-0.2,0.7-0.9,0.7-1.4l0-10.3l0.7-1L484.9,98.9z"/>
						</g>
						<g id="XMLID_1508_">
							<path id="XMLID_716_" class="st0" d="M469.9,122.3l15.8-9.1c0.5-0.3,0.8-1,0.8-1.6l0-11.4c0-0.6-0.4-0.9-0.8-0.6l-15.8,9.1
								c-0.5,0.3-0.8,1-0.8,1.6l0,11.4C469.1,122.3,469.4,122.6,469.9,122.3z"/>
							<path id="XMLID_717_" class="st1" d="M469.2,122.6c-0.3-0.2-0.4-0.5-0.4-0.9l0-11.4c0-0.7,0.4-1.5,1-1.8l15.8-9.1
								c0.3-0.2,0.6-0.2,0.8,0c0.3,0.2,0.4,0.5,0.4,0.9l0,11.4c0,0.7-0.4,1.5-1,1.8l-15.8,9.1c-0.2,0.1-0.3,0.1-0.5,0.1
								C469.4,122.7,469.3,122.7,469.2,122.6z M485.8,99.8l-15.8,9.1c-0.4,0.2-0.7,0.9-0.7,1.4l0,11.4c0,0.2,0.1,0.4,0.2,0.5
								c0.1,0.1,0.2,0,0.3,0l15.8-9.1c0.4-0.2,0.7-0.9,0.7-1.4l0-11.4c0-0.2-0.1-0.4-0.2-0.5c0,0-0.1,0-0.1,0
								C485.9,99.7,485.8,99.7,485.8,99.8z"/>
						</g>
						<g id="XMLID_1507_">
							<path id="XMLID_712_" class="st0" d="M471.1,120.2l13.8-8c0.3-0.1,0.5-0.5,0.5-0.9l0-9.4c0-0.3-0.2-0.5-0.5-0.4l-13.8,8
								c-0.3,0.1-0.5,0.5-0.5,0.9l0,9.4C470.6,120.2,470.8,120.4,471.1,120.2z"/>
							<path id="XMLID_713_" class="st1" d="M470.6,120.5c-0.2-0.1-0.3-0.3-0.3-0.6l0-9.4c0-0.4,0.3-0.9,0.6-1.1l13.8-8
								c0.2-0.1,0.4-0.1,0.6,0c0.2,0.1,0.3,0.3,0.3,0.6l0,9.4c0,0.4-0.3,0.9-0.6,1.1l-13.8,8c-0.1,0.1-0.2,0.1-0.3,0.1
								C470.8,120.5,470.7,120.5,470.6,120.5z M485,101.9l-13.8,8c-0.2,0.1-0.3,0.4-0.3,0.7l0,9.4c0,0.1,0,0.2,0,0.2c0,0,0,0,0.1,0
								l13.8-8c0.2-0.1,0.3-0.4,0.3-0.7l0-9.4C485.1,101.9,485,101.8,485,101.9L485,101.9C485,101.8,485,101.8,485,101.9z"/>
						</g>
					</g>
					<g id="XMLID_1504_">
						<path id="XMLID_708_" class="st0" d="M472.1,135.9C472.1,135.9,472,135.9,472.1,135.9l-0.1-0.1l0,0c-0.1,0-0.2,0-0.3,0
							l-2.3,1.3c-1.6,0.9-2.9,3.4-2.9,5.6c0,1,0.3,1.8,0.8,2.2l0,0l0,0c0.1,0.1,0.3,0.2,0.4,0.2l2.1,1.2l3-5.8l1.7-3.3L472.1,135.9z
							"/>
						<path id="XMLID_897_" class="st2" d="M472.2,137.1C472.2,137.1,472.1,137.1,472.2,137.1l-0.1-0.1l0,0c-0.1,0-0.2,0-0.3,0
							l-2.3,1.3c-1.6,0.9-2.9,3.4-2.9,5.6c0,1,0.8,0.8,1.3,1.2l0,0l0,0c0.1,0.1,0.3,0.2,0.5,0.3l2.1,1.2l2.5-4.9l1.7-3.3
							L472.2,137.1z"/>
						<path id="XMLID_709_" class="st1" d="M467.7,145.5c-0.2-0.1-0.4-0.2-0.5-0.3l-0.2-0.1l0,0c-0.5-0.5-0.8-1.3-0.8-2.3
							c0-2.2,1.4-4.8,3-5.8l2.3-1.3c0.1,0,0.1-0.1,0.2-0.1l0.2-0.1l2.6,1.4c0.2,0.1,0.3,0.4,0.2,0.6l-4.7,9.2L467.7,145.5z
							 M472,136.2L472,136.2c-0.1,0-0.1,0-0.2,0l-2.3,1.3c-1.5,0.9-2.8,3.3-2.8,5.3c0,0.9,0.3,1.6,0.7,2l0,0
							c0.1,0.1,0.2,0.2,0.4,0.2l1.9,1.1l4.5-8.7L472,136.2z"/>
					</g>
					<g id="XMLID_1503_">
						<path id="XMLID_178_" class="st0" d="M474.1,145l-2.3,1.3c-1.6,0.9-2.9-0.1-2.9-2.2l0,0c0-2.1,1.3-4.6,2.9-5.6l2.3-1.3
							c0.3-0.2,0.6,0,0.6,0.4l0,6.2C474.7,144.4,474.4,144.8,474.1,145z"/>
						<path id="XMLID_695_" class="st1" d="M469.9,146.7c-0.7-0.4-1.1-1.4-1.1-2.6c0-2.2,1.4-4.8,3-5.8l2.3-1.3
							c0.2-0.1,0.4-0.1,0.6,0c0.2,0.1,0.3,0.4,0.3,0.7l0,6.2c0,0.5-0.3,1.1-0.7,1.3v0l-2.3,1.3c-0.4,0.3-0.9,0.4-1.3,0.4
							C470.4,146.9,470.1,146.9,469.9,146.7z M474.3,137.5l-2.3,1.3c-1.5,0.9-2.8,3.3-2.8,5.3c0,1,0.3,1.8,0.9,2.1
							c0.4,0.3,1,0.2,1.6-0.2l2.3-1.3h0c0.2-0.1,0.4-0.5,0.4-0.9l0-6.2c0-0.2,0-0.2-0.1-0.2c0,0,0,0,0,0
							C474.3,137.4,474.3,137.5,474.3,137.5z"/>
					</g>
					<polygon id="XMLID_837_" class="st1" points="418.4,144.4 418.4,146.3 417.8,146.1 413.4,143.2 413.7,141.9 					"/>
					<polygon id="XMLID_836_" class="st1" points="419.5,136 414.8,134.9 415,136.2 415.4,136.8 420,137.8 419.5,136.9 					"/>
					<g id="XMLID_840_">
						<polygon id="XMLID_841_" class="st0" points="418.9,138.1 418.9,137.6 417.8,137.4 417.8,137.9 						"/>
					</g>
					<polygon id="XMLID_842_" class="st1" points="431.4,112.8 430.5,111.4 429.4,111.9 428,111.7 428.2,112.8 429.7,113.1 
						430.7,113.1 					"/>
					<g id="XMLID_844_">
						<polygon id="XMLID_845_" class="st0" points="427.8,112.9 428.3,112.9 428.1,111.8 427.6,111.8 						"/>
					</g>
					<polygon id="XMLID_846_" class="st1" points="451.7,142.1 450.5,141.4 450.2,142.5 450.4,143.5 451.2,144.2 451.5,144.2 
						451.6,142.5 					"/>
					<polygon id="XMLID_838_" class="st1" points="447.7,141 441.2,137.5 440.7,139 440.5,140.7 440.8,142.1 441.2,142.8 
						447.6,146.4 447.1,145.5 447.1,143.7 447.4,141.6 					"/>
					<polygon id="XMLID_888_" class="st1" points="469.7,141.1 467.2,139.8 466.6,141.6 466.5,143.2 466.8,144.4 467.4,145.2 
						469.6,146.2 469,145 469.1,142.6 					"/>
					<polygon id="XMLID_889_" class="st1" points="469,109.8 467.9,109.1 467.9,121.2 468.2,121.6 469,122.2 					"/>
					<g id="XMLID_890_">
						<path id="XMLID_887_" class="st2" d="M479.4,109.5c0,0.7,0.5,1,1.1,0.6c0.6-0.3,1.1-1.2,1.1-1.8c0-0.7-0.5-1-1.1-0.6
							C479.9,108,479.4,108.8,479.4,109.5z"/>
						<path id="XMLID_891_" class="st2" d="M476.4,111.3c0,0.7,0.5,1,1.1,0.6c0.6-0.3,1.1-1.2,1.1-1.8c0-0.7-0.5-1-1.1-0.6
							C476.8,109.8,476.4,110.6,476.4,111.3z"/>
						<path id="XMLID_892_" class="st2" d="M473.4,113c0,0.7,0.5,1,1.1,0.6s1.1-1.2,1.1-1.8c0-0.7-0.5-1-1.1-0.6
							S473.4,112.4,473.4,113z"/>
					</g>
					<g id="XMLID_156_">
						<path id="XMLID_159_" class="st1" d="M480,109.7c0,0.7,0.5,1,1.1,0.6s1.1-1.2,1.1-1.8c0-0.7-0.5-1-1.1-0.6S480,109,480,109.7z
							"/>
						<path id="XMLID_158_" class="st1" d="M477,111.5c0,0.7,0.5,1,1.1,0.6s1.1-1.2,1.1-1.8c0-0.7-0.5-1-1.1-0.6
							S477,110.8,477,111.5z"/>
						<path id="XMLID_157_" class="st1" d="M474,113.3c0,0.7,0.5,1,1.1,0.6c0.6-0.3,1.1-1.2,1.1-1.8c0-0.7-0.5-1-1.1-0.6
							C474.5,111.8,474,112.6,474,113.3z"/>
					</g>
				</g>
				<g id="XMLID_1682_">
					<path id="XMLID_1731_" class="st1" d="M476.7,160.1c-0.3,0.2-0.3,0.5,0,0.7c0.3,0.2,0.8,0.2,1.1,0c0.3-0.2,0.3-0.5,0-0.7
						C477.5,160,477,160,476.7,160.1z"/>
					<path id="XMLID_1730_" class="st1" d="M479.6,158.4c-0.3,0.2-0.3,0.5,0,0.7c0.3,0.2,0.8,0.2,1.1,0c0.3-0.2,0.3-0.5,0-0.7
						C480.4,158.2,479.9,158.2,479.6,158.4z"/>
					<path id="XMLID_1728_" class="st1" d="M482.5,156.7c-0.3,0.2-0.3,0.5,0,0.7c0.3,0.2,0.8,0.2,1.1,0c0.3-0.2,0.3-0.5,0-0.7
						C483.4,156.5,482.9,156.5,482.5,156.7z"/>
					<path id="XMLID_1727_" class="st1" d="M485.5,155c-0.3,0.2-0.3,0.5,0,0.7c0.3,0.2,0.8,0.2,1.1,0c0.3-0.2,0.3-0.5,0-0.7
						C486.3,154.8,485.8,154.8,485.5,155z"/>
					<path id="XMLID_1726_" class="st1" d="M464.8,166.7c-0.3,0.2-0.3,0.5,0,0.7c0.3,0.2,0.8,0.2,1.1,0c0.3-0.2,0.3-0.5,0-0.7
						C465.6,166.5,465.1,166.5,464.8,166.7z"/>
					<path id="XMLID_1725_" class="st1" d="M467.7,165c-0.3,0.2-0.3,0.5,0,0.7c0.3,0.2,0.8,0.2,1.1,0c0.3-0.2,0.3-0.5,0-0.7
						C468.5,164.8,468,164.8,467.7,165z"/>
					<path id="XMLID_1724_" class="st1" d="M470.6,163.3c-0.3,0.2-0.3,0.5,0,0.7s0.8,0.2,1.1,0c0.3-0.2,0.3-0.5,0-0.7
						C471.5,163.1,471,163.1,470.6,163.3z"/>
					<ellipse id="XMLID_1723_" class="st1" cx="474.2" cy="161.9" rx="0.8" ry="0.5"/>
					<path id="XMLID_1722_" class="st1" d="M473.7,158.4c-0.3,0.2-0.3,0.5,0,0.7c0.3,0.2,0.8,0.2,1.1,0c0.3-0.2,0.3-0.5,0-0.7
						C474.5,158.3,474,158.3,473.7,158.4z"/>
					<path id="XMLID_1710_" class="st1" d="M477.8,156.7c-0.3-0.2-0.8-0.2-1.1,0c-0.3,0.2-0.3,0.5,0,0.7c0.3,0.2,0.8,0.2,1.1,0
						C478.1,157.2,478.1,156.9,477.8,156.7z"/>
					<path id="XMLID_1709_" class="st1" d="M480.7,155c-0.3-0.2-0.8-0.2-1.1,0c-0.3,0.2-0.3,0.5,0,0.7c0.3,0.2,0.8,0.2,1.1,0
						S481,155.2,480.7,155z"/>
					<path id="XMLID_1708_" class="st1" d="M483.7,153.3c-0.3-0.2-0.8-0.2-1.1,0c-0.3,0.2-0.3,0.5,0,0.7c0.3,0.2,0.8,0.2,1.1,0
						C484,153.8,484,153.5,483.7,153.3z"/>
					<path id="XMLID_1706_" class="st1" d="M486.6,151.6c-0.3-0.2-0.8-0.2-1.1,0c-0.3,0.2-0.3,0.5,0,0.7c0.3,0.2,0.8,0.2,1.1,0
						C486.9,152.1,486.9,151.8,486.6,151.6z"/>
					<path id="XMLID_1705_" class="st1" d="M459.9,166.7c-0.3-0.2-0.8-0.2-1.1,0c-0.3,0.2-0.3,0.5,0,0.7c0.3,0.2,0.8,0.2,1.1,0
						C460.3,167.2,460.3,166.9,459.9,166.7z"/>
					<path id="XMLID_1704_" class="st1" d="M455.9,165c-0.3,0.2-0.3,0.5,0,0.7c0.3,0.2,0.8,0.2,1.1,0c0.3-0.2,0.3-0.5,0-0.7
						C456.7,164.8,456.2,164.8,455.9,165z"/>
					<path id="XMLID_1703_" class="st1" d="M452.9,163.3c-0.3,0.2-0.3,0.5,0,0.7c0.3,0.2,0.8,0.2,1.1,0c0.3-0.2,0.3-0.5,0-0.7
						C453.7,163.1,453.2,163.1,452.9,163.3z"/>
					<path id="XMLID_1702_" class="st1" d="M450,161.6c-0.3,0.2-0.3,0.5,0,0.7c0.3,0.2,0.8,0.2,1.1,0c0.3-0.2,0.3-0.5,0-0.7
						C450.8,161.4,450.3,161.4,450,161.6z"/>
					<path id="XMLID_1701_" class="st1" d="M447,159.9c-0.3,0.2-0.3,0.5,0,0.7c0.3,0.2,0.8,0.2,1.1,0c0.3-0.2,0.3-0.5,0-0.7
						C447.8,159.7,447.3,159.7,447,159.9z"/>
					<path id="XMLID_1700_" class="st1" d="M444.1,158.2c-0.3,0.2-0.3,0.5,0,0.7c0.3,0.2,0.8,0.2,1.1,0s0.3-0.5,0-0.7
						C444.9,158,444.4,158,444.1,158.2z"/>
					<path id="XMLID_1699_" class="st1" d="M462.9,165c-0.3-0.2-0.8-0.2-1.1,0c-0.3,0.2-0.3,0.5,0,0.7c0.3,0.2,0.8,0.2,1.1,0
						C463.2,165.4,463.2,165.2,462.9,165z"/>
					<path id="XMLID_1698_" class="st1" d="M458.8,163.3c-0.3,0.2-0.3,0.5,0,0.7c0.3,0.2,0.8,0.2,1.1,0c0.3-0.2,0.3-0.5,0-0.7
						C459.7,163.1,459.1,163.1,458.8,163.3z"/>
					<path id="XMLID_1697_" class="st1" d="M455.9,161.6c-0.3,0.2-0.3,0.5,0,0.7c0.3,0.2,0.8,0.2,1.1,0c0.3-0.2,0.3-0.5,0-0.7
						C456.7,161.4,456.2,161.4,455.9,161.6z"/>
					<path id="XMLID_1696_" class="st1" d="M452.9,159.9c-0.3,0.2-0.3,0.5,0,0.7c0.3,0.2,0.8,0.2,1.1,0c0.3-0.2,0.3-0.5,0-0.7
						C453.8,159.7,453.3,159.7,452.9,159.9z"/>
					<path id="XMLID_1695_" class="st1" d="M450,158.2c-0.3,0.2-0.3,0.5,0,0.7c0.3,0.2,0.8,0.2,1.1,0c0.3-0.2,0.3-0.5,0-0.7
						C450.8,158,450.3,158,450,158.2z"/>
					<path id="XMLID_1694_" class="st1" d="M447.1,156.5c-0.3,0.2-0.3,0.5,0,0.7c0.3,0.2,0.8,0.2,1.1,0c0.3-0.2,0.3-0.5,0-0.7
						C447.9,156.3,447.4,156.3,447.1,156.5z"/>
					<path id="XMLID_1693_" class="st1" d="M444.1,154.8c-0.3,0.2-0.3,0.5,0,0.7c0.3,0.2,0.8,0.2,1.1,0c0.3-0.2,0.3-0.5,0-0.7
						C444.9,154.6,444.4,154.6,444.1,154.8z"/>
					<path id="XMLID_1692_" class="st1" d="M465.9,163.3c-0.3-0.2-0.8-0.2-1.1,0c-0.3,0.2-0.3,0.5,0,0.7c0.3,0.2,0.8,0.2,1.1,0
						C466.2,163.7,466.2,163.5,465.9,163.3z"/>
					<path id="XMLID_1691_" class="st1" d="M461.8,161.6c-0.3,0.2-0.3,0.5,0,0.7s0.8,0.2,1.1,0s0.3-0.5,0-0.7
						C462.6,161.4,462.1,161.4,461.8,161.6z"/>
					<path id="XMLID_1690_" class="st1" d="M458.8,159.9c-0.3,0.2-0.3,0.5,0,0.7c0.3,0.2,0.8,0.2,1.1,0c0.3-0.2,0.3-0.5,0-0.7
						C459.7,159.7,459.1,159.7,458.8,159.9z"/>
					<path id="XMLID_1689_" class="st1" d="M455.9,158.2c-0.3,0.2-0.3,0.5,0,0.7c0.3,0.2,0.8,0.2,1.1,0c0.3-0.2,0.3-0.5,0-0.7
						C456.7,158,456.2,158,455.9,158.2z"/>
					<path id="XMLID_1688_" class="st1" d="M452.9,156.5c-0.3,0.2-0.3,0.5,0,0.7c0.3,0.2,0.8,0.2,1.1,0c0.3-0.2,0.3-0.5,0-0.7
						C453.8,156.3,453.3,156.3,452.9,156.5z"/>
					<path id="XMLID_1687_" class="st1" d="M450,154.8c-0.3,0.2-0.3,0.5,0,0.7c0.3,0.2,0.8,0.2,1.1,0c0.3-0.2,0.3-0.5,0-0.7
						C450.8,154.6,450.3,154.6,450,154.8z"/>
					<ellipse id="XMLID_1685_" class="st1" cx="447.6" cy="153.4" rx="0.8" ry="0.5"/>
					<path id="XMLID_1684_" class="st1" d="M468.8,161.6c-0.3-0.2-0.8-0.2-1.1,0c-0.3,0.2-0.3,0.5,0,0.7c0.3,0.2,0.8,0.2,1.1,0
						C469.1,162,469.1,161.8,468.8,161.6z"/>
					<path id="XMLID_1683_" class="st1" d="M471.8,159.9c-0.3-0.2-0.8-0.2-1.1,0c-0.3,0.2-0.3,0.5,0,0.7c0.3,0.2,0.8,0.2,1.1,0
						C472.1,160.3,472.1,160.1,471.8,159.9z"/>
				</g>
			</g>
			<g id="XMLID_85_">
				<g id="XMLID_1797_">
					<g id="XMLID_1770_">
						<g id="XMLID_8480_">
							<path id="XMLID_8456_" class="st1" d="M404.9,197.2c-0.3,0.2-0.3,0.5,0,0.7c0.3,0.2,0.8,0.2,1.1,0c0.3-0.2,0.3-0.5,0-0.7
								C405.7,197,405.2,197,404.9,197.2z"/>
							<path id="XMLID_8455_" class="st1" d="M402,195.5c-0.3,0.2-0.3,0.5,0,0.7c0.3,0.2,0.8,0.2,1.1,0c0.3-0.2,0.3-0.5,0-0.7
								C402.8,195.3,402.3,195.3,402,195.5z"/>
							<path id="XMLID_8454_" class="st1" d="M399,193.8c-0.3,0.2-0.3,0.5,0,0.7c0.3,0.2,0.8,0.2,1.1,0c0.3-0.2,0.3-0.5,0-0.7
								C399.8,193.6,399.3,193.6,399,193.8z"/>
							<path id="XMLID_8453_" class="st1" d="M396.1,192.1c-0.3,0.2-0.3,0.5,0,0.7c0.3,0.2,0.8,0.2,1.1,0c0.3-0.2,0.3-0.5,0-0.7
								C396.9,191.9,396.4,191.9,396.1,192.1z"/>
							<path id="XMLID_8452_" class="st1" d="M393.1,190.4c-0.3,0.2-0.3,0.5,0,0.7c0.3,0.2,0.8,0.2,1.1,0c0.3-0.2,0.3-0.5,0-0.7
								C394,190.2,393.5,190.2,393.1,190.4z"/>
							<path id="XMLID_8451_" class="st1" d="M390.2,188.7c-0.3,0.2-0.3,0.5,0,0.7c0.3,0.2,0.8,0.2,1.1,0c0.3-0.2,0.3-0.5,0-0.7
								C391,188.5,390.5,188.5,390.2,188.7z"/>
							<path id="XMLID_8450_" class="st1" d="M387.2,187c-0.3,0.2-0.3,0.5,0,0.7c0.3,0.2,0.8,0.2,1.1,0c0.3-0.2,0.3-0.5,0-0.7
								C388.1,186.8,387.6,186.8,387.2,187z"/>
							<path id="XMLID_8449_" class="st1" d="M384.3,185.3c-0.3,0.2-0.3,0.5,0,0.7c0.3,0.2,0.8,0.2,1.1,0c0.3-0.2,0.3-0.5,0-0.7
								C385.1,185.1,384.6,185.1,384.3,185.3z"/>
							<path id="XMLID_8446_" class="st1" d="M410.8,197.2c-0.3,0.2-0.3,0.5,0,0.7c0.3,0.2,0.8,0.2,1.1,0c0.3-0.2,0.3-0.5,0-0.7
								C411.6,197,411.1,197,410.8,197.2z"/>
							<ellipse id="XMLID_8443_" class="st1" cx="408.4" cy="195.8" rx="0.8" ry="0.5"/>
							<path id="XMLID_8441_" class="st1" d="M404.9,193.8c-0.3,0.2-0.3,0.5,0,0.7c0.3,0.2,0.8,0.2,1.1,0c0.3-0.2,0.3-0.5,0-0.7
								C405.7,193.6,405.2,193.6,404.9,193.8z"/>
							<path id="XMLID_8440_" class="st1" d="M402,192.1c-0.3,0.2-0.3,0.5,0,0.7c0.3,0.2,0.8,0.2,1.1,0c0.3-0.2,0.3-0.5,0-0.7
								C402.8,191.9,402.3,191.9,402,192.1z"/>
							<path id="XMLID_8439_" class="st1" d="M399,190.4c-0.3,0.2-0.3,0.5,0,0.7c0.3,0.2,0.8,0.2,1.1,0c0.3-0.2,0.3-0.5,0-0.7
								C399.8,190.2,399.3,190.2,399,190.4z"/>
							<path id="XMLID_8438_" class="st1" d="M396.1,188.7c-0.3,0.2-0.3,0.5,0,0.7c0.3,0.2,0.8,0.2,1.1,0c0.3-0.2,0.3-0.5,0-0.7
								C396.9,188.5,396.4,188.5,396.1,188.7z"/>
							<path id="XMLID_8437_" class="st1" d="M393.1,187c-0.3,0.2-0.3,0.5,0,0.7c0.3,0.2,0.8,0.2,1.1,0c0.3-0.2,0.3-0.5,0-0.7
								C394,186.8,393.5,186.8,393.1,187z"/>
							<path id="XMLID_8436_" class="st1" d="M390.2,185.3c-0.3,0.2-0.3,0.5,0,0.7c0.3,0.2,0.8,0.2,1.1,0c0.3-0.2,0.3-0.5,0-0.7
								C391,185.1,390.5,185.1,390.2,185.3z"/>
							<path id="XMLID_8435_" class="st1" d="M387.2,183.6c-0.3,0.2-0.3,0.5,0,0.7c0.3,0.2,0.8,0.2,1.1,0c0.3-0.2,0.3-0.5,0-0.7
								C388.1,183.4,387.6,183.4,387.2,183.6z"/>
							<path id="XMLID_8428_" class="st1" d="M416.7,197.2c-0.3,0.2-0.3,0.5,0,0.7c0.3,0.2,0.8,0.2,1.1,0c0.3-0.2,0.3-0.5,0-0.7
								C417.5,197,417,197,416.7,197.2z"/>
							<ellipse id="XMLID_8427_" class="st1" cx="414.3" cy="195.8" rx="0.8" ry="0.5"/>
							<path id="XMLID_8426_" class="st1" d="M410.8,193.8c-0.3,0.2-0.3,0.5,0,0.7c0.3,0.2,0.8,0.2,1.1,0c0.3-0.2,0.3-0.5,0-0.7
								C411.6,193.6,411.1,193.6,410.8,193.8z"/>
							<ellipse id="XMLID_8425_" class="st1" cx="408.4" cy="192.4" rx="0.8" ry="0.5"/>
							<path id="XMLID_8424_" class="st1" d="M404.9,190.4c-0.3,0.2-0.3,0.5,0,0.7c0.3,0.2,0.8,0.2,1.1,0c0.3-0.2,0.3-0.5,0-0.7
								C405.7,190.2,405.2,190.2,404.9,190.4z"/>
							<path id="XMLID_8423_" class="st1" d="M402,188.7c-0.3,0.2-0.3,0.5,0,0.7c0.3,0.2,0.8,0.2,1.1,0c0.3-0.2,0.3-0.5,0-0.7
								C402.8,188.5,402.3,188.5,402,188.7z"/>
							<path id="XMLID_8422_" class="st1" d="M399,187c-0.3,0.2-0.3,0.5,0,0.7c0.3,0.2,0.8,0.2,1.1,0c0.3-0.2,0.3-0.5,0-0.7
								C399.8,186.8,399.3,186.8,399,187z"/>
							<path id="XMLID_8421_" class="st1" d="M396.1,185.3c-0.3,0.2-0.3,0.5,0,0.7c0.3,0.2,0.8,0.2,1.1,0c0.3-0.2,0.3-0.5,0-0.7
								C396.9,185.1,396.4,185.1,396.1,185.3z"/>
							<path id="XMLID_8420_" class="st1" d="M393.1,183.6c-0.3,0.2-0.3,0.5,0,0.7c0.3,0.2,0.8,0.2,1.1,0c0.3-0.2,0.3-0.5,0-0.7
								C394,183.4,393.5,183.4,393.1,183.6z"/>
							<path id="XMLID_8419_" class="st1" d="M390.2,181.9c-0.3,0.2-0.3,0.5,0,0.7c0.3,0.2,0.8,0.2,1.1,0c0.3-0.2,0.3-0.5,0-0.7
								C391,181.7,390.5,181.7,390.2,181.9z"/>
							<path id="XMLID_8394_" class="st1" d="M381.4,183.6c-0.3,0.2-0.3,0.5,0,0.7c0.3,0.2,0.8,0.2,1.1,0c0.3-0.2,0.3-0.5,0-0.7
								C382.2,183.4,381.7,183.4,381.4,183.6z"/>
							<path id="XMLID_8393_" class="st1" d="M378.4,181.9c-0.3,0.2-0.3,0.5,0,0.7c0.3,0.2,0.8,0.2,1.1,0c0.3-0.2,0.3-0.5,0-0.7
								C379.2,181.7,378.7,181.7,378.4,181.9z"/>
							<ellipse id="XMLID_8392_" class="st1" cx="376" cy="180.5" rx="0.8" ry="0.5"/>
							<path id="XMLID_8391_" class="st1" d="M372.5,178.5c-0.3,0.2-0.3,0.5,0,0.7c0.3,0.2,0.8,0.2,1.1,0c0.3-0.2,0.3-0.5,0-0.7
								C373.3,178.3,372.8,178.3,372.5,178.5z"/>
							<path id="XMLID_8390_" class="st1" d="M369.6,176.8c-0.3,0.2-0.3,0.5,0,0.7c0.3,0.2,0.8,0.2,1.1,0c0.3-0.2,0.3-0.5,0-0.7
								C370.4,176.6,369.9,176.6,369.6,176.8z"/>
							<ellipse id="XMLID_8389_" class="st1" cx="367.2" cy="175.4" rx="0.8" ry="0.5"/>
							<path id="XMLID_8388_" class="st1" d="M384.3,181.9c-0.3,0.2-0.3,0.5,0,0.7c0.3,0.2,0.8,0.2,1.1,0c0.3-0.2,0.3-0.5,0-0.7
								C385.1,181.7,384.6,181.7,384.3,181.9z"/>
							<path id="XMLID_8387_" class="st1" d="M381.4,180.2c-0.3,0.2-0.3,0.5,0,0.7c0.3,0.2,0.8,0.2,1.1,0c0.3-0.2,0.3-0.5,0-0.7
								C382.2,180,381.7,180,381.4,180.2z"/>
							<path id="XMLID_8386_" class="st1" d="M378.4,178.5c-0.3,0.2-0.3,0.5,0,0.7c0.3,0.2,0.8,0.2,1.1,0c0.3-0.2,0.3-0.5,0-0.7
								C379.2,178.3,378.7,178.3,378.4,178.5z"/>
							<path id="XMLID_8385_" class="st1" d="M375.5,176.8c-0.3,0.2-0.3,0.5,0,0.7c0.3,0.2,0.8,0.2,1.1,0c0.3-0.2,0.3-0.5,0-0.7
								C376.3,176.6,375.8,176.6,375.5,176.8z"/>
							<path id="XMLID_8384_" class="st1" d="M372.5,175.1c-0.3,0.2-0.3,0.5,0,0.7c0.3,0.2,0.8,0.2,1.1,0c0.3-0.2,0.3-0.5,0-0.7
								C373.3,174.9,372.8,174.9,372.5,175.1z"/>
							<path id="XMLID_8383_" class="st1" d="M369.6,173.4c-0.3,0.2-0.3,0.5,0,0.7c0.3,0.2,0.8,0.2,1.1,0c0.3-0.2,0.3-0.5,0-0.7
								C370.4,173.2,369.9,173.2,369.6,173.4z"/>
							<path id="XMLID_8381_" class="st1" d="M387.3,180.2c-0.3,0.2-0.3,0.5,0,0.7c0.3,0.2,0.8,0.2,1.1,0c0.3-0.2,0.3-0.5,0-0.7
								C388.1,180,387.6,180,387.3,180.2z"/>
							<ellipse id="XMLID_8380_" class="st1" cx="384.9" cy="178.8" rx="0.8" ry="0.5"/>
							<path id="XMLID_8379_" class="st1" d="M381.4,176.8c-0.3,0.2-0.3,0.5,0,0.7c0.3,0.2,0.8,0.2,1.1,0c0.3-0.2,0.3-0.5,0-0.7
								C382.2,176.6,381.7,176.6,381.4,176.8z"/>
							<path id="XMLID_8378_" class="st1" d="M378.4,175.1c-0.3,0.2-0.3,0.5,0,0.7c0.3,0.2,0.8,0.2,1.1,0c0.3-0.2,0.3-0.5,0-0.7
								C379.2,174.9,378.7,174.9,378.4,175.1z"/>
							<path id="XMLID_1859_" class="st1" d="M384.3,175.1c-0.3,0.2-0.3,0.5,0,0.7c0.3,0.2,0.8,0.2,1.1,0c0.3-0.2,0.3-0.5,0-0.7
								C385.1,174.9,384.6,174.9,384.3,175.1z"/>
							<path id="XMLID_1824_" class="st1" d="M381.4,173.4c-0.3,0.2-0.3,0.5,0,0.7c0.3,0.2,0.8,0.2,1.1,0c0.3-0.2,0.3-0.5,0-0.7
								C382.2,173.2,381.7,173.2,381.4,173.4z"/>
							<path id="XMLID_8377_" class="st1" d="M375.5,173.4c-0.3,0.2-0.3,0.5,0,0.7c0.3,0.2,0.8,0.2,1.1,0c0.3-0.2,0.3-0.5,0-0.7
								C376.3,173.2,375.8,173.2,375.5,173.4z"/>
							<path id="XMLID_8376_" class="st1" d="M372.5,171.7c-0.3,0.2-0.3,0.5,0,0.7c0.3,0.2,0.8,0.2,1.1,0c0.3-0.2,0.3-0.5,0-0.7
								C373.3,171.5,372.8,171.5,372.5,171.7z"/>
						</g>
						<g id="XMLID_1796_">
							<path id="XMLID_1871_" class="st1" d="M363.7,173.4c-0.3,0.2-0.3,0.5,0,0.7c0.3,0.2,0.8,0.2,1.1,0c0.3-0.2,0.3-0.5,0-0.7
								C364.5,173.2,364,173.2,363.7,173.4z"/>
							<path id="XMLID_1870_" class="st1" d="M360.7,171.7c-0.3,0.2-0.3,0.5,0,0.7c0.3,0.2,0.8,0.2,1.1,0c0.3-0.2,0.3-0.5,0-0.7
								C361.6,171.5,361,171.5,360.7,171.7z"/>
							<path id="XMLID_1869_" class="st1" d="M357.8,170c-0.3,0.2-0.3,0.5,0,0.7c0.3,0.2,0.8,0.2,1.1,0c0.3-0.2,0.3-0.5,0-0.7
								C358.6,169.8,358.1,169.8,357.8,170z"/>
							<ellipse id="XMLID_1868_" class="st1" cx="355.4" cy="168.6" rx="0.8" ry="0.5"/>
							<path id="XMLID_1867_" class="st1" d="M351.9,166.6c-0.3,0.2-0.3,0.5,0,0.7c0.3,0.2,0.8,0.2,1.1,0c0.3-0.2,0.3-0.5,0-0.7
								C352.7,166.4,352.2,166.4,351.9,166.6z"/>
							<path id="XMLID_1866_" class="st1" d="M349,164.9c-0.3,0.2-0.3,0.5,0,0.7c0.3,0.2,0.8,0.2,1.1,0c0.3-0.2,0.3-0.5,0-0.7
								C349.8,164.7,349.3,164.7,349,164.9z"/>
							<ellipse id="XMLID_1862_" class="st1" cx="346.6" cy="163.5" rx="0.8" ry="0.5"/>
							<path id="XMLID_1861_" class="st1" d="M343.1,161.5c-0.3,0.2-0.3,0.5,0,0.7c0.3,0.2,0.8,0.2,1.1,0c0.3-0.2,0.3-0.5,0-0.7
								C343.9,161.3,343.4,161.3,343.1,161.5z"/>
							<path id="XMLID_1858_" class="st1" d="M366.6,171.7c-0.3,0.2-0.3,0.5,0,0.7c0.3,0.2,0.8,0.2,1.1,0c0.3-0.2,0.3-0.5,0-0.7
								C367.4,171.5,366.9,171.5,366.6,171.7z"/>
							<ellipse id="XMLID_1857_" class="st1" cx="364.2" cy="170.3" rx="0.8" ry="0.5"/>
							<path id="XMLID_1856_" class="st1" d="M360.7,168.3c-0.3,0.2-0.3,0.5,0,0.7c0.3,0.2,0.8,0.2,1.1,0c0.3-0.2,0.3-0.5,0-0.7
								C361.6,168.1,361,168.1,360.7,168.3z"/>
							<path id="XMLID_1855_" class="st1" d="M357.8,166.6c-0.3,0.2-0.3,0.5,0,0.7c0.3,0.2,0.8,0.2,1.1,0c0.3-0.2,0.3-0.5,0-0.7
								C358.6,166.4,358.1,166.4,357.8,166.6z"/>
							<path id="XMLID_1854_" class="st1" d="M354.8,164.9c-0.3,0.2-0.3,0.5,0,0.7c0.3,0.2,0.8,0.2,1.1,0c0.3-0.2,0.3-0.5,0-0.7
								C355.7,164.7,355.2,164.7,354.8,164.9z"/>
							<path id="XMLID_1853_" class="st1" d="M351.9,163.2c-0.3,0.2-0.3,0.5,0,0.7c0.3,0.2,0.8,0.2,1.1,0c0.3-0.2,0.3-0.5,0-0.7
								C352.7,163,352.2,163,351.9,163.2z"/>
							<path id="XMLID_1852_" class="st1" d="M349,161.5c-0.3,0.2-0.3,0.5,0,0.7c0.3,0.2,0.8,0.2,1.1,0c0.3-0.2,0.3-0.5,0-0.7
								C349.8,161.3,349.3,161.3,349,161.5z"/>
							<path id="XMLID_1851_" class="st1" d="M346,159.8c-0.3,0.2-0.3,0.5,0,0.7c0.3,0.2,0.8,0.2,1.1,0c0.3-0.2,0.3-0.5,0-0.7
								C346.8,159.6,346.3,159.6,346,159.8z"/>
							<path id="XMLID_1850_" class="st1" d="M343.1,158.1c-0.3,0.2-0.3,0.5,0,0.7c0.3,0.2,0.8,0.2,1.1,0c0.3-0.2,0.3-0.5,0-0.7
								C343.9,157.9,343.4,157.9,343.1,158.1z"/>
							<path id="XMLID_1823_" class="st1" d="M369.6,170c-0.3,0.2-0.3,0.5,0,0.7c0.3,0.2,0.8,0.2,1.1,0c0.3-0.2,0.3-0.5,0-0.7
								C370.4,169.8,369.9,169.8,369.6,170z"/>
							<path id="XMLID_1822_" class="st1" d="M366.6,168.3c-0.3,0.2-0.3,0.5,0,0.7c0.3,0.2,0.8,0.2,1.1,0c0.3-0.2,0.3-0.5,0-0.7
								C367.4,168.1,366.9,168.1,366.6,168.3z"/>
							<ellipse id="XMLID_1821_" class="st1" cx="364.2" cy="166.9" rx="0.8" ry="0.5"/>
							<path id="XMLID_1820_" class="st1" d="M360.7,164.9c-0.3,0.2-0.3,0.5,0,0.7c0.3,0.2,0.8,0.2,1.1,0c0.3-0.2,0.3-0.5,0-0.7
								C361.6,164.7,361,164.7,360.7,164.9z"/>
							<path id="XMLID_1819_" class="st1" d="M357.8,163.2c-0.3,0.2-0.3,0.5,0,0.7c0.3,0.2,0.8,0.2,1.1,0c0.3-0.2,0.3-0.5,0-0.7
								C358.6,163,358.1,163,357.8,163.2z"/>
							<path id="XMLID_1818_" class="st1" d="M354.8,161.5c-0.3,0.2-0.3,0.5,0,0.7c0.3,0.2,0.8,0.2,1.1,0c0.3-0.2,0.3-0.5,0-0.7
								C355.7,161.3,355.2,161.3,354.8,161.5z"/>
							<path id="XMLID_1817_" class="st1" d="M351.9,159.8c-0.3,0.2-0.3,0.5,0,0.7c0.3,0.2,0.8,0.2,1.1,0c0.3-0.2,0.3-0.5,0-0.7
								C352.7,159.6,352.2,159.6,351.9,159.8z"/>
							<path id="XMLID_1816_" class="st1" d="M349,158.1c-0.3,0.2-0.3,0.5,0,0.7c0.3,0.2,0.8,0.2,1.1,0c0.3-0.2,0.3-0.5,0-0.7
								C349.8,157.9,349.3,157.9,349,158.1z"/>
							<path id="XMLID_1815_" class="st1" d="M346,156.4c-0.3,0.2-0.3,0.5,0,0.7c0.3,0.2,0.8,0.2,1.1,0c0.3-0.2,0.3-0.5,0-0.7
								C346.8,156.2,346.3,156.2,346,156.4z"/>
							<path id="XMLID_1814_" class="st1" d="M337.2,158.1c-0.3,0.2-0.3,0.5,0,0.7c0.3,0.2,0.8,0.2,1.1,0c0.3-0.2,0.3-0.5,0-0.7
								C338,157.9,337.5,157.9,337.2,158.1z"/>
							<path id="XMLID_1807_" class="st1" d="M337.2,154.7c-0.3,0.2-0.3,0.5,0,0.7c0.3,0.2,0.8,0.2,1.1,0c0.3-0.2,0.3-0.5,0-0.7
								C338,154.5,337.5,154.5,337.2,154.7z"/>
							<path id="XMLID_1802_" class="st1" d="M343.1,154.7c-0.3,0.2-0.3,0.5,0,0.7c0.3,0.2,0.8,0.2,1.1,0c0.3-0.2,0.3-0.5,0-0.7
								C343.9,154.5,343.4,154.5,343.1,154.7z"/>
							<path id="XMLID_1800_" class="st1" d="M337.2,151.3c-0.3,0.2-0.3,0.5,0,0.7c0.3,0.2,0.8,0.2,1.1,0c0.3-0.2,0.3-0.5,0-0.7
								C338,151.1,337.5,151.1,337.2,151.3z"/>
						</g>
					</g>
					<g id="XMLID_463_">
						<g id="XMLID_466_">
							<g id="XMLID_553_">
								<g id="XMLID_582_">
									<g id="XMLID_614_">
										<path id="XMLID_618_" class="st0" d="M387.2,146.8C387.2,146.8,387.2,146.7,387.2,146.8v-1.5l1.8,0.1l6.8-3.8
											c0.6-0.3,1.5-0.4,2-0.1l7.7,4.6l2.1,0.1l0,1.5v0.1c0,0,0,0,0,0c-0.1,0.2-0.2,0.4-0.5,0.5l-8.2,4.6c-0.6,0.3-1.5,0.4-2,0.1
											l-9.6-5.6C387.3,147.2,387.2,147,387.2,146.8L387.2,146.8L387.2,146.8z"/>
										<path id="XMLID_615_" class="st1" d="M397,153.1l-9.6-5.6c-0.3-0.2-0.4-0.4-0.5-0.7l0.3,0l-0.3,0l0-1.7l2,0.1l6.8-3.8
											c0.7-0.4,1.6-0.4,2.2-0.1l7.7,4.5l2.3,0.3v1.5v0.2l-0.1,0.2c-0.1,0.2-0.3,0.4-0.5,0.5l-8.2,4.6c-0.4,0.2-0.8,0.3-1.2,0.3
											C397.6,153.4,397.2,153.3,397,153.1z M407.5,146.4l-1.9-0.1l-7.9-4.6c-0.4-0.2-1.2-0.2-1.7,0.1l-6.8,3.8l-0.1,0l-1.6-0.1
											v1.2c0,0.1,0.1,0.2,0.2,0.3l9.6,5.6c0.4,0.2,1.2,0.2,1.7-0.1l8.2-4.6c0.2-0.1,0.3-0.2,0.3-0.4l0,0L407.5,146.4z"/>
									</g>
									<g id="XMLID_609_">
										<path id="XMLID_613_" class="st0" d="M387.5,145.8l9.6,5.6c0.5,0.3,1.4,0.3,2-0.1l8.2-4.6c0.6-0.3,0.6-0.8,0.1-1.1
											l-9.6-5.6c-0.5-0.3-1.4-0.3-2,0.1l-8.2,4.6C387.1,145,387,145.5,387.5,145.8z"/>
										<path id="XMLID_610_" class="st1" d="M397,151.6l-9.6-5.6c-0.3-0.2-0.5-0.4-0.5-0.7c0-0.3,0.2-0.6,0.6-0.9l8.2-4.6
											c0.7-0.4,1.6-0.4,2.2-0.1l9.6,5.6c0.3,0.2,0.5,0.4,0.5,0.7c0,0.3-0.2,0.6-0.6,0.9l-8.2,4.6c-0.4,0.2-0.8,0.3-1.2,0.3
											C397.6,151.9,397.2,151.8,397,151.6z M396,140.3l-8.2,4.6c-0.2,0.1-0.4,0.3-0.4,0.4c0,0.1,0.1,0.2,0.2,0.3l9.6,5.6
											c0.4,0.2,1.2,0.2,1.7-0.1l8.2-4.6c0.2-0.1,0.4-0.3,0.4-0.4c0-0.1-0.1-0.2-0.2-0.3l-9.6-5.6c-0.2-0.1-0.4-0.2-0.7-0.2
											C396.6,140,396.3,140.1,396,140.3z"/>
									</g>
									<g id="XMLID_601_">
										<path id="XMLID_608_" class="st0" d="M397.4,127.4L397.4,127.4c0.4-0.2,0.8-0.2,1.3,0.1l5.3,3.1c1.1,0.6,2,2.4,2,3.9v11.6
											l-7.9,4.6c0,0-6.5-13.7-6.6-14c-0.1-0.3-2.1-4.6-2.1-4.6L397.4,127.4z"/>
										<g id="XMLID_605_">
											<path id="XMLID_607_" class="st2" d="M397.1,148.3c0,0.1,1.2,1.2,2.7,2.7l-1.8,1c0,0-1.2-2.5-2.6-5.4
												C396.4,147.4,397.1,148.2,397.1,148.3z"/>
											<path id="XMLID_606_" class="st2" d="M397.4,128.8c0.4-0.2,0.8-0.2,1.3,0.1l5.3,3.1c1.1,0.6,2,2.4,2,3.9v0.2l-12.4,7.1
												c-1.3-2.7-2.1-4.9-2.1-5c-0.1-0.3-2.1-4.6-2.1-4.6L397.4,128.8z"/>
										</g>
										<path id="XMLID_602_" class="st1" d="M397.8,150.8c-2-4.1-6.5-13.8-6.6-14c-0.1-0.2-1.3-2.9-2.1-4.6l-0.1-0.2l8.2-4.8l0,0
											c0.4-0.2,1-0.2,1.5,0.1l5.3,3.1c1.2,0.7,2.1,2.5,2.1,4.1v11.7L398,151L397.8,150.8z M405.8,134.5c0-1.4-0.8-3-1.9-3.6
											l-5.3-3.1c-0.4-0.2-0.8-0.3-1-0.1l-7.8,4.5c0.6,1.2,2,4.2,2,4.4c0.1,0.4,4.6,9.8,6.4,13.7l7.6-4.4V134.5z"/>
									</g>
									<g id="XMLID_596_">
										<path id="XMLID_600_" class="st1" d="M388.8,145.2l9.3,5.4l0-11.6c0-1.5-0.9-3.2-2-3.9l-5.3-3.1c-1.1-0.6-2,0-2,1.5V145.2
											z"/>
										<path id="XMLID_597_" class="st1" d="M388.5,145.4v-11.7c0-0.9,0.3-1.5,0.8-1.8c0.4-0.3,1-0.2,1.6,0.1l5.3,3.1
											c1.2,0.7,2.1,2.5,2.1,4.1v12L388.5,145.4z M389.6,132.3c-0.4,0.2-0.6,0.7-0.6,1.4v11.4l8.8,5.1v-11.1c0-1.4-0.8-3-1.9-3.6
											l-5.3-3.1c-0.2-0.1-0.5-0.2-0.7-0.2C389.8,132.2,389.7,132.2,389.6,132.3z"/>
									</g>
									<g id="XMLID_588_">
										<path id="XMLID_595_" class="st0" d="M391.5,135.5C391.6,135.5,391.6,135.5,391.5,135.5L391.5,135.5L391.5,135.5
											c0.1-0.1,0.2,0,0.3,0l1.6,0.9c1.1,0.6,2,2.4,2,3.8c0,0.7-0.2,1.2-0.6,1.5l0,0l0,0c-0.1,0.1-0.2,0.1-0.3,0.2l-3.7,2.1
											l-2.1-4l-1.2-2.3L391.5,135.5z"/>
										<g id="XMLID_592_">
											<path id="XMLID_594_" class="st2" d="M389.2,142.1l-0.4-0.8l-1.2-2.3l4-2.2c0,0,0,0,0,0l0,0l0,0c0.1,0,0.1,0,0.2,0
												l1.6,0.9c0.5,0.3,0.9,0.7,1.2,1.3L389.2,142.1z"/>
											<polygon id="XMLID_593_" class="st2" points="391.7,144.2 392.2,144.6 390.9,145.3 389.9,143.3 											"/>
										</g>
										<path id="XMLID_589_" class="st1" d="M387.2,137.6l4.2-2.3c0,0,0.1,0,0.1-0.1l0.3,0c0.1,0,0.1,0,0.2,0.1l1.6,0.9
											c1.2,0.7,2.1,2.5,2.1,4c0,0.7-0.2,1.2-0.5,1.5l0,0.1l-0.2,0.1c-0.1,0.1-0.2,0.2-0.3,0.2l-4,2.2L387.2,137.6z M394.7,141.5
											c0.3-0.2,0.5-0.7,0.5-1.3c0-1.4-0.8-3-1.9-3.6l-1.6-0.9l-3.8,2.1l3,5.8l3.5-2C394.5,141.6,394.6,141.6,394.7,141.5
											L394.7,141.5z"/>
									</g>
									<g id="XMLID_583_">
										<path id="XMLID_587_" class="st0" d="M387.9,143l1.6,0.9c1.1,0.6,2,0,2-1.5l0,0c0-1.5-0.9-3.2-2-3.8l-1.6-0.9
											c-0.2-0.1-0.4,0-0.4,0.3l0,4.3C387.5,142.6,387.7,142.9,387.9,143z"/>
										<path id="XMLID_584_" class="st1" d="M389.3,144.1l-1.6-0.9c-0.3-0.2-0.5-0.6-0.5-1l0-4.3c0-0.2,0.1-0.4,0.3-0.5
											c0.2-0.1,0.3-0.1,0.5,0l1.6,0.9c1.2,0.7,2.1,2.5,2.1,4c0,0.9-0.3,1.5-0.8,1.8c-0.2,0.1-0.4,0.2-0.6,0.2
											C389.9,144.4,389.6,144.3,389.3,144.1z M387.7,138l0,4.3c0,0.2,0.1,0.5,0.3,0.5l1.6,0.9c0.4,0.2,0.8,0.3,1.1,0.1
											c0.4-0.2,0.6-0.7,0.6-1.4c0-1.4-0.8-3-1.9-3.6l-1.6-0.9C387.8,137.9,387.7,137.9,387.7,138z"/>
									</g>
								</g>
								<polygon id="XMLID_581_" class="st0" points="404.5,149.2 404.5,158.3 378.8,172.8 378.8,161.6 								"/>
								<g id="XMLID_575_">
									<polygon id="XMLID_580_" class="st1" points="378.8,172.8 322.9,140.8 322.9,128.7 378.8,161.6 									"/>
									<path id="XMLID_576_" class="st1" d="M322.7,128.2V141l0.1,0.1l56,32l26-14.6v-9.7l-26,12.6L322.7,128.2z M379,172.3v-10.5
										l25.2-12.2v8.6L379,172.3z M323.2,129.1l55.4,32.7v10.6l-55.4-31.6V129.1z"/>
								</g>
								<g id="XMLID_569_">
									<path id="XMLID_574_" class="st0" d="M319.8,127.2l24.1-13.6l0.9-0.3c0.4-0.2,0.8-0.1,1.3,0.2l58.2,33.6
										c1.2,0.7,2.1,2.5,2.1,4.1c0,0.7-0.2,1.2-0.5,1.5l0,0l0,0c-0.2,0.2-0.3,0.3-0.6,0.3l-24.6,13.7L319.8,127.2z"/>
									<path id="XMLID_573_" class="st2" d="M378.8,164.4l-59-34.7l24.1-13.6l0.9-0.3c0.4-0.2,0.8-0.1,1.3,0.2l58.2,33.6
										c0.3,0.2,0.5,0.4,0.8,0.7L378.8,164.4z"/>
									<path id="XMLID_570_" class="st1" d="M319.6,127.4l-0.3-0.2l24.5-13.8l0.8-0.3c0.3-0.1,0.9-0.2,1.5,0.2l58.2,33.6
										c1.3,0.7,2.3,2.7,2.3,4.3c0,0.6-0.1,1.1-0.4,1.5L406,153l0,0c-0.2,0.2-0.4,0.3-0.6,0.3L380.8,167l-0.1,0.1L319.6,127.4z
										 M405.7,152.6c0.3-0.3,0.4-0.8,0.4-1.3c0-1.5-0.9-3.3-2-3.9l-58.2-33.6c-0.4-0.2-0.8-0.3-1.1-0.1l-0.8,0.3l-23.7,13.4
										l60.5,39.2l24.5-13.6l0.1,0C405.4,152.8,405.6,152.7,405.7,152.6L405.7,152.6L405.7,152.6z"/>
								</g>
								<g id="XMLID_564_">
									<path id="XMLID_568_" class="st1" d="M320.9,127.4l58.2,33.6c1.2,0.7,2.1,2.5,2.1,4.1c0,1.6-1,2.3-2.2,1.6l-58.2-33.6
										c-1.2-0.7-2.1-2.5-2.1-4.1C318.8,127.5,319.7,126.7,320.9,127.4z"/>
									<path id="XMLID_565_" class="st1" d="M379,167l-58.2-33.6c-1.3-0.7-2.3-2.7-2.3-4.3c0-0.9,0.3-1.6,0.9-2
										c0.5-0.3,1.1-0.2,1.7,0.1l58.2,33.6c1.3,0.7,2.3,2.7,2.3,4.3c0,0.9-0.3,1.6-0.9,2c-0.2,0.1-0.4,0.2-0.7,0.2
										C379.7,167.3,379.3,167.2,379,167z M319.6,127.5c-0.4,0.2-0.6,0.8-0.6,1.5c0,1.5,0.9,3.3,2,3.9l58.2,33.6
										c0.4,0.3,0.8,0.3,1.2,0.1c0.4-0.2,0.6-0.8,0.6-1.5c0-1.5-0.9-3.3-2-3.9l-58.2-33.6l0,0c-0.3-0.2-0.5-0.2-0.7-0.2
										C319.9,127.4,319.8,127.5,319.6,127.5z"/>
								</g>
								<g id="XMLID_559_">
									<path id="XMLID_563_" class="st0" d="M377.1,163.1c0.2,0.8,0.8,1.6,1.5,1.8c0.6,0.2,1-0.2,0.9-1c-0.2-0.8-0.8-1.6-1.5-1.8
										C377.3,161.9,376.9,162.3,377.1,163.1z"/>
									<path id="XMLID_560_" class="st0" d="M378.5,165.1c-0.7-0.2-1.5-1.1-1.6-2v0c-0.1-0.5,0-0.9,0.3-1.2
										c0.2-0.2,0.6-0.3,0.9-0.1c0.7,0.2,1.5,1.1,1.6,2c0.1,0.5,0,0.9-0.3,1.2c-0.2,0.1-0.3,0.2-0.6,0.2
										C378.7,165.2,378.6,165.2,378.5,165.1z M377.4,162.4c-0.1,0.1-0.2,0.4-0.1,0.7c0.1,0.7,0.7,1.4,1.3,1.6
										c0.1,0,0.3,0.1,0.5,0c0.1-0.1,0.2-0.4,0.1-0.7c-0.1-0.7-0.7-1.4-1.3-1.6c-0.1,0-0.1,0-0.2,0
										C377.6,162.3,377.5,162.3,377.4,162.4z"/>
								</g>
								<g id="XMLID_554_">
									<path id="XMLID_558_" class="st0" d="M320.5,130.6c0.2,0.8,0.8,1.6,1.5,1.8c0.6,0.2,1-0.2,0.9-1c-0.2-0.8-0.8-1.6-1.5-1.8
										C320.8,129.3,320.4,129.8,320.5,130.6z"/>
									<path id="XMLID_555_" class="st0" d="M321.9,132.6c-0.7-0.2-1.5-1.1-1.6-2l0,0c-0.1-0.5,0-0.9,0.3-1.2
										c0.2-0.2,0.6-0.3,0.9-0.1c0.7,0.2,1.5,1.1,1.6,2c0.1,0.5,0,0.9-0.3,1.2c-0.2,0.1-0.3,0.2-0.6,0.2
										C322.2,132.6,322,132.6,321.9,132.6z M320.9,129.8c-0.1,0.1-0.2,0.4-0.1,0.7v0c0.1,0.7,0.7,1.4,1.3,1.6
										c0.1,0,0.3,0.1,0.5,0c0.1-0.1,0.2-0.4,0.1-0.7c-0.1-0.7-0.7-1.4-1.3-1.6c-0.1,0-0.1,0-0.2,0
										C321,129.8,320.9,129.8,320.9,129.8z"/>
								</g>
							</g>
							<g id="XMLID_467_">
								<g id="XMLID_489_">
									<g id="XMLID_550_">
										<g id="XMLID_551_">
											<polygon id="XMLID_552_" class="st1" points="376.2,159.3 401.1,145.3 400.3,144.8 375.5,158.9 											"/>
										</g>
									</g>
									<g id="XMLID_547_">
										<g id="XMLID_548_">
											<polygon id="XMLID_549_" class="st1" points="370.7,156 395.5,142 394.7,141.6 369.9,155.6 											"/>
										</g>
									</g>
									<g id="XMLID_515_">
										<g id="XMLID_545_">
											<polygon id="XMLID_546_" class="st1" points="365.1,152.9 390,138.8 389.2,138.4 364.4,152.4 											"/>
										</g>
									</g>
									<g id="XMLID_510_">
										<g id="XMLID_511_">
											<polygon id="XMLID_514_" class="st1" points="359.5,149.6 384.4,135.6 383.6,135.2 358.8,149.2 											"/>
										</g>
									</g>
									<g id="XMLID_490_">
										<g id="XMLID_491_">
											<polygon id="XMLID_509_" class="st1" points="354,146.5 378.9,132.4 378.1,132 353.2,146 											"/>
										</g>
									</g>
								</g>
								<g id="XMLID_485_">
									<g id="XMLID_486_">
										<polygon id="XMLID_487_" class="st1" points="348.4,143.2 373.2,129.2 372.4,128.8 347.7,142.8 										"/>
									</g>
								</g>
								<g id="XMLID_481_">
									<g id="XMLID_482_">
										<polygon id="XMLID_483_" class="st1" points="342.8,140.1 367.7,126 366.9,125.6 342.1,139.6 										"/>
									</g>
								</g>
								<g id="XMLID_477_">
									<g id="XMLID_478_">
										<polygon id="XMLID_479_" class="st1" points="337.3,136.8 362.1,122.8 361.3,122.4 336.5,136.4 										"/>
									</g>
								</g>
								<g id="XMLID_473_">
									<g id="XMLID_474_">
										<polygon id="XMLID_475_" class="st1" points="331.7,133.7 356.6,119.6 355.8,119.2 331,133.2 										"/>
									</g>
								</g>
								<g id="XMLID_469_">
									<g id="XMLID_470_">
										<polygon id="XMLID_471_" class="st1" points="326.1,130.4 351,116.4 350.2,116 325.4,130 										"/>
									</g>
								</g>
							</g>
						</g>
						<polygon id="XMLID_465_" class="st0" points="323.5,135 323.5,134.5 378.3,166 378.3,166.6 						"/>
					</g>
					<g id="XMLID_455_">
						<g id="XMLID_1686_">
							<g id="XMLID_1556_">
								<g id="XMLID_1564_">
									<g id="XMLID_1570_">
										<path id="XMLID_536_" class="st0" d="M451.2,183.7C451.2,183.7,451.2,183.7,451.2,183.7v-1.5l1.8,0.1l6.8-3.8
											c0.6-0.3,1.5-0.4,2-0.1l7.7,4.6l2.1,0.1l0,1.5v0.1c0,0,0,0,0,0c-0.1,0.2-0.2,0.4-0.5,0.5l-8.2,4.6c-0.6,0.3-1.5,0.4-2,0.1
											l-9.6-5.6C451.3,184.1,451.2,183.9,451.2,183.7L451.2,183.7L451.2,183.7z"/>
										<path id="XMLID_537_" class="st1" d="M460.9,190.1l-9.6-5.6c-0.3-0.2-0.4-0.4-0.5-0.7l0.3,0l-0.3,0l0-1.7l2,0.1l6.8-3.8
											c0.7-0.4,1.6-0.4,2.2-0.1l7.7,4.5l2.3,0.3v1.5v0.2l-0.1,0.2c-0.1,0.2-0.3,0.4-0.5,0.5l-8.2,4.6c-0.4,0.2-0.8,0.3-1.2,0.3
											C461.6,190.3,461.2,190.2,460.9,190.1z M471.5,183.3l-1.9-0.1l-7.9-4.6c-0.4-0.2-1.2-0.2-1.7,0.1l-6.8,3.8l-0.1,0
											l-1.6-0.1v1.2c0,0.1,0.1,0.2,0.2,0.3l9.6,5.6c0.4,0.2,1.2,0.2,1.7-0.1l8.2-4.6c0.2-0.1,0.3-0.2,0.3-0.4l0,0L471.5,183.3z"
											/>
									</g>
									<g id="XMLID_1569_">
										<path id="XMLID_532_" class="st0" d="M451.5,182.7l9.6,5.6c0.5,0.3,1.4,0.3,2-0.1l8.2-4.6c0.6-0.3,0.6-0.8,0.1-1.1
											l-9.6-5.6c-0.5-0.3-1.4-0.3-2,0.1l-8.2,4.6C451.1,181.9,451,182.4,451.5,182.7z"/>
										<path id="XMLID_533_" class="st1" d="M460.9,188.6l-9.6-5.6c-0.3-0.2-0.5-0.4-0.5-0.7c0-0.3,0.2-0.6,0.6-0.9l8.2-4.6
											c0.7-0.4,1.6-0.4,2.2-0.1l9.6,5.6c0.3,0.2,0.5,0.4,0.5,0.7c0,0.3-0.2,0.6-0.6,0.9l-8.2,4.6c-0.4,0.2-0.8,0.3-1.2,0.3
											C461.6,188.8,461.2,188.7,460.9,188.6z M460,177.2l-8.2,4.6c-0.2,0.1-0.4,0.3-0.4,0.4c0,0.1,0.1,0.2,0.2,0.3l9.6,5.6
											c0.4,0.2,1.2,0.2,1.7-0.1l8.2-4.6c0.2-0.1,0.4-0.3,0.4-0.4c0-0.1-0.1-0.2-0.2-0.3l-9.6-5.6c-0.2-0.1-0.4-0.2-0.7-0.2
											C460.6,177,460.3,177.1,460,177.2z"/>
									</g>
									<g id="XMLID_1568_">
										<path id="XMLID_528_" class="st0" d="M461.4,164.4L461.4,164.4c0.4-0.2,0.8-0.2,1.3,0.1l5.3,3.1c1.1,0.6,2,2.4,2,3.9V183
											l-7.9,4.6c0,0-6.5-13.7-6.6-14c-0.1-0.3-2.1-4.6-2.1-4.6L461.4,164.4z"/>
										<g id="XMLID_454_">
											<path id="XMLID_461_" class="st2" d="M461.1,185.2c0,0.1,1.2,1.2,2.7,2.7l-1.8,1c0,0-1.2-2.5-2.6-5.4
												C460.4,184.3,461.1,185.1,461.1,185.2z"/>
											<path id="XMLID_462_" class="st2" d="M461.4,165.7c0.4-0.2,0.8-0.2,1.3,0.1l5.3,3.1c1.1,0.6,2,2.4,2,3.9v0.2l-12.4,7.1
												c-1.3-2.7-2.1-4.9-2.1-5c-0.1-0.3-2.1-4.6-2.1-4.6L461.4,165.7z"/>
										</g>
										<path id="XMLID_529_" class="st1" d="M461.8,187.7c-2-4.1-6.5-13.8-6.6-14c-0.1-0.2-1.3-2.9-2.1-4.6l-0.1-0.2l8.2-4.8l0,0
											c0.4-0.2,1-0.2,1.5,0.1l5.3,3.1c1.2,0.7,2.1,2.5,2.1,4.1v11.7L462,188L461.8,187.7z M469.8,171.4c0-1.4-0.8-3-1.9-3.6
											l-5.3-3.1c-0.4-0.2-0.8-0.3-1-0.1l-7.8,4.5c0.6,1.2,2,4.2,2,4.4c0.1,0.4,4.6,9.8,6.4,13.7l7.6-4.4V171.4z"/>
									</g>
									<g id="XMLID_1567_">
										<path id="XMLID_524_" class="st1" d="M452.7,182.2l9.3,5.4V176c0-1.5-0.9-3.2-2-3.9l-5.3-3.1c-1.1-0.6-2,0-2,1.5V182.2z"
											/>
										<path id="XMLID_525_" class="st1" d="M452.5,182.3v-11.7c0-0.9,0.3-1.5,0.8-1.8c0.4-0.3,1-0.2,1.6,0.1l5.3,3.1
											c1.2,0.7,2.1,2.5,2.1,4.1v12L452.5,182.3z M453.6,169.2c-0.4,0.2-0.6,0.7-0.6,1.4V182l8.8,5.1V176c0-1.4-0.8-3-1.9-3.6
											l-5.3-3.1c-0.2-0.1-0.5-0.2-0.7-0.2C453.8,169.1,453.7,169.1,453.6,169.2z"/>
									</g>
									<g id="XMLID_1566_">
										<path id="XMLID_520_" class="st0" d="M455.5,172.4C455.6,172.4,455.6,172.4,455.5,172.4L455.5,172.4L455.5,172.4
											c0.1-0.1,0.2,0,0.3,0l1.6,0.9c1.1,0.6,2,2.4,2,3.8c0,0.7-0.2,1.2-0.6,1.5l0,0l0,0c-0.1,0.1-0.2,0.1-0.3,0.2l-3.7,2.1
											l-2.1-4l-1.2-2.3L455.5,172.4z"/>
										<g id="XMLID_453_">
											<path id="XMLID_457_" class="st2" d="M453.2,179l-0.4-0.8l-1.2-2.3l4-2.2c0,0,0,0,0,0l0,0l0,0c0.1,0,0.1,0,0.2,0l1.6,0.9
												c0.5,0.3,0.9,0.7,1.2,1.3L453.2,179z"/>
											<polygon id="XMLID_458_" class="st2" points="455.7,181.1 456.2,181.5 454.9,182.3 453.9,180.2 											"/>
										</g>
										<path id="XMLID_521_" class="st1" d="M451.2,174.5l4.2-2.3c0,0,0.1,0,0.1-0.1l0.3,0c0.1,0,0.1,0,0.2,0.1l1.6,0.9
											c1.2,0.7,2.1,2.5,2.1,4c0,0.7-0.2,1.2-0.5,1.5l0,0.1l-0.2,0.1c-0.1,0.1-0.2,0.2-0.3,0.2l-4,2.2L451.2,174.5z M458.7,178.5
											c0.3-0.2,0.5-0.7,0.5-1.3c0-1.4-0.8-3-1.9-3.6l-1.6-0.9l-3.8,2.1l3,5.8l3.5-2C458.5,178.6,458.6,178.5,458.7,178.5
											L458.7,178.5z"/>
									</g>
									<g id="XMLID_1565_">
										<path id="XMLID_516_" class="st0" d="M451.9,179.9l1.6,0.9c1.1,0.6,2,0,2-1.5l0,0c0-1.5-0.9-3.2-2-3.8l-1.6-0.9
											c-0.2-0.1-0.4,0-0.4,0.3l0,4.3C451.5,179.5,451.6,179.8,451.9,179.9z"/>
										<path id="XMLID_517_" class="st1" d="M453.3,181.1l-1.6-0.9c-0.3-0.2-0.5-0.6-0.5-1l0-4.3c0-0.2,0.1-0.4,0.3-0.5
											c0.2-0.1,0.3-0.1,0.5,0l1.6,0.9c1.2,0.7,2.1,2.5,2.1,4c0,0.9-0.3,1.5-0.8,1.8c-0.2,0.1-0.4,0.2-0.6,0.2
											C453.9,181.3,453.6,181.3,453.3,181.1z M451.7,174.9l0,4.3c0,0.2,0.1,0.5,0.3,0.5l1.6,0.9c0.4,0.2,0.8,0.3,1.1,0.1
											c0.4-0.2,0.6-0.7,0.6-1.4c0-1.4-0.8-3-1.9-3.6l-1.6-0.9C451.7,174.8,451.7,174.8,451.7,174.9z"/>
									</g>
								</g>
								<polygon id="XMLID_512_" class="st0" points="468.5,186.1 468.5,195.3 442.8,209.7 442.8,198.6 								"/>
								<g id="XMLID_1562_">
									<polygon id="XMLID_508_" class="st1" points="442.8,209.7 386.9,177.8 386.9,165.6 442.8,198.6 									"/>
									<path id="XMLID_543_" class="st1" d="M386.7,165.2v12.8l0.1,0.1l56,32l26-14.6v-9.7l-26,12.6L386.7,165.2z M443,209.3
										v-10.5l25.2-12.2v8.6L443,209.3z M387.2,166l55.4,32.7v10.6l-55.4-31.6V166z"/>
								</g>
								<g id="XMLID_1561_">
									<path id="XMLID_504_" class="st0" d="M383.7,164.2l24.1-13.6l0.9-0.3c0.4-0.2,0.8-0.1,1.3,0.2l58.2,33.6
										c1.2,0.7,2.1,2.5,2.1,4.1c0,0.7-0.2,1.2-0.5,1.5l0,0l0,0c-0.2,0.2-0.3,0.3-0.6,0.3l-24.6,13.7L383.7,164.2z"/>
									<path id="XMLID_513_" class="st2" d="M442.8,201.3l-59-34.7l24.1-13.6l0.9-0.3c0.4-0.2,0.8-0.1,1.3,0.2l58.2,33.6
										c0.3,0.2,0.5,0.4,0.8,0.7L442.8,201.3z"/>
									<path id="XMLID_505_" class="st1" d="M383.6,164.4l-0.3-0.2l24.5-13.8l0.8-0.3c0.3-0.1,0.9-0.2,1.5,0.2l58.2,33.6
										c1.3,0.7,2.3,2.7,2.3,4.3c0,0.6-0.1,1.1-0.4,1.5l-0.2,0.3l0,0c-0.2,0.2-0.4,0.3-0.6,0.3l-24.6,13.7l-0.1,0.1L383.6,164.4z
										 M469.7,189.5c0.3-0.3,0.4-0.8,0.4-1.3c0-1.5-0.9-3.3-2-3.9l-58.2-33.6c-0.4-0.2-0.8-0.3-1.1-0.1l-0.8,0.3l-23.7,13.4
										l60.5,39.2l24.5-13.6l0.1,0C469.4,189.7,469.6,189.6,469.7,189.5L469.7,189.5L469.7,189.5z"/>
								</g>
								<g id="XMLID_1560_">
									<path id="XMLID_500_" class="st1" d="M384.9,164.4l58.2,33.6c1.2,0.7,2.1,2.5,2.1,4.1c0,1.6-1,2.3-2.2,1.6l-58.2-33.6
										c-1.2-0.7-2.1-2.5-2.1-4.1C382.8,164.4,383.7,163.7,384.9,164.4z"/>
									<path id="XMLID_501_" class="st1" d="M443,203.9l-58.2-33.6c-1.3-0.7-2.3-2.7-2.3-4.3c0-0.9,0.3-1.6,0.9-2
										c0.5-0.3,1.1-0.2,1.7,0.1l58.2,33.6c1.3,0.7,2.3,2.7,2.3,4.3c0,0.9-0.3,1.6-0.9,2c-0.2,0.1-0.4,0.2-0.7,0.2
										C443.7,204.2,443.3,204.1,443,203.9z M383.6,164.5c-0.4,0.2-0.6,0.8-0.6,1.5c0,1.5,0.9,3.3,2,3.9l58.2,33.6
										c0.4,0.3,0.8,0.3,1.2,0.1c0.4-0.2,0.6-0.8,0.6-1.5c0-1.5-0.9-3.3-2-3.9l-58.2-33.6l0,0c-0.3-0.2-0.5-0.2-0.7-0.2
										C383.9,164.4,383.8,164.4,383.6,164.5z"/>
								</g>
								<g id="XMLID_1558_">
									<path id="XMLID_496_" class="st0" d="M441.1,200c0.2,0.8,0.8,1.6,1.5,1.8c0.6,0.2,1-0.2,0.9-1c-0.2-0.8-0.8-1.6-1.5-1.8
										C441.3,198.8,440.9,199.3,441.1,200z"/>
									<path id="XMLID_497_" class="st0" d="M442.5,202c-0.7-0.2-1.5-1.1-1.6-2v0c-0.1-0.5,0-0.9,0.3-1.2c0.2-0.2,0.6-0.3,0.9-0.1
										c0.7,0.2,1.5,1.1,1.6,2c0.1,0.5,0,0.9-0.3,1.2c-0.2,0.1-0.3,0.2-0.6,0.2C442.7,202.1,442.6,202.1,442.5,202z M441.4,199.3
										c-0.1,0.1-0.2,0.4-0.1,0.7c0.1,0.7,0.7,1.4,1.3,1.6c0.1,0,0.3,0.1,0.5,0c0.1-0.1,0.2-0.4,0.1-0.7c-0.1-0.7-0.7-1.4-1.3-1.6
										c-0.1,0-0.1,0-0.2,0C441.6,199.2,441.5,199.2,441.4,199.3z"/>
								</g>
								<g id="XMLID_1557_">
									<path id="XMLID_492_" class="st0" d="M384.5,167.5c0.2,0.8,0.8,1.6,1.5,1.8c0.6,0.2,1-0.2,0.9-1c-0.2-0.8-0.8-1.6-1.5-1.8
										C384.8,166.3,384.4,166.7,384.5,167.5z"/>
									<path id="XMLID_493_" class="st0" d="M385.9,169.5c-0.7-0.2-1.5-1.1-1.6-2l0,0c-0.1-0.5,0-0.9,0.3-1.2
										c0.2-0.2,0.6-0.3,0.9-0.1c0.7,0.2,1.5,1.1,1.6,2c0.1,0.5,0,0.9-0.3,1.2c-0.2,0.1-0.3,0.2-0.6,0.2
										C386.2,169.6,386,169.6,385.9,169.5z M384.9,166.8c-0.1,0.1-0.2,0.4-0.1,0.7v0c0.1,0.7,0.7,1.4,1.3,1.6
										c0.1,0,0.3,0.1,0.5,0c0.1-0.1,0.2-0.4,0.1-0.7c-0.1-0.7-0.7-1.4-1.3-1.6c-0.1,0-0.1,0-0.2,0
										C385,166.7,384.9,166.7,384.9,166.8z"/>
								</g>
							</g>
							<g id="XMLID_1_">
								<g id="XMLID_146_">
									<g id="XMLID_1397_">
										<g id="XMLID_1410_">
											<polygon id="XMLID_488_" class="st1" points="440.2,196.3 465.1,182.2 464.3,181.8 439.5,195.8 											"/>
										</g>
									</g>
									<g id="XMLID_1396_">
										<g id="XMLID_1409_">
											<polygon id="XMLID_484_" class="st1" points="434.7,193 459.5,179 458.7,178.5 433.9,192.5 											"/>
										</g>
									</g>
									<g id="XMLID_1398_">
										<g id="XMLID_1408_">
											<polygon id="XMLID_480_" class="st1" points="429.1,189.8 453.9,175.8 453.2,175.3 428.3,189.4 											"/>
										</g>
									</g>
									<g id="XMLID_1404_">
										<g id="XMLID_1407_">
											<polygon id="XMLID_476_" class="st1" points="423.5,186.6 448.4,172.6 447.6,172.1 422.8,186.1 											"/>
										</g>
									</g>
									<g id="XMLID_147_">
										<g id="XMLID_1406_">
											<polygon id="XMLID_472_" class="st1" points="418,183.4 442.9,169.4 442.1,168.9 417.2,183 											"/>
										</g>
									</g>
								</g>
								<g id="XMLID_143_">
									<g id="XMLID_145_">
										<polygon id="XMLID_468_" class="st1" points="412.4,180.1 437.2,166.1 436.4,165.7 411.6,179.7 										"/>
									</g>
								</g>
								<g id="XMLID_141_">
									<g id="XMLID_142_">
										<polygon id="XMLID_464_" class="st1" points="406.8,177 431.7,163 430.9,162.5 406.1,176.5 										"/>
									</g>
								</g>
								<g id="XMLID_139_">
									<g id="XMLID_140_">
										<polygon id="XMLID_460_" class="st1" points="401.3,173.8 426.1,159.7 425.3,159.3 400.5,173.3 										"/>
									</g>
								</g>
								<g id="XMLID_138_">
									<g id="XMLID_144_">
										<polygon id="XMLID_456_" class="st1" points="395.7,170.6 420.6,156.6 419.8,156.1 395,170.2 										"/>
									</g>
								</g>
								<g id="XMLID_136_">
									<g id="XMLID_137_">
										<polygon id="XMLID_153_" class="st1" points="390.1,167.4 415,153.3 414.2,152.9 389.4,166.9 										"/>
									</g>
								</g>
							</g>
						</g>
						<polygon id="XMLID_540_" class="st0" points="387.5,172 387.5,171.4 442.3,203 442.3,203.5 						"/>
					</g>
					<g id="XMLID_179_">
						<g id="XMLID_181_">
							<g id="XMLID_215_">
								<g id="XMLID_646_">
									<g id="XMLID_678_">
										<path id="XMLID_682_" class="st0" d="M515.1,220.5C515.1,220.4,515.1,220.4,515.1,220.5V219l1.8,0.1l6.8-3.8
											c0.6-0.3,1.5-0.4,2-0.1l7.7,4.6l2.1,0.1l0,1.5v0.1c0,0,0,0,0,0c-0.1,0.2-0.2,0.4-0.5,0.5l-8.2,4.6c-0.6,0.3-1.5,0.4-2,0.1
											l-9.6-5.6C515.2,220.8,515.1,220.7,515.1,220.5L515.1,220.5L515.1,220.5z"/>
										<path id="XMLID_679_" class="st1" d="M524.9,226.8l-9.6-5.6c-0.3-0.2-0.4-0.4-0.5-0.7l0.3,0l-0.3,0l0-1.7l2,0.1l6.8-3.8
											c0.7-0.4,1.6-0.4,2.2-0.1l7.7,4.5l2.3,0.3v1.5v0.2l-0.1,0.2c-0.1,0.2-0.3,0.4-0.5,0.5l-8.2,4.6c-0.4,0.2-0.8,0.3-1.2,0.3
											C525.5,227,525.1,227,524.9,226.8z M535.4,220l-1.9-0.1l-7.9-4.6c-0.4-0.2-1.2-0.2-1.7,0.1l-6.8,3.8l-0.1,0l-1.6-0.1v1.2
											c0,0.1,0.1,0.2,0.2,0.3l9.6,5.6c0.4,0.2,1.2,0.2,1.7-0.1l8.2-4.6c0.2-0.1,0.3-0.2,0.3-0.4l0,0L535.4,220z"/>
									</g>
									<g id="XMLID_673_">
										<path id="XMLID_677_" class="st0" d="M515.4,219.5l9.6,5.6c0.5,0.3,1.4,0.3,2-0.1l8.2-4.6c0.6-0.3,0.6-0.8,0.1-1.1
											l-9.6-5.6c-0.5-0.3-1.4-0.3-2,0.1l-8.2,4.6C515,218.7,514.9,219.2,515.4,219.5z"/>
										<path id="XMLID_674_" class="st1" d="M524.9,225.3l-9.6-5.6c-0.3-0.2-0.5-0.4-0.5-0.7c0-0.3,0.2-0.6,0.6-0.9l8.2-4.6
											c0.7-0.4,1.6-0.4,2.2-0.1l9.6,5.6c0.3,0.2,0.5,0.4,0.5,0.7c0,0.3-0.2,0.6-0.6,0.9l-8.2,4.6c-0.4,0.2-0.8,0.3-1.2,0.3
											C525.5,225.5,525.1,225.5,524.9,225.3z M523.9,214l-8.2,4.6c-0.2,0.1-0.4,0.3-0.4,0.4c0,0.1,0.1,0.2,0.2,0.3l9.6,5.6
											c0.4,0.2,1.2,0.2,1.7-0.1l8.2-4.6c0.2-0.1,0.4-0.3,0.4-0.4c0-0.1-0.1-0.2-0.2-0.3l-9.6-5.6c-0.2-0.1-0.4-0.2-0.7-0.2
											C524.5,213.7,524.2,213.8,523.9,214z"/>
									</g>
									<g id="XMLID_665_">
										<path id="XMLID_672_" class="st0" d="M525.3,201.1L525.3,201.1c0.4-0.2,0.8-0.2,1.3,0.1l5.3,3.1c1.1,0.6,2,2.4,2,3.9v11.6
											l-7.9,4.6c0,0-6.5-13.7-6.6-14c-0.1-0.3-2.1-4.6-2.1-4.6L525.3,201.1z"/>
										<g id="XMLID_669_">
											<path id="XMLID_671_" class="st2" d="M525.1,222c0,0.1,1.2,1.2,2.7,2.7l-1.8,1c0,0-1.2-2.5-2.6-5.4
												C524.3,221.1,525,221.8,525.1,222z"/>
											<path id="XMLID_670_" class="st2" d="M525.3,202.4c0.4-0.2,0.8-0.2,1.3,0.1l5.3,3.1c1.1,0.6,2,2.4,2,3.9v0.2l-12.4,7.1
												c-1.3-2.7-2.1-4.9-2.1-5c-0.1-0.3-2.1-4.6-2.1-4.6L525.3,202.4z"/>
										</g>
										<path id="XMLID_666_" class="st1" d="M525.7,224.4c-2-4.1-6.5-13.8-6.6-14c-0.1-0.2-1.3-2.9-2.1-4.6l-0.1-0.2l8.2-4.8l0,0
											c0.4-0.2,1-0.2,1.5,0.1l5.3,3.1c1.2,0.7,2.1,2.5,2.1,4.1v11.7l-8.3,4.8L525.7,224.4z M533.7,208.2c0-1.4-0.8-3-1.9-3.6
											l-5.3-3.1c-0.4-0.2-0.8-0.3-1-0.1l-7.8,4.5c0.6,1.2,2,4.2,2,4.4c0.1,0.4,4.6,9.8,6.4,13.7l7.6-4.4V208.2z"/>
									</g>
									<g id="XMLID_660_">
										<path id="XMLID_664_" class="st1" d="M516.7,218.9l9.3,5.4l0-11.6c0-1.5-0.9-3.2-2-3.9l-5.3-3.1c-1.1-0.6-2,0-2,1.5V218.9
											z"/>
										<path id="XMLID_661_" class="st1" d="M516.4,219.1v-11.7c0-0.9,0.3-1.5,0.8-1.8c0.4-0.3,1-0.2,1.6,0.1l5.3,3.1
											c1.2,0.7,2.1,2.5,2.1,4.1v12L516.4,219.1z M517.5,205.9c-0.4,0.2-0.6,0.7-0.6,1.4v11.4l8.8,5.1v-11.1c0-1.4-0.8-3-1.9-3.6
											l-5.3-3.1c-0.2-0.1-0.5-0.2-0.7-0.2C517.7,205.8,517.6,205.9,517.5,205.9z"/>
									</g>
									<g id="XMLID_652_">
										<path id="XMLID_659_" class="st0" d="M519.4,209.2C519.5,209.2,519.5,209.1,519.4,209.2L519.4,209.2L519.4,209.2
											c0.1-0.1,0.2,0,0.3,0l1.6,0.9c1.1,0.6,2,2.4,2,3.8c0,0.7-0.2,1.2-0.6,1.5l0,0l0,0c-0.1,0.1-0.2,0.1-0.3,0.2l-3.7,2.1
											l-2.1-4l-1.2-2.3L519.4,209.2z"/>
										<g id="XMLID_656_">
											<path id="XMLID_658_" class="st2" d="M517.1,215.7l-0.4-0.8l-1.2-2.3l4-2.2c0,0,0,0,0,0l0,0l0,0c0.1,0,0.1,0,0.2,0
												l1.6,0.9c0.5,0.3,0.9,0.7,1.2,1.3L517.1,215.7z"/>
											<polygon id="XMLID_657_" class="st2" points="519.6,217.8 520.1,218.2 518.8,219 517.8,217 											"/>
										</g>
										<path id="XMLID_653_" class="st1" d="M515.1,211.3l4.2-2.3c0,0,0.1,0,0.1-0.1l0.3,0c0.1,0,0.1,0,0.2,0.1l1.6,0.9
											c1.2,0.7,2.1,2.5,2.1,4c0,0.7-0.2,1.2-0.5,1.5l0,0.1l-0.2,0.1c-0.1,0.1-0.2,0.2-0.3,0.2l-4,2.2L515.1,211.3z M522.6,215.2
											c0.3-0.2,0.5-0.7,0.5-1.3c0-1.4-0.8-3-1.9-3.6l-1.6-0.9l-3.8,2.1l3,5.8l3.5-2C522.4,215.3,522.5,215.3,522.6,215.2
											L522.6,215.2z"/>
									</g>
									<g id="XMLID_647_">
										<path id="XMLID_651_" class="st0" d="M515.8,216.7l1.6,0.9c1.1,0.6,2,0,2-1.5l0,0c0-1.5-0.9-3.2-2-3.8l-1.6-0.9
											c-0.2-0.1-0.4,0-0.4,0.3l0,4.3C515.4,216.2,515.6,216.6,515.8,216.7z"/>
										<path id="XMLID_648_" class="st1" d="M517.2,217.8l-1.6-0.9c-0.3-0.2-0.5-0.6-0.5-1l0-4.3c0-0.2,0.1-0.4,0.3-0.5
											c0.2-0.1,0.3-0.1,0.5,0l1.6,0.9c1.2,0.7,2.1,2.5,2.1,4c0,0.9-0.3,1.5-0.8,1.8c-0.2,0.1-0.4,0.2-0.6,0.2
											C517.8,218.1,517.5,218,517.2,217.8z M515.6,211.6l0,4.3c0,0.2,0.1,0.5,0.3,0.5l1.6,0.9c0.4,0.2,0.8,0.3,1.1,0.1
											c0.4-0.2,0.6-0.7,0.6-1.4c0-1.4-0.8-3-1.9-3.6l-1.6-0.9C515.7,211.5,515.6,211.6,515.6,211.6z"/>
									</g>
								</g>
								<polygon id="XMLID_645_" class="st0" points="532.4,222.8 532.4,232 506.7,246.4 506.7,235.3 								"/>
								<g id="XMLID_639_">
									<polygon id="XMLID_644_" class="st1" points="506.7,246.4 450.8,214.5 450.8,202.3 506.7,235.3 									"/>
									<path id="XMLID_640_" class="st1" d="M450.6,201.9v12.8l0.1,0.1l56,32l26-14.6v-9.7l-26,12.6L450.6,201.9z M506.9,246
										v-10.5l25.2-12.2v8.6L506.9,246z M451.1,202.8l55.4,32.7V246l-55.4-31.6V202.8z"/>
								</g>
								<g id="XMLID_633_">
									<path id="XMLID_638_" class="st0" d="M447.7,200.9l24.1-13.6l0.9-0.3c0.4-0.2,0.8-0.1,1.3,0.2l58.2,33.6
										c1.2,0.7,2.1,2.5,2.1,4.1c0,0.7-0.2,1.2-0.5,1.5l0,0l0,0c-0.2,0.2-0.3,0.3-0.6,0.3l-24.6,13.7L447.7,200.9z"/>
									<path id="XMLID_637_" class="st2" d="M506.7,238l-59-34.7l24.1-13.6l0.9-0.3c0.4-0.2,0.8-0.1,1.3,0.2l58.2,33.6
										c0.3,0.2,0.5,0.4,0.8,0.7L506.7,238z"/>
									<path id="XMLID_634_" class="st1" d="M447.5,201.1l-0.3-0.2l24.5-13.8l0.8-0.3c0.3-0.1,0.9-0.2,1.5,0.2l58.2,33.6
										c1.3,0.7,2.3,2.7,2.3,4.3c0,0.6-0.1,1.1-0.4,1.5l-0.2,0.3l0,0c-0.2,0.2-0.4,0.3-0.6,0.3l-24.6,13.7l-0.1,0.1L447.5,201.1z
										 M533.6,226.2c0.3-0.3,0.4-0.8,0.4-1.3c0-1.5-0.9-3.3-2-3.9l-58.2-33.6c-0.4-0.2-0.8-0.3-1.1-0.1l-0.8,0.3l-23.7,13.4
										l60.5,39.2l24.5-13.6l0.1,0C533.3,226.5,533.5,226.4,533.6,226.2L533.6,226.2L533.6,226.2z"/>
								</g>
								<g id="XMLID_628_">
									<path id="XMLID_632_" class="st1" d="M448.8,201.1l58.2,33.6c1.2,0.7,2.1,2.5,2.1,4.1c0,1.6-1,2.3-2.2,1.6l-58.2-33.6
										c-1.2-0.7-2.1-2.5-2.1-4.1C446.7,201.1,447.6,200.4,448.8,201.1z"/>
									<path id="XMLID_629_" class="st1" d="M506.9,240.7l-58.2-33.6c-1.3-0.7-2.3-2.7-2.3-4.3c0-0.9,0.3-1.6,0.9-2
										c0.5-0.3,1.1-0.2,1.7,0.1l58.2,33.6c1.3,0.7,2.3,2.7,2.3,4.3c0,0.9-0.3,1.6-0.9,2c-0.2,0.1-0.4,0.2-0.7,0.2
										C507.6,240.9,507.2,240.8,506.9,240.7z M447.5,201.2c-0.4,0.2-0.6,0.8-0.6,1.5c0,1.5,0.9,3.3,2,3.9l58.2,33.6
										c0.4,0.3,0.8,0.3,1.2,0.1c0.4-0.2,0.6-0.8,0.6-1.5c0-1.5-0.9-3.3-2-3.9l-58.2-33.6l0,0c-0.3-0.2-0.5-0.2-0.7-0.2
										C447.8,201.1,447.7,201.1,447.5,201.2z"/>
								</g>
								<g id="XMLID_623_">
									<path id="XMLID_627_" class="st0" d="M505,236.8c0.2,0.8,0.8,1.6,1.5,1.8c0.6,0.2,1-0.2,0.9-1c-0.2-0.8-0.8-1.6-1.5-1.8
										C505.2,235.5,504.8,236,505,236.8z"/>
									<path id="XMLID_624_" class="st0" d="M506.4,238.8c-0.7-0.2-1.5-1.1-1.6-2v0c-0.1-0.5,0-0.9,0.3-1.2
										c0.2-0.2,0.6-0.3,0.9-0.1c0.7,0.2,1.5,1.1,1.6,2c0.1,0.5,0,0.9-0.3,1.2c-0.2,0.1-0.3,0.2-0.6,0.2
										C506.6,238.8,506.5,238.8,506.4,238.8z M505.3,236c-0.1,0.1-0.2,0.4-0.1,0.7c0.1,0.7,0.7,1.4,1.3,1.6c0.1,0,0.3,0.1,0.5,0
										c0.1-0.1,0.2-0.4,0.1-0.7c-0.1-0.7-0.7-1.4-1.3-1.6c-0.1,0-0.1,0-0.2,0C505.5,235.9,505.4,236,505.3,236z"/>
								</g>
								<g id="XMLID_459_">
									<path id="XMLID_622_" class="st0" d="M448.4,204.2c0.2,0.8,0.8,1.6,1.5,1.8c0.6,0.2,1-0.2,0.9-1c-0.2-0.8-0.8-1.6-1.5-1.8
										C448.7,203,448.3,203.5,448.4,204.2z"/>
									<path id="XMLID_619_" class="st0" d="M449.8,206.3c-0.7-0.2-1.5-1.1-1.6-2l0,0c-0.1-0.5,0-0.9,0.3-1.2
										c0.2-0.2,0.6-0.3,0.9-0.1c0.7,0.2,1.5,1.1,1.6,2c0.1,0.5,0,0.9-0.3,1.2c-0.2,0.1-0.3,0.2-0.6,0.2
										C450.1,206.3,449.9,206.3,449.8,206.3z M448.8,203.5c-0.1,0.1-0.2,0.4-0.1,0.7v0c0.1,0.7,0.7,1.4,1.3,1.6
										c0.1,0,0.3,0.1,0.5,0c0.1-0.1,0.2-0.4,0.1-0.7c-0.1-0.7-0.7-1.4-1.3-1.6c-0.1,0-0.1,0-0.2,0
										C448.9,203.4,448.8,203.4,448.8,203.5z"/>
								</g>
							</g>
							<g id="XMLID_182_">
								<g id="XMLID_198_">
									<g id="XMLID_212_">
										<g id="XMLID_213_">
											<polygon id="XMLID_214_" class="st1" points="504.1,233 529,218.9 528.2,218.5 503.4,232.5 											"/>
										</g>
									</g>
									<g id="XMLID_209_">
										<g id="XMLID_210_">
											<polygon id="XMLID_211_" class="st1" points="498.6,229.7 523.4,215.7 522.6,215.3 497.8,229.2 											"/>
										</g>
									</g>
									<g id="XMLID_206_">
										<g id="XMLID_207_">
											<polygon id="XMLID_208_" class="st1" points="493,226.5 517.9,212.5 517.1,212.1 492.3,226.1 											"/>
										</g>
									</g>
									<g id="XMLID_202_">
										<g id="XMLID_203_">
											<polygon id="XMLID_205_" class="st1" points="487.4,223.3 512.3,209.3 511.5,208.9 486.7,222.9 											"/>
										</g>
									</g>
									<g id="XMLID_199_">
										<g id="XMLID_200_">
											<polygon id="XMLID_201_" class="st1" points="481.9,220.2 506.8,206.1 506,205.7 481.1,219.7 											"/>
										</g>
									</g>
								</g>
								<g id="XMLID_195_">
									<g id="XMLID_196_">
										<polygon id="XMLID_197_" class="st1" points="476.3,216.9 501.1,202.9 500.4,202.4 475.6,216.4 										"/>
									</g>
								</g>
								<g id="XMLID_192_">
									<g id="XMLID_193_">
										<polygon id="XMLID_194_" class="st1" points="470.7,213.7 495.6,199.7 494.8,199.2 470,213.3 										"/>
									</g>
								</g>
								<g id="XMLID_189_">
									<g id="XMLID_190_">
										<polygon id="XMLID_191_" class="st1" points="465.2,210.5 490,196.5 489.2,196 464.4,210 										"/>
									</g>
								</g>
								<g id="XMLID_186_">
									<g id="XMLID_187_">
										<polygon id="XMLID_188_" class="st1" points="459.6,207.3 484.5,193.3 483.7,192.8 458.9,206.9 										"/>
									</g>
								</g>
								<g id="XMLID_183_">
									<g id="XMLID_184_">
										<polygon id="XMLID_185_" class="st1" points="454,204.1 478.9,190.1 478.1,189.6 453.3,203.7 										"/>
									</g>
								</g>
							</g>
						</g>
						<polygon id="XMLID_180_" class="st0" points="451.4,208.7 451.4,208.1 506.2,239.7 506.2,240.3 						"/>
					</g>
				</g>
				<g id="XMLID_683_">
					<polygon id="XMLID_694_" class="st2" points="353.1,124.2 369,115 384.9,124.2 384.9,124.2 384.9,142.5 369,151.7 369,133.4 
											"/>
					<polygon id="XMLID_693_" class="st0" points="384.9,142.5 369,151.6 369,133.3 384.9,124.1 384.9,124.1 					"/>
					<path id="XMLID_688_" class="st1" d="M352.8,124.4L352.8,124.4l0,18.3l0.2,0.1l15.7,9.1l0,0l0.3,0.2l0.3-0.2l0,0l15.9-9.2
						v-18.3l0,0l0-0.4v0l0,0l-16.1-9.3l-16.2,9.3L352.8,124.4z M384.2,124.2l-7.5,4.3l-15.2-8.8l7.5-4.3L384.2,124.2z M369.3,133.5
						l15.2-8.8v17.6l-15.2,8.8V133.5z M353.8,124.2l7.5-4.3l15.2,8.8L369,133l-6.5-3.7L353.8,124.2z"/>
					<path id="XMLID_685_" class="st1" d="M374.2,135.4c0,0.5,0.2,0.9,0.5,1c0.1,0.1,0.3,0.1,0.4,0.1c0.2,0,0.4-0.1,0.5-0.2l2.9-1.7
						c0.6-0.4,1.1-1.3,1.1-2.1c0-0.5-0.2-0.9-0.5-1c-0.3-0.2-0.6-0.1-0.9,0l-2.9,1.7C374.7,133.7,374.2,134.6,374.2,135.4z
						 M374.9,135.5l2.5-1.5c0.5-0.3,0.9-1,1-1.7l0.2-0.1c0.1,0,0.2-0.1,0.3,0c0.1,0,0.2,0.2,0.2,0.5c0,0.6-0.4,1.3-0.8,1.5l-2.9,1.7
						c-0.1,0-0.2,0.1-0.3,0C374.9,135.9,374.9,135.7,374.9,135.5z"/>
					<path id="XMLID_684_" class="st0" d="M355.4,137.2c0.1-0.1,0.3-0.1,0.5,0l2.3,1.4c0.3,0.2,0.6,0.7,0.6,1.2v2.5
						c0,0.3-0.1,0.5-0.3,0.6c-0.1,0-0.1,0.1-0.2,0.1c-0.1,0-0.2,0-0.3-0.1l-2.3-1.4h0c-0.3-0.2-0.6-0.7-0.6-1.2v-2.5
						C355.2,137.5,355.3,137.3,355.4,137.2z"/>
				</g>
				<g id="XMLID_696_">
					<g id="XMLID_698_">
						<polygon id="XMLID_705_" class="st0" points="428.1,179 437.9,173.3 437.9,162 428.1,167.7 						"/>
						<polygon id="XMLID_704_" class="st0" points="418.3,162 428.1,167.7 437.9,162 428.1,156.3 						"/>
						<polygon id="XMLID_703_" class="st2" points="418.3,163.1 427.1,168.2 436.9,162.5 428.1,157.5 						"/>
						<path id="XMLID_699_" class="st1" d="M418,161.8v0.3v11.3l9.8,5.7l0,0l0.3,0.2l0.3-0.2l0,0l9.8-5.7v-11.7l-0.3-0.2l-9.8-5.7
							L418,161.8z M437.3,162l-7.8,4.5l-1.4,0.8l-4.6-2.7l-4.6-2.7l9.2-5.3L437.3,162z M428.4,178.5v-10.7l9.2-5.3v10.7L428.4,178.5
							z"/>
					</g>
					<path id="XMLID_697_" class="st1" d="M430.4,175.6l1.5-0.9c0.2-0.1,0.4-0.5,0.4-0.8v-1.6c0-0.3-0.2-0.5-0.4-0.3l-1.5,0.9
						c-0.2,0.1-0.4,0.5-0.4,0.8v1.6C430,175.6,430.2,175.7,430.4,175.6z"/>
				</g>
			</g>
		</g>
	</g>
</g>
</svg>