<?xml version="1.0" encoding="utf-8"?>
<!-- Generator: Adobe Illustrator 24.0.2, SVG Export Plug-In . SVG Version: 6.00 Build 0)  -->
<svg version="1.1" id="Слой_1" xmlns="http://www.w3.org/2000/svg" xmlns:xlink="http://www.w3.org/1999/xlink" x="0px" y="0px"
	 viewBox="0 0 100.2 66.4" style="enable-background:new 0 0 100.2 66.4;" xml:space="preserve">
<style type="text/css">
	.st0{fill:#181818;}
	.st1{fill:#F7C800;}
	.st2{fill:#FFFFFF;}
</style>
<title>Схема раб-картинка</title>
<g id="Слой_2_1_">
	<g id="content">
		<g id="illustration">
			<path class="st0" d="M93.8,64.1c0.2,0.1,0.3,0.2,0.2,0.4c0,0.1-0.1,0.2-0.2,0.2c-0.4,0.2-0.8,0.2-1.1,0c-0.2-0.1-0.3-0.2-0.2-0.4
				c0-0.1,0.1-0.2,0.2-0.2C93,63.9,93.4,63.9,93.8,64.1z"/>
			<path class="st0" d="M96.7,62.4c0.2,0.1,0.3,0.2,0.2,0.4c0,0.1-0.1,0.2-0.2,0.2c-0.4,0.2-0.8,0.2-1.1,0c-0.2-0.1-0.3-0.2-0.2-0.4
				c0-0.1,0.1-0.2,0.2-0.2C95.9,62.2,96.3,62.2,96.7,62.4z"/>
			<path class="st0" d="M99.6,60.7c0.2,0.1,0.3,0.2,0.2,0.4c0,0.1-0.1,0.2-0.2,0.2c-0.4,0.2-0.8,0.2-1.1,0c-0.2-0.1-0.3-0.2-0.2-0.4
				c0-0.1,0.1-0.2,0.2-0.2C98.9,60.5,99.3,60.5,99.6,60.7z"/>
			<ellipse class="st0" cx="87.3" cy="64.4" rx="0.8" ry="0.5"/>
			<path class="st0" d="M90.8,62.4c0.2,0.1,0.3,0.2,0.2,0.4c0,0.1-0.1,0.2-0.2,0.2c-0.4,0.2-0.8,0.2-1.1,0c-0.2-0.1-0.3-0.2-0.2-0.4
				c0-0.1,0.1-0.2,0.2-0.2C90,62.2,90.4,62.2,90.8,62.4z"/>
			<ellipse class="st0" cx="93.2" cy="61" rx="0.8" ry="0.5"/>
			<path class="st0" d="M96.7,59c0.2,0.1,0.3,0.2,0.2,0.4c0,0.1-0.1,0.2-0.2,0.2c-0.4,0.2-0.8,0.2-1.1,0c-0.2-0.1-0.3-0.2-0.2-0.4
				c0-0.1,0.1-0.2,0.2-0.2C95.9,58.8,96.3,58.8,96.7,59z"/>
			<path class="st0" d="M99.6,57.3c0.2,0.1,0.3,0.2,0.2,0.4c0,0.1-0.1,0.2-0.2,0.2c-0.4,0.2-0.8,0.2-1.1,0c-0.3-0.2-0.3-0.5,0-0.6
				C98.9,57.1,99.3,57.1,99.6,57.3z"/>
			<ellipse class="st0" cx="84.3" cy="62.7" rx="0.8" ry="0.5"/>
			<path class="st0" d="M87.8,60.7c0.2,0.1,0.3,0.2,0.2,0.4c0,0.1-0.1,0.2-0.2,0.2c-0.4,0.2-0.8,0.2-1.1,0c-0.2-0.1-0.3-0.2-0.2-0.4
				c0-0.1,0.1-0.2,0.2-0.2C87.1,60.5,87.5,60.5,87.8,60.7z"/>
			<path class="st0" d="M82,60.7c0.3,0.2,0.3,0.5,0,0.6c-0.4,0.2-0.8,0.2-1.1,0c-0.2-0.1-0.3-0.2-0.2-0.4c0-0.1,0.1-0.2,0.2-0.2
				C81.2,60.5,81.6,60.5,82,60.7z"/>
			<path class="st0" d="M84.9,59c0.2,0.1,0.3,0.2,0.2,0.4c0,0.1-0.1,0.2-0.2,0.2c-0.4,0.2-0.8,0.2-1.1,0c-0.2-0.1-0.3-0.2-0.2-0.4
				c0-0.1,0.1-0.2,0.2-0.2C84.1,58.8,84.5,58.8,84.9,59z"/>
			<path class="st0" d="M82,57.3c0.3,0.2,0.3,0.5,0,0.6c-0.4,0.2-0.8,0.2-1.1,0c-0.2-0.1-0.3-0.2-0.2-0.4c0-0.1,0.1-0.2,0.2-0.2
				C81.2,57.1,81.6,57.1,82,57.3z"/>
			<polygon class="st1" points="90.1,60.4 80.3,54.8 80.3,43.5 90.1,49.1 			"/>
			<polygon class="st1" points="99.9,43.5 90.1,49.1 80.3,43.5 90.1,37.8 			"/>
			<polygon class="st2" points="99.9,44.6 91.1,49.6 81.3,44 90.1,38.9 			"/>
			<path class="st0" d="M90.1,37.4l-9.8,5.7L80,43.3v11.6l9.8,5.7l0,0l0.3,0.2l0.3-0.2l0,0l9.8-5.7V43.3L90.1,37.4z M90.1,38.1
				l9.2,5.3l-4.6,2.7l-4.6,2.7L88.7,48l-7.8-4.5L90.1,38.1z M80.5,54.6V43.9l9.2,5.3v10.7L80.5,54.6z"/>
			<path class="st0" d="M87.7,57.1l-1.5-0.9c-0.3-0.2-0.4-0.5-0.4-0.8v-1.6c0-0.3,0.2-0.5,0.4-0.3l1.5,0.9c0.3,0.2,0.4,0.5,0.4,0.8
				v1.6C88.1,57,88,57.2,87.7,57.1z"/>
			<path class="st1" d="M66.2,47.1L66.2,47.1c0.3,0,0.6-0.3,0.6-0.6l0.7-6.3c0-0.3-1-0.6-1.3-0.6l0,0c-0.3,0-0.6,0.9-0.6,1.3v5.7
				C65.6,46.8,65.9,47,66.2,47.1z"/>
			<path class="st0" d="M66.2,47.4L66.2,47.4c-0.5,0-0.9-0.4-0.9-0.9v-5.7c0-0.3,0.1-0.6,0.2-0.9c0.2-0.4,0.4-0.6,0.7-0.6l0,0
				c0.3,0,1.5,0.3,1.5,0.9L67,46.5C67,47,66.6,47.4,66.2,47.4z M66.2,39.8c-0.2,0.3-0.3,0.6-0.4,1v5.7c0,0.2,0.2,0.4,0.4,0.4l0,0
				c0.2,0,0.4-0.2,0.4-0.4l0.7-6.4C66.9,39.9,66.6,39.8,66.2,39.8L66.2,39.8z"/>
			<path class="st1" d="M69,40.2l2.2,3.1c0.1,0.2,0.1,0.3,0.1,0.5l-0.8,5.3c-0.1,0.3-0.3,0.6-0.6,0.8l0,0c-0.5,0.2-1.1-0.1-1.3-0.6
				c-0.1-0.2-0.1-0.3-0.1-0.5l0.6-4.4c0-0.1,0-0.3,0-0.4l-2.5-3.1c-0.2-0.5,0.6-1.1,1.1-1.3h0.1C68.3,39.5,68.8,39.7,69,40.2z"/>
			<path class="st0" d="M69.4,50.2c-0.3,0-0.6-0.1-0.8-0.3c-0.3-0.3-0.5-0.7-0.5-1.1l0.6-4.4c0-0.1,0-0.2,0-0.3L66.3,41
				c-0.1-0.2,0-0.5,0.1-0.6c0.3-0.4,0.7-0.8,1.2-0.9h0.1c0.6-0.2,1.3,0.1,1.5,0.7l2.2,3.1c0.1,0.2,0.1,0.5,0.1,0.7l-0.8,5.3
				c-0.1,0.4-0.4,0.8-0.8,1C69.7,50.2,69.6,50.2,69.4,50.2z M66.8,40.8l2.5,3.1c0.1,0.2,0.1,0.4,0,0.6l-0.6,4.4
				c0,0.3,0.1,0.5,0.3,0.7c0.2,0.2,0.5,0.2,0.7,0.1c0.2-0.1,0.4-0.3,0.5-0.6l0.8-5.3c0-0.1,0-0.3,0-0.4l-2.2-3.1
				c-0.1-0.4-0.5-0.6-0.9-0.4h-0.1c-0.4,0.1-0.7,0.4-0.9,0.7C66.8,40.6,66.7,40.7,66.8,40.8L66.8,40.8z"/>
			<path class="st0" d="M65.8,47.2l1,1.4c0.2,0.3,0.6,0.3,0.9,0.1l0,0c0.3-0.2,0.3-0.6,0.1-0.9l0,0l-1-1.4c-0.2-0.2-0.6-0.3-0.8-0.1
				l0,0C65.7,46.6,65.6,46.9,65.8,47.2z"/>
			<path class="st0" d="M67.3,49L67.3,49c-0.3,0-0.5-0.1-0.7-0.3l-1-1.4c-0.3-0.4-0.2-0.9,0.2-1.2C66,46,66.2,46,66.5,46
				c0.2,0,0.4,0.1,0.6,0.3l1,1.4c0.3,0.4,0.2,0.9-0.2,1.2l0,0C67.7,49,67.5,49,67.3,49z M66,47l1,1.4c0.1,0.1,0.1,0.1,0.2,0.1
				s0.2,0,0.3-0.1c0.2-0.1,0.2-0.3,0.1-0.5l-1-1.4c-0.1-0.1-0.1-0.1-0.2-0.1s-0.2,0-0.3,0.1C65.9,46.7,65.9,46.9,66,47L66,47z"/>
			<path class="st1" d="M1.6,48.1L1.6,48.1v-2.6l3.3,0.1l12.3-6.9c1.1-0.6,2.4-0.7,3.5-0.1l13.9,8.2l3.9,0.1v2.9l0,0
				c-0.1,0.4-0.4,0.7-0.8,0.9L23,59c-1.1,0.6-2.4,0.7-3.5,0.1L2.2,48.9C1.8,48.8,1.6,48.5,1.6,48.1L1.6,48.1L1.6,48.1z"/>
			<path class="st0" d="M20.8,59.7c-0.6,0-1.1-0.1-1.7-0.4L2,49.2c-0.4-0.2-0.7-0.6-0.7-1.1V48v-0.1v-2.8l3.5,0.1L17,38.5
				c1.2-0.7,2.5-0.7,3.8-0.1l13.8,8.2l4,0.2v3L38.5,50c-0.2,0.4-0.5,0.7-0.9,0.9L23,59.2C22.3,59.5,21.6,59.7,20.8,59.7z M1.8,45.7
				v2.4c0,0.3,0.2,0.5,0.5,0.6l17.1,10.1c1,0.5,2.3,0.4,3.3-0.1l14.7-8.3c0.3-0.2,0.6-0.4,0.7-0.8v-0.1V47l-3.7,0l-13.9-8.2
				c-1-0.5-2.2-0.4-3.3,0.1L5,45.8L1.8,45.7z"/>
			<path class="st1" d="M2.2,46.3l17.1,10.1c1.1,0.5,2.4,0.5,3.5-0.1L37.5,48c1-0.6,1.1-1.5,0.3-2L20.6,35.8
				c-1.1-0.5-2.4-0.5-3.5,0.1L2.4,44.2C1.4,44.8,1.3,45.7,2.2,46.3z"/>
			<path class="st2" d="M4.7,47.7l14.6,8.6c1.1,0.6,2.5,0.6,3.6,0.1l14.6-6.9c1-0.6,1.1-1.5,0.3-2L20.6,37.4
				c-1.1-0.5-2.4-0.5-3.5,0.1L2.4,45.8C1.4,46.4,3.8,47.2,4.7,47.7z"/>
			<path class="st0" d="M20.8,57c-0.6,0-1.1-0.1-1.7-0.4L2,46.5c-0.4-0.2-0.7-0.6-0.7-1.1c0.1-0.6,0.4-1.1,1-1.4L17,35.8
				c1.2-0.7,2.6-0.7,3.8-0.1l17.1,10.1c0.4,0.2,0.7,0.6,0.7,1.1c-0.1,0.6-0.4,1.1-1,1.4L23,56.5C22.3,56.8,21.6,57,20.8,57z
				 M19.1,35.7c-0.6,0-1.3,0.1-1.9,0.5L2.6,44.5c-0.5,0.3-0.7,0.6-0.7,0.9c0,0.3,0.2,0.5,0.5,0.7l0,0l17.1,10.1
				c1,0.5,2.3,0.4,3.3-0.1l14.7-8.3c0.5-0.3,0.7-0.6,0.7-0.9c0-0.3-0.2-0.5-0.5-0.7L20.5,36.1C20.1,35.8,19.6,35.7,19.1,35.7z"/>
			<path class="st1" d="M20,13.3L20,13.3c0.8-0.3,1.6-0.3,2.3,0.2l9.5,5.5c2,1.2,3.6,4.3,3.6,7v20.8l-14.3,8.3
				c0,0-11.7-24.7-11.8-25.2s-3.8-8.3-3.8-8.3L20,13.3z"/>
			<path class="st2" d="M20,15.4L20,15.4c0.8-0.3,1.6-0.3,2.3,0.2l9.5,5.5c2,1.2,3.6,4.3,3.6,6.9v18.1l-14.9,8.6
				c0,0-11-22.3-11.1-22.7s-3.8-8.3-3.8-8.3L20,15.4z"/>
			<path class="st0" d="M21.1,55.4l-0.2-0.1v-0.1C18.9,51,9.2,30.5,9.1,30s-2.3-5.1-3.7-8.3l0.1-0.3l0,0L19.9,13
				c0.8-0.4,1.8-0.3,2.6,0.2l9.5,5.5c2.1,1.2,3.7,4.4,3.7,7.2v20.9L35.5,47L21.1,55.4z M5.9,21.7c0.7,1.4,3.6,7.7,3.7,8.1
				s7.6,16.4,11.6,24.8l13.9-8.1V26c0-2.6-1.5-5.6-3.5-6.7l-9.5-5.5c-0.6-0.4-1.4-0.5-2.1-0.2L5.9,21.7z"/>
			<path class="st1" d="M4.4,45.3L21.1,55V34.2c0-2.7-1.6-5.8-3.6-7L8,21.7c-2-1.2-3.6,0.1-3.6,2.7V45.3z"/>
			<path class="st0" d="M21.3,55.2L21,55.3L4,45.4V24.5c0-1.3,0.5-2.5,1.5-3.2c0.8-0.4,1.8-0.3,2.6,0.2l9.5,5.5
				c2.1,1.2,3.7,4.4,3.7,7.2C21.3,34.2,21.3,55.2,21.3,55.2z M4.6,45.2l16.2,9.5V34.2c0-2.6-1.5-5.6-3.5-6.7L7.8,22
				c-0.6-0.4-1.4-0.5-2.1-0.2c-0.8,0.6-1.3,1.7-1.1,2.7C4.6,24.5,4.6,45.2,4.6,45.2z"/>
			<polygon class="st0" points="20.8,56.8 20.8,59.5 22.7,59 38,50.3 38.4,49.8 38.4,47.2 36.9,48.5 22,56.8 			"/>
			<polygon class="st0" points="20.8,32 23.1,30.7 23.3,31.5 23.4,46.7 25.5,48.2 33.2,43.7 35.3,45.1 35.3,46.8 21.3,54.9 
				21.1,53.9 21,33.2 			"/>
			<polygon class="st0" points="33.8,25.8 35.2,25 35.4,26.8 35.4,31.7 33.4,30.5 33.6,25.9 			"/>
			<path class="st1" d="M68.5,39.4c0,0.4-0.6,0.7-1.4,0.7s-1.4-0.3-1.4-0.7s0.6-0.7,1.4-0.7S68.5,39,68.5,39.4z"/>
			<path class="st0" d="M67.2,40.4c-0.9,0-1.6-0.4-1.6-1s0.7-1,1.6-1s1.6,0.4,1.6,1S68.1,40.4,67.2,40.4z M67.2,38.9
				c-0.7,0-1.1,0.3-1.1,0.5s0.4,0.5,1.1,0.5s1.1-0.3,1.1-0.5S67.9,38.9,67.2,38.9L67.2,38.9z"/>
			<path class="st0" d="M67.2,39.4L67.2,39.4c-0.4,0-0.7-0.3-0.7-0.7l0,0v-3.1c0-0.4,0.3-0.7,0.7-0.7l0,0l0,0c0.4,0,0.7,0.3,0.7,0.7
				v3.1C67.9,39,67.6,39.4,67.2,39.4z"/>
			<path class="st0" d="M67.2,39.6c-0.6,0-1-0.4-1-1v-3.1c0.1-0.5,0.7-0.9,1.2-0.8c0.4,0.1,0.7,0.4,0.8,0.8v3.1
				C68.1,39.1,67.7,39.6,67.2,39.6z M67.2,35.1c-0.3,0-0.5,0.2-0.5,0.5l0,0v3.1c0,0.3,0.3,0.4,0.5,0.4s0.4-0.2,0.4-0.4v-3.1
				C67.7,35.3,67.5,35,67.2,35.1C67.2,35,67.2,35,67.2,35.1z"/>
			<polygon class="st0" points="25.5,48.2 33.5,43.5 33.6,24 25.5,28.7 			"/>
			<polygon class="st1" points="29.5,21.8 33.6,24 25.5,28.7 21.8,26.4 			"/>
			<polygon class="st2" points="29.5,23.4 32.2,24.9 25.5,28.7 25.5,30.2 21.7,28 			"/>
			<path class="st1" d="M21.8,26.4v1.8c1,1,1.5,2.4,1.6,3.8v14.7l2.1,1.5V28.7L21.8,26.4z"/>
			<path class="st0" d="M33.8,23.9l-4.3-2.3l-8,4.7v2l0.1,0.1c0.9,1,1.5,2.3,1.5,3.7v14.8l2.4,1.6l8.3-4.8V23.9z M29.5,22.1L33,24
				l-7.5,4.3L25,28.1l-2.8-1.7L29.5,22.1z M23.6,46.6V32c-0.1-1.5-0.6-2.9-1.6-3.9v-1.3l2.7,1.6l0.6,0.3v18.9L23.6,46.6z M33.3,43.4
				l-7.5,4.4v-19l7.5-4.4V43.4z"/>
			<polygon class="st1" points="33.8,26.3 33.3,26.6 33.3,43.3 25.8,47.7 25.8,48.2 33.8,43.6 			"/>
			<path class="st1" d="M32.5,27.4c-0.1,0-6.1,3.4-6.1,3.4v13.7l6.1-3.4V27.4z"/>
			<path class="st0" d="M26.1,44.9V30.6l0.1-0.1c6.1-3.5,6.2-3.5,6.3-3.5h0.3v14.2L26.1,44.9z M26.6,30.9V44l5.6-3.1V27.7
				C31.3,28.2,28.6,29.8,26.6,30.9L26.6,30.9z"/>
			<polygon class="st1" points="38.1,35 28.8,29.4 28.8,36.1 38.1,41.6 			"/>
			<path class="st0" d="M38.4,42l-9.9-5.8v-7l0.3-0.1l9.6,5.7V42z M29,35.9l8.9,5.2v-6L29,29.8V35.9z"/>
			<polygon class="st1" points="28.8,29.4 30.2,28.6 39.5,34.2 38.1,35 			"/>
			<polygon class="st2" points="29,29.9 30.2,29.3 39.5,34.8 38.2,35.7 29,30.2 			"/>
			<path class="st0" d="M38.1,35.3L38.1,35.3l-9.9-5.9l1.9-1.1l0.1,0.1l9.6,5.8L38.1,35.3z M29.3,29.4l8.9,5.3l0.8-0.5l-8.8-5.3
				L29.3,29.4z"/>
			<polygon class="st1" points="38.1,41.6 39.5,40.8 39.5,34.2 38.1,35 			"/>
			<path class="st0" d="M37.9,42v-7.2l1.8-1.1v7.2L37.9,42z M38.4,35.1v6l0.8-0.5v-6L38.4,35.1z"/>
			<polygon class="st1" points="35.6,36.6 26.4,31.1 26.4,37.8 35.6,43.2 			"/>
			<path class="st0" d="M35.9,43.6L26.2,38v-7.3l9.7,5.8V43.6z M26.7,37.6l8.7,5.1v-6l-8.7-5.2V37.6z"/>
			<polygon class="st1" points="26.4,31.1 26.4,30.8 27.5,30.1 36.9,35.8 35.6,36.6 			"/>
			<polygon class="st2" points="26.6,31.9 26.6,31.3 27.5,30.8 36.9,36.5 35.6,37.3 			"/>
			<path class="st0" d="M35.6,36.9L35.6,36.9l-9.5-5.7v-0.6l1.4-0.8l9.9,5.9L35.6,36.9z M26.6,31l9,5.3l0.8-0.5l-9-5.4L26.6,31
				L26.6,31z"/>
			<polygon class="st1" points="35.6,43.2 36.9,42.4 36.9,35.8 35.6,36.6 			"/>
			<path class="st0" d="M35.4,43.7v-7.2l1.8-1.1v7.2L35.4,43.7z M35.9,36.8v6l0.8-0.5v-6L35.9,36.8z"/>
			<polygon class="st1" points="30.3,40.1 26.4,42.5 26.4,44.5 32.2,41.2 			"/>
			<polygon class="st2" points="30.2,41 26.2,43.4 26.4,44.5 31.4,41.7 			"/>
			<path class="st0" d="M26.1,44.9v-2.5l4.2-2.5l2.4,1.4L26.1,44.9z M26.6,42.6V44l5.1-2.8l-1.4-0.8L26.6,42.6z"/>
			<polygon class="st1" points="50.9,5.2 40.1,33.5 41.4,34.3 52,6.1 			"/>
			<path class="st0" d="M41.5,34.6l-1.7-1l0.1-0.2L50.8,4.8L52.2,6L41.5,34.6z M40.5,33.4l0.8,0.5L51.7,6.2L51,5.6L40.5,33.4z"/>
			<polygon class="st0" points="53.5,5.9 43,35.3 41.4,34.3 52,6.1 			"/>
			<path class="st0" d="M43.1,35.7L41,34.4L51.8,5.9l2.1-0.3L43.1,35.7z M41.7,34.2l1.2,0.8L53.1,6.2l-1,0.1L41.7,34.2z"/>
			<polygon class="st1" points="52.8,7.1 42.3,34.8 43.5,35.6 53.8,8 			"/>
			<path class="st0" d="M43.6,35.9l-1.7-1l0.1-0.2l10.6-28L54.1,8L54,8.2L43.6,35.9z M42.6,34.7l0.8,0.5L53.6,8.1L53,7.5L42.6,34.7z
				"/>
			<polygon class="st0" points="55.3,7.1 44.2,37.9 43.5,35.6 54.1,7.4 			"/>
			<path class="st0" d="M44.2,38.6l-1-3.1v-0.1L53.8,7.2l1.8-0.4L44.2,38.6z M43.8,35.6l0.5,1.5L54.9,7.5l-0.6,0.1L43.8,35.6z"/>
			<path class="st1" d="M39.6,31.6L39.6,31.6L39.6,31.6L39.6,31.6c0.2,0,0.3,0,0.4,0.1l2.5,1.5c2,1.5,3.2,3.8,3.3,6.3
				c0.1,0.9-0.3,1.8-0.9,2.5l0,0c-0.1,0.1-0.3,0.2-0.5,0.3l-6.1,3.4L35,39l-1.9-3.7L39.6,31.6z"/>
			<path class="st2" d="M39.5,33.2L39.5,33.2L39.5,33.2L39.5,33.2c0.2,0,0.3,0,0.4,0l2.6,1.5c1.8,1,2.6,2.7,2.6,5.1
				c0.1,0.9-0.2,1.8-0.9,2.5l0,0c-0.2,0.1-0.3,0.2-0.5,0.3l-5.9,2.6L35,40.5l-1.9-3.7L39.5,33.2z"/>
			<path class="st0" d="M38.3,45.9l-5.5-10.8l6.7-3.7h0.1l0.1-0.1H40c0.1,0,0.1,0,0.2,0.1l2.6,1.5c2.1,1.5,3.4,3.9,3.4,6.5
				c0.1,0.9-0.3,1.9-0.9,2.6l0,0l-0.2,0.1c-0.2,0.1-0.3,0.2-0.5,0.3L38.3,45.9z M33.4,35.4l5.1,9.9l5.9-3.3c0.2-0.1,0.3-0.1,0.5-0.3
				l0,0c0.6-0.6,0.9-1.5,0.8-2.3c0-2.4-1.2-4.6-3.1-6.1L40,31.8h-0.1h-0.1L33.4,35.4z"/>
			<path class="st1" d="M33.6,43.9l2.5,1.5c1.8,1.1,3.3-0.1,3.3-2.5l0,0c0-2.5-1.2-4.8-3.3-6.3l-2.6-1.5c-0.4-0.2-0.6,0-0.6,0.5v7
				C33,43.2,33.2,43.7,33.6,43.9z"/>
			<path class="st0" d="M37.5,46.1c-0.5,0-1-0.2-1.4-0.4l-2.5-1.5c-0.5-0.3-0.8-0.9-0.8-1.4v-7c0-0.3,0.1-0.6,0.4-0.7
				c0.2-0.1,0.5-0.1,0.7,0l2.5,1.5c2.1,1.5,3.3,3.9,3.4,6.5c0.1,1.1-0.4,2.2-1.3,2.9C38.1,46,37.8,46.1,37.5,46.1z M33.7,43.7
				l2.5,1.5c0.5,0.4,1.3,0.5,1.9,0.2c0.7-0.6,1.1-1.5,1-2.4c0-2.4-1.2-4.6-3.1-6.1l-2.5-1.5c0,0-0.1-0.1-0.2,0
				c-0.1,0.1-0.1,0.2-0.1,0.3v7C33.2,43.1,33.4,43.5,33.7,43.7L33.7,43.7z"/>
			<path class="st1" d="M33.4,38.1L33.4,38.1L33.4,38.1L33.4,38.1L33.4,38.1l1.2,0.6c0.9,0.6,1.4,1.7,1.4,2.8c0,0.4-0.1,0.8-0.4,1.1
				l0,0c-0.1,0.1-0.1,0.1-0.2,0.1l-1.2,0.7l-1.3-2.7l-0.9-2L33.4,38.1z"/>
			<path class="st2" d="M33.4,38.8L33.4,38.8L33.4,38.8L33.4,38.8L33.4,38.8l1.2,0.6c0.9,0.6,1.4,1.7,1.4,2.8c0,0.5-0.3,0-0.6,0.2
				l-0.2-0.1l0,0c-0.1,0.1-0.1,0.1-0.2,0.1l-1,0.4l-1-1.3l-0.9-2L33.4,38.8z"/>
			<path class="st0" d="M34.3,43.8l-1.4-2.9l-0.8-2.3l1.5-0.8v0.1l0.1,0.1l1.1,0.7c1,0.7,1.6,1.8,1.6,3c0,0.4-0.1,0.8-0.3,1.1l0,0
				L35.9,43c-0.1,0.1-0.2,0.1-0.3,0.1L34.3,43.8z M32.5,38.9l0.8,1.8l1.2,2.4l0.9-0.5c0.1,0,0.1-0.1,0.2-0.1l0,0
				c0.2-0.2,0.3-0.6,0.3-0.9c0-1-0.5-2-1.3-2.6l-1.1-0.6l0,0L32.5,38.9z"/>
			<path class="st1" d="M32.4,42.7l1.1,0.6c0.8,0.5,1.4,0,1.4-1.1l0,0c0-1.1-0.5-2.1-1.4-2.8l-1.1-0.7c-0.2-0.1-0.3,0-0.3,0.2V42
				C32.1,42.4,32.2,42.6,32.4,42.7z"/>
			<path class="st0" d="M34.1,43.8c-0.2,0-0.5-0.1-0.7-0.2l-1.1-0.7c-0.3-0.2-0.4-0.5-0.4-0.8V39c0-0.2,0.1-0.4,0.2-0.4
				c0.1-0.1,0.3-0.1,0.4,0l1.1,0.6c1,0.7,1.6,1.8,1.6,3c0.1,0.5-0.2,1.1-0.6,1.4C34.5,43.7,34.3,43.8,34.1,43.8z M32.5,42.5l1.1,0.6
				c0.2,0.1,0.5,0.2,0.7,0.1c0.3-0.2,0.4-0.6,0.4-0.9c0-1-0.5-2-1.3-2.6l-1-0.6v3C32.4,42.2,32.5,42.4,32.5,42.5L32.5,42.5z"/>
			<path class="st1" d="M58.7,4.2c0,0-1.2-4.5-3.3-3.7c-1,0.4-1.2,0.1-2.2,0.5c-2.3,0.7-3.6,3.1-2.9,5.3c0.1,0.3,0.2,0.5,0.3,0.8
				l0,0C51,7.9,52,8.3,52.8,7.9l0,0L59,4.8L58.7,4.2z"/>
			<path class="st0" d="M52.1,8.3c-0.2,0-0.4,0-0.6-0.1c-0.5-0.2-0.9-0.5-1.1-1c-0.6-1.2-0.6-2.5-0.2-3.8c0.5-1.3,1.6-2.2,2.9-2.7
				c0.4-0.1,0.7-0.2,1.1-0.3c0.4,0,0.7-0.1,1.1-0.3c0.4-0.2,0.9-0.1,1.3,0.1C58,0.9,58.9,3.7,58.9,4l0.3,0.8L52.8,8
				C52.6,8.2,52.3,8.3,52.1,8.3z M55.9,0.7c-0.1,0-0.3,0-0.4,0.1C55.1,0.9,54.7,1,54.3,1c-0.3,0-0.7,0.1-1,0.2
				c-2.1,0.6-3.4,2.8-2.8,4.9c0.1,0.3,0.2,0.6,0.3,0.8c0.2,0.3,0.4,0.6,0.8,0.7c0.3,0.1,0.7,0.1,1-0.1l6-3l-0.2-0.4
				c0,0-0.8-2.9-2.1-3.5C56.2,0.7,56,0.7,55.9,0.7z"/>
			<path class="st1" d="M60.4,3.4c0,0-1.5-4-5.4-3s-3.4,4.4-2.7,5.8L53,7.7l7.6-3.8L60.4,3.4z"/>
			<path class="st2" d="M60,4.6c0,0-1.5-4-5.4-3s-2.9,4-2.2,5.5s1.1,1.4,1.1,1.4l6.7-3.3L60,4.6z"/>
			<path class="st0" d="M52.9,8.1l-0.8-1.7c-0.6-1.2-0.7-2.7-0.1-3.9c0.6-1.2,1.7-2,3-2.3c3.9-1,5.6,2.9,5.7,3.1L61,4.1L52.9,8.1z
				 M56.2,0.5c-0.4,0-0.8,0.1-1.1,0.1c-1.2,0.2-2.1,1-2.7,2C51.9,3.7,52,5,52.5,6.1l0.6,1.2l7.2-3.6l-0.2-0.3
				C60.1,3.4,59,0.5,56.2,0.5z"/>
			<path class="st1" d="M52.4,5.4L52.4,5.4L52.4,5.4L52.4,5.4l1.1-1.2c0,0,0.6,0.4,1.1,0.7l9.5-1.1c0.4,0,0.8,0.2,0.9,0.7l0.6,3
				c0.1,0.4,0.1,0.7,0,1.1L66,8.7l-1,1.1c-0.1,0.1-0.2,0.2-0.3,0.3l0,0l0,0c-0.4,0.4-0.9,0.6-1.4,0.7l-7.5,1.1
				c-1.5,0.2-2.8-0.8-3.1-2.3l-0.5-3.5C52.2,5.8,52.3,5.5,52.4,5.4z"/>
			<path class="st0" d="M55.5,12c-1.5,0-2.7-1.1-2.9-2.5L52,6c0-0.2,0-0.4,0.1-0.6l0,0l0.1-0.1c0-0.1,0.1-0.1,0.2-0.2l1.1-1.2
				L53.6,4c0,0,0.6,0.3,1,0.6L64,3.5c0.6-0.1,1.1,0.3,1.2,0.9l0.6,3c0.1,0.3,0.1,0.6,0,0.9l0.6,0.1l-1.3,1.4
				c-0.1,0.1-0.2,0.2-0.3,0.3l-0.1,0.1c-0.4,0.4-0.9,0.6-1.5,0.7L55.9,12C55.7,12,55.6,12,55.5,12z M52.6,5.5L52.6,5.5
				c-0.1,0.2-0.1,0.3-0.1,0.4L53,9.4c0.2,1.3,1.5,2.2,2.8,2.1l7.5-1.1c0.4,0,0.8-0.2,1.2-0.5l-0.1-0.3c0.1-0.1,0.4,0,0.5,0l0.7-0.8
				l-0.3-0.1V8.4c0.1-0.3,0.1-0.7,0-1l-0.6-3c-0.1-0.3-0.4-0.5-0.7-0.5L54.4,5l0,0c-0.3-0.2-0.6-0.4-0.9-0.6L52.6,5.5L52.6,5.5z"/>
			<path class="st1" d="M65.1,2.5l-11,1.3c-0.5,0-0.8,0.4-0.8,0.9v0.1l0.5,3.5c0.2,1.5,1.6,2.5,3.1,2.3l7.5-1.1
				c1.5-0.2,2.5-1.6,2.3-3.1c0-0.1,0-0.1,0-0.2l-0.6-3C66,2.7,65.6,2.4,65.1,2.5z"/>
			<path class="st2" d="M65.9,8.7C66,8.3,66.1,7.8,66,7.4l-0.6-3c-0.1-0.4-0.5-0.7-0.9-0.7L53.4,5l0.5,3.3c0.2,1.5,1.6,2.5,3.1,2.3
				l7.5-1.1C65,9.3,65.5,9.1,65.9,8.7z"/>
			<path class="st0" d="M56.5,10.8c-1.5,0-2.7-1.1-2.9-2.5l-0.5-3.5c0-0.3,0-0.6,0.2-0.8c0.2-0.2,0.5-0.4,0.8-0.4l11-1.3
				c0.6-0.1,1.1,0.3,1.2,0.9l0.6,3c0.2,0.8,0,1.6-0.5,2.3s-1.2,1.1-2,1.2L57,10.8C56.8,10.8,56.7,10.8,56.5,10.8z M65.1,2.7L54.1,4
				c-0.2,0-0.3,0.1-0.4,0.2c-0.1,0.1-0.1,0.3-0.1,0.5l0.5,3.5c0.2,1.3,1.5,2.3,2.8,2.1l7.5-1.1c0.7-0.1,1.3-0.5,1.7-1
				c0.4-0.6,0.5-1.3,0.4-1.9l-0.6-3C65.7,2.9,65.4,2.7,65.1,2.7L65.1,2.7z"/>
			<path class="st0" d="M57.8,10.4L57.8,10.4l0.7-1.8l0.2,0.5c0.4-0.3,1-0.5,1.5-0.4c1.6,0.3,2.9,1.5,3.2,3.2l0,0l2.8,14.5l1.8,4.1
				l-0.5,1.4c0,0.1,0,0.1-0.1,0.2v0.1l0,0c-0.2,0.5-0.7,0.8-1.2,0.8c-0.8,0-1.4-0.6-1.6-1.4l0,0l-6.7-17.9c-0.1-0.3-0.3-0.6-0.3-0.9
				l-0.1-0.2l0,0c0-0.1,0-0.2-0.1-0.4C57.5,11.6,57.6,11,57.8,10.4z"/>
			<path class="st0" d="M66.3,33.2c-0.9-0.1-1.6-0.7-1.8-1.5l-6.6-17.9c-0.2-0.3-0.3-0.7-0.3-1l-0.1-0.5l0,0v-0.1
				c-0.1-0.7,0-1.3,0.2-1.9l0,0L58.5,8l0.4,0.8c0.4-0.2,0.9-0.4,1.5-0.3c1.7,0.3,3,1.5,3.4,3.2l0,0v0.2l2.9,14.5l1.8,4.1L67.8,32
				c0,0,0,0.1-0.1,0.2v0.1C67.5,32.8,66.9,33.2,66.3,33.2L66.3,33.2z M58,12.8c0.1,0.3,0.2,0.6,0.3,0.9L65,31.6
				c0.1,0.7,0.7,1.1,1.4,1.2c0.4,0,0.8-0.3,1-0.6V32c0-0.1,0-0.1,0.1-0.2l0.5-1.4l-1.8-4l-2.8-14.6c-0.3-1.5-1.5-2.7-3-3
				c-0.5,0-1,0.1-1.4,0.4l-0.3,0.2l-0.1-0.3l-0.5,1.2c-0.2,0.5-0.3,1.1-0.2,1.7c0,0.1,0,0.1,0,0.2L58,12.8z"/>
			<path class="st1" d="M58.4,10.6L58.4,10.6c0-0.1,0-0.2-0.1-0.4c-0.2-2,1-3.6,2.7-3.5c1.7,0.3,3,1.6,3.3,3.2l0,0l3.8,19.7l0,0
				c0,0.1,0,0.2,0,0.3c0.1,0.8-0.4,1.6-1.2,1.7h-0.1c-0.8,0-1.4-0.6-1.6-1.4l0,0l-6.4-18.5c-0.1-0.3-0.3-0.7-0.3-1v-0.1H58.4z"/>
			<path class="st2" d="M67.3,30.8L63.5,11l0,0c-0.3-1.6-1.6-2.9-3.2-3.2c-0.7,0-1.3,0.2-1.8,0.6c-0.1,0.5-0.2,1-0.1,1.6
				c0,0.1,0,0.2,0.1,0.4l0,0l0.1,0.2c0.1,0.3,0.2,0.6,0.3,0.9L65.3,30l0,0c0.2,0.8,0.8,1.3,1.6,1.3c0.2,0,0.4-0.1,0.6-0.1
				c0-0.1,0-0.2,0-0.3C67.4,31,67.4,30.9,67.3,30.8L67.3,30.8z"/>
			<path class="st0" d="M66.8,31.9c-0.9,0-1.6-0.7-1.8-1.5l-6.4-18.5c-0.1-0.3-0.3-0.7-0.3-1l-0.1-0.5l0,0v-0.1
				c-0.2-1.1,0.2-2.2,0.9-3c0.5-0.6,1.3-0.9,2.1-0.8c1.7,0.3,3,1.5,3.4,3.2l0,0v0.2l3.9,19.9l0,0v0.1c0.1,0.5-0.1,1.1-0.4,1.5
				C67.7,31.7,67.3,31.9,66.8,31.9L66.8,31.9z M58.7,10.7c0.1,0.3,0.2,0.6,0.3,0.9l6.4,18.6c0.1,0.7,0.7,1.1,1.4,1.2
				c0.3,0,0.6-0.1,0.8-0.4c0.3-0.3,0.4-0.7,0.3-1.1c0-0.1,0-0.2,0-0.2v-0.2l0,0L64.1,9.9c-0.3-1.5-1.5-2.7-3-3
				c-0.6,0-1.2,0.2-1.7,0.6c-0.6,0.7-0.9,1.7-0.8,2.6c0,0.1,0,0.1,0,0.2L58.7,10.7z"/>
			<path class="st1" d="M69,31.7L69,31.7L69,31.7h0.2l0,0c0.6-0.1,1.3,0.6,1.5,1.6s-0.1,2.1-0.8,2.2l-4.7,1.1l-0.6-3.8L69,31.7z"/>
			<path class="st2" d="M68.6,32.5L68.6,32.5L68.6,32.5h0.2l0,0c0.6-0.1,1.3,0.6,1.5,1.6s-0.4,1.1-1.1,1.3l-4.6,0.8l-0.5-2.7
				L68.6,32.5z"/>
			<path class="st0" d="M65,36.6l-0.7-4l5.2-1.2l0,0c0.8,0.3,1.5,1,1.5,1.9c0.3,1.2-0.2,2.3-1,2.5l-4.6,1.1
				C65.2,36.9,65,36.8,65,36.6L65,36.6z M64.9,32.9l0.6,3.3l4.4-1c0.5-0.1,0.8-1,0.6-1.9s-0.7-1.4-1.2-1.4l0,0h-0.2L64.9,32.9z"/>
			<path class="st1" d="M63.6,35c0.2,1.1,0.9,1.8,1.6,1.6s1-1.2,0.8-2.2s-0.9-1.8-1.6-1.6S63.4,33.9,63.6,35z"/>
			<path class="st0" d="M65,36.9c-0.2,0-0.5-0.1-0.7-0.2c-0.5-0.4-0.9-1-1-1.6l0,0c-0.2-1.2,0.2-2.3,1-2.5c0.3-0.1,0.7,0,0.9,0.2
				c0.5,0.4,0.9,1,1,1.6c0.3,1.2-0.2,2.3-1,2.5C65.2,36.9,65.1,36.9,65,36.9z M63.8,34.9c0.1,0.5,0.4,1,0.8,1.3
				c0.2,0.1,0.4,0.1,0.5,0.1c0.5-0.1,0.8-1,0.6-1.9c-0.1-0.5-0.4-1-0.8-1.3C64.8,33,64.6,33,64.4,33C63.9,33.1,63.6,34,63.8,34.9
				L63.8,34.9z"/>
			<path class="st1" d="M12.8,33.8L12.8,33.8h0.1l0,0c0.1,0,0.2,0,0.3,0.1l2.3,1.3c1.8,1.3,2.9,3.3,2.9,5.6c0.1,0.8-0.2,1.6-0.8,2.2
				l0,0c-0.1,0.1-0.3,0.2-0.5,0.3L15,44.4l-3-5.8l-1.7-3.3L12.8,33.8z"/>
			<path class="st2" d="M12.7,35L12.7,35h0.1l0,0c0.1,0,0.2,0,0.3,0.1l2.3,1.3c1.8,1.3,2.9,3.4,2.9,5.6c0,1-0.8,0.8-1.3,1.2l0,0
				c-0.1,0.1-0.3,0.2-0.5,0.3l-2.1,1.2l-2.5-4.9l-1.7-3.3L12.7,35z"/>
			<path class="st0" d="M14.9,44.7l-4.7-9.2c-0.1-0.2,0-0.5,0.2-0.6l2.6-1.4l0.2,0.1c0.1,0,0.1,0,0.2,0.1l2.3,1.3
				c1.9,1.3,3,3.5,3,5.8c0.1,0.8-0.2,1.7-0.8,2.3l0,0l-0.2,0.1c-0.2,0.1-0.3,0.2-0.5,0.3L14.9,44.7z M10.6,35.3l4.5,8.7l1.9-1.1
				c0.1,0,0.3-0.1,0.4-0.2l0,0c0.5-0.5,0.8-1.3,0.7-2c0-2.1-1.1-4.1-2.8-5.3L13,34.1h-0.1h-0.1L10.6,35.3z"/>
			<path class="st1" d="M10.7,42.9l2.3,1.3c1.6,0.9,2.9,0,2.9-2.2l0,0c0-2.2-1.1-4.3-2.9-5.5l-2.3-1.3c-0.3-0.2-0.6,0-0.6,0.4v6.2
				C10.2,42.2,10.4,42.7,10.7,42.9z"/>
			<path class="st0" d="M14.1,44.8c-0.4,0-0.9-0.1-1.3-0.4l-2.3-1.3l0,0c-0.4-0.3-0.7-0.8-0.7-1.3v-6.2c0-0.3,0.1-0.5,0.3-0.7
				c0.2-0.1,0.4-0.1,0.6,0l2.3,1.3c1.9,1.3,3,3.5,3,5.8c0.1,1-0.3,2-1.1,2.6C14.7,44.7,14.4,44.8,14.1,44.8z M10.5,35.4L10.5,35.4
				c0,0-0.1,0.1-0.1,0.2v6.2c0,0.3,0.2,0.7,0.5,0.9l0,0l2.3,1.3c0.5,0.3,1.1,0.4,1.6,0.2c0.6-0.5,1-1.3,0.9-2.1
				c0-2.1-1.1-4.1-2.8-5.3l-2.3-1.3h-0.1V35.4z"/>
			<polygon class="st0" points="66.1,34.6 70.7,33.5 70.6,34.9 70.1,35.5 65.6,36.5 66,35.5 			"/>
			<polygon class="st1" points="66.6,36.8 66.6,36.3 67.8,36 67.8,36.5 			"/>
			<polygon class="st0" points="54.1,11.5 55,10 56.2,10.5 57.6,10.3 57.3,11.5 55.9,11.7 54.9,11.7 			"/>
			<polygon class="st1" points="57.7,11.5 57.2,11.5 57.4,10.4 57.9,10.4 			"/>
			<polygon class="st0" points="34.7,40.9 36,40.3 36.3,41.4 36,42.3 35.2,43.1 34.9,43.1 34.9,41.4 			"/>
			<polygon class="st0" points="38.7,39.8 45.3,36.3 45.7,37.9 46,39.5 45.7,41 45.2,41.7 38.9,45.3 39.3,44.3 39.4,42.5 39,40.5 
							"/>
			<polygon class="st0" points="15.2,39 17.6,37.7 18.2,39.4 18.4,41.1 18.1,42.2 17.5,43.1 15.3,44.1 15.9,42.9 15.8,40.5 			"/>
			<path class="st1" d="M16.8,16.8l1.1-0.1c0.7-0.3,1.4-0.4,2.1-0.4s1.5,0.1,2.1,0.4l1.1,0.1l0.3,1.4c0,1-1.6,1.9-3.5,1.9
				s-3.5-0.8-3.5-1.9L16.8,16.8z"/>
			<path class="st0" d="M20,20.4c-2.1,0-3.8-0.9-3.8-2.1l0.4-1.6l1.2-0.1c0.7-0.3,1.4-0.4,2.2-0.4l0,0c0.8,0,1.5,0.1,2.2,0.4
				l1.2,0.1l0.3,1.6C23.8,19.4,22.2,20.4,20,20.4z M17,17.1l-0.3,1.2c0,0.8,1.5,1.6,3.3,1.6s3.3-0.7,3.3-1.6L23,17.2l-1-0.1
				c-1.3-0.5-2.8-0.5-4.1,0l0,0H17z"/>
			<path class="st1" d="M16.8,16.9c0,0.9,1.5,1.7,3.2,1.7s3.3-0.8,3.3-1.7s-1.5-1.7-3.3-1.7S16.8,16,16.8,16.9z"/>
			<path class="st2" d="M16.8,17.6c0,0.9,1.5,1.7,3.2,1.7s3.3-0.8,3.3-1.7s-1.5-1.7-3.3-1.7S16.8,16.6,16.8,17.6z"/>
			<path class="st0" d="M20,18.9c-2,0-3.5-0.9-3.5-2s1.5-2,3.5-2s3.5,0.9,3.5,2S22,18.9,20,18.9z M20,15.5c-1.6,0-3,0.7-3,1.5
				s1.4,1.5,3,1.5s3-0.7,3-1.5S21.7,15.5,20,15.5L20,15.5z"/>
			<path class="st1" d="M20,11.6L20,11.6c1.1,0,2,0.8,2,1.9l0.1,3c0,0.6-1,1.1-2.1,1.1s-2.1-0.5-2.1-1.1l0.1-3
				C18.1,12.4,19,11.6,20,11.6z"/>
			<path class="st0" d="M20,17.9c-1.3,0-2.4-0.6-2.4-1.4l0.1-3c0.1-1.2,1.2-2.2,2.4-2.1c1.1,0.1,2,1,2.1,2.1l0.1,3
				C22.4,17.3,21.4,17.9,20,17.9z M20,11.8c-0.9,0-1.7,0.7-1.7,1.7l-0.1,3c0,0.4,0.8,0.9,1.9,0.9s1.9-0.5,1.9-0.9l-0.1-3
				C21.7,12.6,21,11.8,20,11.8z"/>
			<path class="st2" d="M19,15.2c0,0.7,0.5,1.2,1.2,1.2s1.2-0.5,1.2-1.2S20.9,14,20.2,14S19,14.6,19,15.2L19,15.2z"/>
			<path class="st0" d="M19.7,15.4c-0.6,0-1-0.4-1-1s0.4-1,1-1s1,0.4,1,1S20.3,15.4,19.7,15.4z M19.7,13.9c-0.3,0-0.5,0.2-0.5,0.5
				l0,0c0.1,0.3,0.3,0.5,0.6,0.4c0.2,0,0.4-0.2,0.4-0.4C20.2,14.1,20,13.9,19.7,13.9z"/>
			<path class="st1" d="M57.6,5.9l0.2,0.9c0,0.2-0.1,0.4-0.3,0.4l0,0l-1,0.1C56.2,7.4,56,7.2,56,7l0,0l-0.1-0.9
				c0-0.2,0.1-0.4,0.3-0.4l0,0l1-0.1C57.4,5.6,57.6,5.7,57.6,5.9z"/>
			<path class="st0" d="M56.8,6.9c-0.3,0-0.6-0.2-0.6-0.5l-0.1-1c0-0.3,0.2-0.6,0.5-0.7l1-0.1c0.3,0,0.6,0.2,0.7,0.5l0,0L58.4,6
				c0,0.2,0,0.3-0.1,0.5c-0.1,0.1-0.2,0.2-0.4,0.2L56.8,6.9L56.8,6.9z M57.7,5.1L57.7,5.1l-1,0.1c0,0-0.1,0-0.1,0.1v0.1l0.1,0.9
				c0,0.1,0.1,0.1,0.1,0.1l1-0.1c0,0,0,0,0.1,0V6.2l-0.1-0.9C57.8,5.1,57.8,5.1,57.7,5.1L57.7,5.1z"/>
			<polygon class="st0" points="19.9,18.6 19.9,20.2 21.9,19.8 23.3,19 23.5,18.1 23.3,17 23,17.6 22.2,18.2 21.3,18.5 			"/>
			<path class="st0" d="M10.2,59c0.2,0.1,0.3,0.2,0.2,0.4c0,0.1-0.1,0.2-0.2,0.2c-0.4,0.2-0.8,0.2-1.1,0c-0.2-0.1-0.3-0.2-0.2-0.4
				C8.9,59.1,9,59,9.1,59C9.4,58.8,9.8,58.8,10.2,59z"/>
			<ellipse class="st0" cx="6.7" cy="57.7" rx="0.8" ry="0.5"/>
			<path class="st0" d="M4.3,55.6c0.2,0.1,0.3,0.2,0.2,0.4c0,0.1-0.1,0.2-0.2,0.2c-0.4,0.2-0.8,0.2-1.1,0s-0.3-0.5,0-0.6
				C3.5,55.4,3.9,55.4,4.3,55.6z"/>
			<path class="st0" d="M1.4,53.9c0.2,0.1,0.3,0.2,0.2,0.4c0,0.1-0.1,0.2-0.2,0.2c-0.4,0.2-0.8,0.2-1.1,0c-0.2-0.1-0.3-0.2-0.2-0.4
				C0,54,0.1,54,0.2,53.9C0.6,53.7,1,53.7,1.4,53.9z"/>
			<path class="st0" d="M22.1,65.6c0.2,0.1,0.3,0.2,0.2,0.4c0,0.1-0.1,0.2-0.2,0.2c-0.4,0.2-0.8,0.2-1.1,0c-0.2-0.1-0.3-0.2-0.2-0.4
				c0-0.1,0.1-0.2,0.2-0.2C21.3,65.4,21.7,65.4,22.1,65.6z"/>
			<path class="st0" d="M19.1,63.9c0.2,0.1,0.3,0.2,0.2,0.4c0,0.1-0.1,0.2-0.2,0.2c-0.4,0.2-0.8,0.2-1.1,0c-0.2-0.1-0.3-0.2-0.2-0.4
				c0-0.1,0.1-0.2,0.2-0.2C18.4,63.7,18.8,63.7,19.1,63.9z"/>
			<path class="st0" d="M16.2,62.1c0.2,0.1,0.3,0.2,0.2,0.4c0,0.1-0.1,0.2-0.2,0.2c-0.4,0.2-0.8,0.2-1.1,0c-0.2-0.1-0.3-0.2-0.2-0.4
				c0-0.1,0.1-0.2,0.2-0.2C15.4,62,15.8,62,16.2,62.1z"/>
			<path class="st0" d="M13.3,60.4c0.2,0.1,0.3,0.2,0.2,0.4c0,0.1-0.1,0.2-0.2,0.2c-0.4,0.2-0.8,0.2-1.1,0c-0.2-0.1-0.3-0.2-0.2-0.4
				c0-0.1,0.1-0.2,0.2-0.2C12.5,60.3,12.9,60.3,13.3,60.4z"/>
			<path class="st0" d="M13.2,57.4c0.2,0.1,0.3,0.2,0.2,0.4c0,0.1-0.1,0.2-0.2,0.2c-0.4,0.2-0.8,0.2-1.1,0c-0.2-0.1-0.3-0.2-0.2-0.4
				c0-0.1,0.1-0.2,0.2-0.2C12.4,57.2,12.8,57.2,13.2,57.4z"/>
			<path class="st0" d="M9.1,55.6c0.4-0.2,0.8-0.2,1.1,0c0.2,0.1,0.3,0.2,0.2,0.4c0,0.1-0.1,0.2-0.2,0.2c-0.4,0.2-0.8,0.2-1.1,0
				c-0.2-0.1-0.3-0.2-0.2-0.4C8.9,55.8,9,55.7,9.1,55.6z"/>
			<path class="st0" d="M6.1,53.9c0.4-0.2,0.8-0.2,1.1,0c0.2,0.1,0.3,0.3,0.2,0.4c0,0.1-0.1,0.2-0.2,0.2c-0.4,0.2-0.8,0.2-1.1,0
				c-0.2,0-0.3-0.2-0.2-0.4C5.9,54.1,6,54,6.1,53.9z"/>
			<path class="st0" d="M3.2,52.2C3.6,52,4,52,4.3,52.2s0.3,0.5,0,0.6c-0.4,0.2-0.8,0.2-1.1,0c-0.2,0-0.3-0.2-0.2-0.3
				C3,52.4,3.1,52.3,3.2,52.2z"/>
			<path class="st0" d="M0.3,50.5c0.4-0.2,0.8-0.2,1.1,0c0.2,0.1,0.3,0.2,0.2,0.4c0,0.1-0.1,0.2-0.2,0.2c-0.4,0.2-0.8,0.2-1.1,0
				c-0.2,0-0.3-0.2-0.3-0.3C0.1,50.6,0.1,50.6,0.3,50.5z"/>
			<path class="st0" d="M26.9,65.6c0.4-0.2,0.8-0.2,1.1,0c0.3,0.2,0.3,0.5,0,0.6c-0.4,0.2-0.8,0.2-1.1,0c-0.2-0.1-0.3-0.2-0.2-0.4
				C26.7,65.7,26.8,65.6,26.9,65.6z"/>
			<path class="st0" d="M31,63.9c0.2,0.1,0.3,0.2,0.2,0.4c0,0.1-0.1,0.2-0.2,0.2c-0.4,0.2-0.8,0.2-1.1,0c-0.2-0.1-0.3-0.2-0.2-0.4
				c0-0.1,0.1-0.2,0.2-0.2C30.2,63.7,30.6,63.7,31,63.9z"/>
			<path class="st0" d="M34,62.2c0.2,0.1,0.3,0.3,0.2,0.4c0,0.1-0.1,0.2-0.2,0.2c-0.4,0.2-0.8,0.2-1.1,0c-0.2-0.1-0.3-0.3-0.2-0.4
				c0-0.1,0.1-0.2,0.2-0.2C33.2,62,33.6,62,34,62.2z"/>
			<path class="st0" d="M36.9,60.5c0.2,0.1,0.3,0.2,0.2,0.4c0,0.1-0.1,0.2-0.2,0.2c-0.4,0.2-0.8,0.2-1.1,0c-0.2-0.1-0.3-0.2-0.2-0.4
				c0-0.1,0.1-0.2,0.2-0.2C36.1,60.3,36.5,60.3,36.9,60.5z"/>
			<ellipse class="st0" cx="39.3" cy="59.1" rx="0.8" ry="0.5"/>
			<path class="st0" d="M42.8,57.1c0.2,0.1,0.3,0.2,0.2,0.4c0,0.1-0.1,0.2-0.2,0.2c-0.4,0.2-0.8,0.2-1.1,0c-0.2-0.1-0.3-0.2-0.2-0.4
				c0-0.1,0.1-0.2,0.2-0.2C42,56.9,42.4,56.9,42.8,57.1z"/>
			<path class="st0" d="M24,63.9c0.4-0.2,0.8-0.2,1.1,0c0.2,0.1,0.3,0.2,0.2,0.4c0,0.1-0.1,0.2-0.2,0.2c-0.4,0.2-0.8,0.2-1.1,0
				C23.6,64.4,23.6,64.1,24,63.9z"/>
			<path class="st0" d="M28,62.2c0.2,0.1,0.3,0.2,0.2,0.4c0,0.1-0.1,0.2-0.2,0.2c-0.4,0.2-0.8,0.2-1.1,0c-0.2-0.1-0.3-0.2-0.2-0.4
				c0-0.1,0.1-0.2,0.2-0.2C27.2,62,27.6,62,28,62.2z"/>
			<ellipse class="st0" cx="30.4" cy="60.8" rx="0.8" ry="0.5"/>
			<path class="st0" d="M33.9,58.8c0.2,0.1,0.3,0.3,0.2,0.4c0,0.1-0.1,0.2-0.2,0.2c-0.4,0.2-0.8,0.2-1.1,0c-0.2-0.1-0.3-0.3-0.2-0.4
				c0-0.1,0.1-0.2,0.2-0.2C33.1,58.6,33.5,58.6,33.9,58.8z"/>
			<path class="st0" d="M36.9,57.1c0.2,0.1,0.3,0.2,0.2,0.4c0,0.1-0.1,0.2-0.2,0.2c-0.4,0.2-0.8,0.2-1.1,0c-0.2-0.1-0.3-0.2-0.2-0.4
				c0-0.1,0.1-0.2,0.2-0.2C36.1,56.9,36.5,56.9,36.9,57.1z"/>
			<path class="st0" d="M39.8,55.4c0.2,0.1,0.3,0.2,0.2,0.4c0,0.1-0.1,0.2-0.2,0.2c-0.4,0.2-0.8,0.2-1.1,0c-0.2-0.1-0.3-0.2-0.2-0.4
				c0-0.1,0.1-0.2,0.2-0.2C39,55.2,39.4,55.2,39.8,55.4z"/>
			<path class="st0" d="M42.7,53.7c0.2,0.1,0.3,0.2,0.2,0.4c0,0.1-0.1,0.2-0.2,0.2c-0.4,0.2-0.8,0.2-1.1,0s-0.3-0.5,0-0.6
				C42,53.5,42.4,53.5,42.7,53.7z"/>
			<path class="st0" d="M21,62.2c0.4-0.2,0.8-0.2,1.1,0c0.2,0.1,0.3,0.2,0.2,0.4c0,0.1-0.1,0.2-0.2,0.2c-0.4,0.2-0.8,0.2-1.1,0
				c-0.2-0.1-0.3-0.2-0.2-0.4C20.8,62.3,20.9,62.2,21,62.2z"/>
			<path class="st0" d="M25.1,60.5c0.2,0.1,0.3,0.2,0.2,0.4c0,0.1-0.1,0.2-0.2,0.2c-0.4,0.2-0.8,0.2-1.1,0c-0.2-0.1-0.3-0.2-0.2-0.4
				c0-0.1,0.1-0.2,0.2-0.2C24.3,60.3,24.7,60.3,25.1,60.5z"/>
			<path class="st0" d="M28,58.8c0.2,0.1,0.3,0.3,0.2,0.4c0,0.1-0.1,0.2-0.2,0.2c-0.4,0.2-0.8,0.2-1.1,0c-0.2-0.1-0.3-0.3-0.2-0.4
				c0-0.1,0.1-0.2,0.2-0.2C27.2,58.6,27.6,58.6,28,58.8z"/>
			<path class="st0" d="M31,57.1c0.2,0.1,0.3,0.2,0.2,0.4c0,0.1-0.1,0.2-0.2,0.2c-0.4,0.2-0.8,0.2-1.1,0c-0.2-0.1-0.3-0.2-0.2-0.4
				c0-0.1,0.1-0.2,0.2-0.2C30.2,56.9,30.6,56.9,31,57.1z"/>
			<path class="st0" d="M33.9,55.4c0.3,0.2,0.3,0.5,0,0.6c-0.4,0.2-0.8,0.2-1.1,0c-0.2-0.1-0.3-0.2-0.2-0.4c0-0.1,0.1-0.2,0.2-0.2
				C33.1,55.2,33.5,55.2,33.9,55.4z"/>
			<ellipse class="st0" cx="36.3" cy="54" rx="0.8" ry="0.5"/>
			<path class="st0" d="M39.8,52c0.2,0.1,0.3,0.2,0.2,0.4c0,0.1-0.1,0.2-0.2,0.2c-0.4,0.2-0.8,0.2-1.1,0c-0.2-0.1-0.3-0.2-0.2-0.4
				c0-0.1,0.1-0.2,0.2-0.2C39,51.8,39.4,51.8,39.8,52z"/>
			<path class="st0" d="M18,60.5c0.4-0.2,0.8-0.2,1.1,0c0.2,0.1,0.3,0.2,0.2,0.4c0,0.1-0.1,0.2-0.2,0.2c-0.4,0.2-0.8,0.2-1.1,0
				c-0.2-0.1-0.3-0.2-0.2-0.4C17.8,60.6,17.9,60.5,18,60.5z"/>
			<path class="st0" d="M15.1,58.8c0.4-0.2,0.8-0.2,1.1,0c0.3,0.2,0.3,0.5,0,0.6c-0.4,0.2-0.8,0.2-1.1,0c-0.2-0.1-0.3-0.2-0.2-0.4
				C14.9,58.9,15,58.8,15.1,58.8z"/>
		</g>
	</g>
</g>
</svg>
